<svg width="33" height="34" viewBox="0 0 33 34" fill="none" xmlns="http://www.w3.org/2000/svg">
<g clip-path="url(#clip0_510_186)" filter="url(#filter0_d_510_186)">
<path d="M17 32C25.8366 32 33 24.8366 33 16C33 7.16344 25.8366 0 17 0C8.16344 0 1 7.16344 1 16C1 24.8366 8.16344 32 17 32Z" fill="#CCCCCC"/>
<path d="M8.8625 14.5546H12.0742C13.3534 14.5546 13.7344 14.473 14.1699 13.0577L15.2586 13.0305L14.2788 16.4054H6.5218L6.49458 15.48C12.3191 9.7916 12.428 8.94786 12.4824 8.10412C12.6185 6.25334 11.2848 5.65456 10.5772 5.65456C9.86954 5.65456 8.69919 6.11725 7.55606 8.45795L6.54902 8.02247C8.07319 3.74934 10.6316 3.93986 11.4482 3.96708C13.4622 4.02151 14.7687 5.92673 14.7142 7.53256C14.6598 9.70995 13.7072 10.0366 8.8625 14.5546Z" fill="black"/>
<path d="M28.3117 4.68356C31.2083 7.57991 33 11.5799 33 15.9989C33 24.8361 25.8365 32 16.9997 32C12.5818 32 8.58208 30.2093 5.6864 27.3132" fill="#A59793"/>
<path d="M29.6784 21.1166C29.6784 21.981 29.3642 22.5707 28.7354 22.8846C28.5517 22.9765 27.9757 23.1016 27.0061 23.2578C26.3779 23.3634 26.0634 23.6053 26.0634 23.9845V25.5759C26.0634 25.6427 26.0836 25.8453 26.1222 26.1855L26.1814 26.8146C26.1814 27.0108 26.1354 27.332 26.0435 27.7772C25.7949 27.8293 25.5066 27.8885 25.1792 27.9548C25.0742 27.5612 25.0221 27.2927 25.0221 27.1484C25.0221 27.0834 25.0382 26.9845 25.071 26.8536C25.1037 26.7231 25.1203 26.6245 25.1203 26.5586C25.1203 26.4677 25.0394 26.212 24.8765 25.7925H24.5715C24.5312 25.8581 24.5181 25.9432 24.5309 26.0476C24.5834 26.2706 24.6029 26.46 24.5901 26.6175C24.367 26.7746 24.0598 26.9842 23.6669 27.2463C23.5744 27.22 23.5424 27.2069 23.5683 27.2069V25.812C23.5424 25.7471 23.4771 25.7208 23.3718 25.7333H23.136L22.9002 27.58C22.7168 27.5932 22.4944 27.5932 22.2326 27.58C22.1408 27.1477 21.977 26.5068 21.7414 25.6546H21.5837C21.4397 26.1132 21.3613 26.3621 21.3479 26.4015C21.3479 26.4536 21.3645 26.5548 21.3974 26.7058C21.4297 26.8568 21.4464 26.9576 21.4464 27.0101C21.4464 27.0492 21.433 27.1477 21.4064 27.3048L21.3475 27.7768C21.321 27.8021 21.289 27.8152 21.2496 27.8152C20.8566 27.8152 20.5942 27.717 20.464 27.5212C20.3322 27.3244 20.2797 27.0492 20.3063 26.6956L20.464 24.3387C20.464 24.2994 20.4765 24.2469 20.5027 24.1813C20.529 24.1163 20.5421 24.0699 20.5421 24.0443C20.5421 23.9394 20.4307 23.7295 20.2083 23.4146C20.169 23.4018 19.9661 23.3554 19.599 23.2767C19.3767 23.2248 18.9376 23.133 18.2832 23.0024C17.3792 22.8325 16.927 22.1054 16.927 20.8219C16.927 18.9089 17.7133 17.3182 19.2845 16.0475C19.3498 16.4014 19.4618 16.8724 19.6189 17.4619C19.7366 17.4888 19.9923 17.548 20.385 17.6392C20.464 17.6651 20.863 17.8094 21.5834 18.0715C21.217 17.8491 20.7386 17.4897 20.1498 16.9915C19.9267 16.7297 19.815 16.2904 19.815 15.6753C19.815 15.5304 20.064 15.3611 20.5622 15.1633C21.0074 14.9803 21.3411 14.8766 21.5642 14.8497C22.2711 14.7585 22.8147 14.7121 23.1949 14.7121C24.8317 14.7121 26.1549 15.1316 27.1632 15.9704C26.8362 16.3505 26.2726 16.7553 25.4739 17.1883C25.7882 17.2014 26.2467 17.0772 26.8493 16.8145C27.4515 16.5537 27.7069 16.4216 27.6154 16.4216C27.72 16.4216 27.9299 16.6315 28.2442 17.0504C28.4794 17.3646 28.6694 17.6465 28.8138 17.8952C29.233 18.6417 29.5146 19.4481 29.6589 20.3118C29.6589 20.6133 29.6654 20.8293 29.6785 20.9598V21.1166H29.6784ZM22.1533 21.4712C22.1533 20.9077 21.9079 20.3739 21.417 19.8693C20.9254 19.3649 20.3978 19.1131 19.8349 19.1131C19.3373 19.1131 18.8989 19.3243 18.5187 19.7461C18.1389 20.1681 17.9491 20.6363 17.9491 21.1509C17.9491 21.5989 18.1651 21.8898 18.5974 22.021C18.8726 22.1003 19.2585 22.1464 19.7562 22.1598H20.8368C21.7146 22.171 22.1533 21.9416 22.1533 21.4712ZM24.295 23.9071V23.2987C24.2035 23.1282 24.1117 22.9506 24.0205 22.7675C23.9418 22.5061 23.7974 22.1394 23.5882 21.667L23.3718 23.9659C23.3718 24.1503 23.3328 24.2415 23.2538 24.2415C23.2016 24.2415 23.1619 24.2287 23.136 24.2021C23.0442 22.8139 22.9987 22.211 22.9987 22.3954V21.708C22.9721 21.6677 22.9395 21.6478 22.9002 21.6478C22.455 22.1077 22.2326 22.8472 22.2326 23.868C22.2326 24.4315 22.2848 24.7784 22.3894 24.9103C22.4947 24.8837 22.6118 24.8376 22.7437 24.7723C22.7958 24.7458 22.9462 24.733 23.1952 24.733C23.4432 24.733 23.7456 24.8114 24.0986 24.9682C24.2298 24.9673 24.295 24.6146 24.295 23.9071ZM28.7354 21.1691C28.7354 20.6424 28.5389 20.171 28.1459 19.7553C27.753 19.3403 27.3011 19.1329 26.791 19.1329C26.2406 19.1329 25.7261 19.3848 25.2483 19.8885C24.7699 20.3928 24.5309 20.9202 24.5309 21.4709C24.5309 21.9291 24.7539 22.1579 25.199 22.1579H27.4579C28.3098 22.1451 28.7354 21.8162 28.7354 21.1691Z" fill="black"/>
</g>
<defs>
<filter id="filter0_d_510_186" x="0.5" y="0" width="32.5" height="34" filterUnits="userSpaceOnUse" color-interpolation-filters="sRGB">
<feFlood flood-opacity="0" result="BackgroundImageFix"/>
<feColorMatrix in="SourceAlpha" type="matrix" values="0 0 0 0 0 0 0 0 0 0 0 0 0 0 0 0 0 0 127 0" result="hardAlpha"/>
<feOffset dx="-0.5" dy="2"/>
<feColorMatrix type="matrix" values="0 0 0 0 0 0 0 0 0 0 0 0 0 0 0 0 0 0 1 0"/>
<feBlend mode="normal" in2="BackgroundImageFix" result="effect1_dropShadow_510_186"/>
<feBlend mode="normal" in="SourceGraphic" in2="effect1_dropShadow_510_186" result="shape"/>
</filter>
<clipPath id="clip0_510_186">
<rect width="32" height="32" fill="white" transform="translate(1)"/>
</clipPath>
</defs>
</svg>
