<svg width="33" height="34" viewBox="0 0 33 34" fill="none" xmlns="http://www.w3.org/2000/svg">
<g clip-path="url(#clip0_510_192)" filter="url(#filter0_d_510_192)">
<path d="M17 32C25.8366 32 33 24.8366 33 16C33 7.16344 25.8366 0 17 0C8.16344 0 1 7.16344 1 16C1 24.8366 8.16344 32 17 32Z" fill="#CBC2BF"/>
<path d="M8.86251 14.5546H12.0742C13.3534 14.5546 13.7344 14.473 14.1699 13.0577L15.2586 13.0305L14.2788 16.4054H6.52182L6.4946 15.48C12.3191 9.7916 12.428 8.94786 12.4824 8.10412C12.6185 6.25334 11.2849 5.65456 10.5772 5.65456C9.86956 5.65456 8.69921 6.11725 7.55608 8.45795L6.54903 8.02247C8.07321 3.74934 10.6316 3.93986 11.4482 3.96708C13.4623 4.02151 14.7687 5.92673 14.7143 7.53256C14.6598 9.70995 13.7072 10.0366 8.86251 14.5546Z" fill="#130C0E"/>
<path d="M28.3117 4.68356C31.2084 7.5799 33 11.5799 33 15.9989C33 24.8361 25.8362 32 17 32C12.5818 32 8.58245 30.2093 5.68677 27.3132" fill="#A3C095"/>
<path d="M29.6459 21.6377C29.6459 21.8802 29.5521 22.0975 29.3646 22.2914C29.1771 22.4847 28.9624 22.581 28.7198 22.581C28.3332 22.581 28.0484 22.3999 27.8676 22.0367L27.0142 22.0009C26.8324 22.0009 26.4753 22.0796 25.9435 22.2367C25.3748 22.3935 25.0481 22.5209 24.9633 22.6172C24.8305 22.7628 24.7217 23.1017 24.6366 23.6342C24.5636 24.0697 24.5281 24.3903 24.5281 24.5961C24.5281 24.9225 24.5793 25.1619 24.682 25.3129C24.7848 25.4643 24.9969 25.591 25.3169 25.6934C25.6369 25.7952 25.834 25.854 25.907 25.8659C25.9553 25.8659 26.0337 25.8601 26.1428 25.8477H26.3608C26.5179 25.8477 26.6814 25.872 26.8513 25.9203C27.0929 25.9929 27.1963 26.0889 27.1601 26.2105C26.9902 26.1869 26.6942 26.2227 26.2709 26.3193L26.7784 26.5737C26.7784 26.719 26.5729 26.791 26.1614 26.791C26.052 26.791 25.9038 26.768 25.7169 26.719C25.5291 26.6697 25.4049 26.6457 25.3448 26.6457H25.1089C25.0964 26.767 25.0606 26.9475 25.0001 27.1901C24.7937 27.1782 24.5521 27.0569 24.2737 26.8275C23.9953 26.5971 23.82 26.4822 23.748 26.4822C23.675 26.4822 23.572 26.5971 23.4392 26.8275C23.3057 27.0569 23.2392 27.2137 23.2392 27.2995C23.0821 27.2137 22.9496 27.0569 22.8395 26.8275C22.7912 26.6691 22.7368 26.512 22.6766 26.3542C22.5556 26.3667 22.332 26.6217 22.0052 27.1174H21.9144C21.8897 27.0813 21.7989 26.8275 21.6414 26.3542C21.2664 26.2342 20.916 26.1741 20.5892 26.1741C20.4321 26.1741 20.1896 26.2099 19.8625 26.2832L19.355 26.247C19.427 26.1741 19.6392 26.0352 19.9899 25.8294C20.4011 25.5868 20.716 25.4656 20.9336 25.4656C20.9694 25.4656 21.0177 25.4723 21.0788 25.4844C21.139 25.4969 21.1876 25.503 21.2241 25.503C21.308 25.503 21.4449 25.4576 21.6324 25.3664C21.82 25.2758 21.9288 25.1939 21.9582 25.1212C21.9896 25.048 22.0046 24.8611 22.0046 24.5584C22.0046 23.8694 21.8229 23.3542 21.4596 23.0163C21.1448 22.7139 20.6251 22.4963 19.8993 22.3625C19.7057 23.0518 19.1611 23.3974 18.266 23.3974C17.9752 23.3974 17.6852 23.2217 17.3947 22.8707C17.1051 22.5193 16.9592 22.199 16.9592 21.9087C16.9592 21.4607 17.1467 21.0921 17.5217 20.8015C17.2196 20.4876 17.0683 20.1669 17.0683 19.8396C17.0683 19.5375 17.1617 19.2713 17.3496 19.0409C17.5371 18.8117 17.7825 18.6783 18.0843 18.6415C18.0606 18.2549 18.187 17.988 18.4654 17.8431C18.3323 17.7106 18.266 17.4751 18.266 17.1355C18.266 16.7368 18.3988 16.4037 18.6654 16.1375C18.931 15.8719 19.2644 15.7381 19.6628 15.7381C20.099 15.7381 20.4561 15.8901 20.7339 16.1919C21.0852 14.9944 21.8408 14.3957 23.0024 14.3957C23.6072 14.3957 24.1396 14.6376 24.5995 15.1221C24.7691 15.3029 24.8532 15.3998 24.8532 15.4117C24.7083 15.4117 24.7812 15.3842 25.0712 15.3304C25.3617 15.2757 25.5729 15.2482 25.7064 15.2482C26.1781 15.2482 26.5957 15.4242 26.9592 15.7749C27.2737 16.0898 27.4916 16.4882 27.6126 16.9723C27.6971 16.9848 27.8299 17.0207 28.0113 17.0815C28.2776 17.2149 28.411 17.4447 28.411 17.7711C28.411 17.8312 28.3624 17.9468 28.2657 18.1164C29.0398 18.5519 29.427 19.1567 29.427 19.9308C29.427 20.149 29.3422 20.4514 29.1732 20.8383C29.4888 21.0204 29.6459 21.2866 29.6459 21.6377V21.6377ZM22.1688 22.4361V22.2006C22.1688 21.9225 22.0328 21.6681 21.7608 21.4383C21.4884 21.2079 21.2136 21.0937 20.9348 21.0937C20.5956 21.0937 20.2814 21.1724 19.9912 21.3285C20.6321 21.2933 21.3582 21.6617 22.1688 22.4361ZM21.842 20.1864C21.6606 19.9797 21.5035 19.7685 21.3704 19.5512C20.8619 19.6837 20.6081 19.8357 20.6081 20.0044C20.7531 19.9925 20.9652 20.0194 21.243 20.0863C21.5208 20.1532 21.7211 20.1864 21.842 20.1864ZM22.9499 19.6229V18.8245C22.6587 18.7768 22.483 18.7522 22.4232 18.7522V19.0245L22.9499 19.6229ZM25.3089 19.1154C25.1633 19.0549 24.8913 18.9336 24.4917 18.7522V20.3128C25.0606 19.9858 25.3326 19.5871 25.3089 19.1154ZM26.306 21.2569L25.9073 20.7676C25.666 20.9369 25.4206 21.1087 25.172 21.2844C24.924 21.4594 24.7092 21.6562 24.5284 21.8745C25.0721 21.5829 25.666 21.3781 26.306 21.2569Z" fill="#00160B"/>
</g>
<defs>
<filter id="filter0_d_510_192" x="0.5" y="0" width="32.5" height="34" filterUnits="userSpaceOnUse" color-interpolation-filters="sRGB">
<feFlood flood-opacity="0" result="BackgroundImageFix"/>
<feColorMatrix in="SourceAlpha" type="matrix" values="0 0 0 0 0 0 0 0 0 0 0 0 0 0 0 0 0 0 127 0" result="hardAlpha"/>
<feOffset dx="-0.5" dy="2"/>
<feColorMatrix type="matrix" values="0 0 0 0 0 0 0 0 0 0 0 0 0 0 0 0 0 0 1 0"/>
<feBlend mode="normal" in2="BackgroundImageFix" result="effect1_dropShadow_510_192"/>
<feBlend mode="normal" in="SourceGraphic" in2="effect1_dropShadow_510_192" result="shape"/>
</filter>
<clipPath id="clip0_510_192">
<rect width="32" height="32" fill="white" transform="translate(1)"/>
</clipPath>
</defs>
</svg>
