<svg width="33" height="34" viewBox="0 0 33 34" fill="none" xmlns="http://www.w3.org/2000/svg">
<g clip-path="url(#clip0_510_189)" filter="url(#filter0_d_510_189)">
<path d="M17 32C25.8366 32 33 24.8366 33 16C33 7.16344 25.8366 0 17 0C8.16344 0 1 7.16344 1 16C1 24.8366 8.16344 32 17 32Z" fill="#CBC2BF"/>
<path d="M8.86251 14.5546H12.0742C13.3534 14.5546 13.7344 14.473 14.1699 13.0577L15.2586 13.0305L14.2788 16.4054H6.52182L6.4946 15.48C12.3191 9.7916 12.428 8.94786 12.4824 8.10412C12.6185 6.25334 11.2849 5.65456 10.5772 5.65456C9.86956 5.65456 8.69921 6.11725 7.55608 8.45795L6.54903 8.02247C8.07321 3.74934 10.6316 3.93986 11.4482 3.96708C13.4623 4.02151 14.7687 5.92673 14.7143 7.53256C14.6598 9.70995 13.7072 10.0366 8.86251 14.5546Z" fill="#130C0E"/>
<path d="M28.3117 4.68354C31.2083 7.57989 33 11.5799 33 15.9989C33 24.8361 25.8361 32 17 32C12.5817 32 8.58239 30.2092 5.68671 27.3132" fill="#E49977"/>
<path d="M29.2559 23.8203C28.7062 25.132 27.6143 25.7867 25.9791 25.7867C25.6793 25.7867 25.3545 25.8242 25.005 25.9C24.4806 26.0117 24.2185 26.1682 24.2185 26.3682C24.2185 26.4299 24.262 26.5019 24.3497 26.5838C24.4367 26.6651 24.5122 26.7054 24.5746 26.7054C24.262 26.7054 24.4742 26.7144 25.2105 26.7333C25.9474 26.7522 26.4095 26.7618 26.597 26.7618C25.511 27.3976 23.6946 27.6907 21.1478 27.6418C20.3113 27.6293 19.5935 27.261 18.9945 26.5365C18.4073 25.8498 18.1142 25.0834 18.1142 24.2334C18.1142 23.3349 18.4169 22.5707 19.0226 21.9396C19.6274 21.3092 20.3801 20.994 21.279 20.994C21.4783 20.994 21.7439 21.0379 22.0745 21.1252C22.4054 21.2126 22.6271 21.2564 22.7391 21.2564C23.2012 21.2564 23.7756 21.0657 24.4623 20.6846C25.149 20.3044 25.4735 20.114 25.4361 20.114C25.311 21.4254 24.8742 22.3051 24.125 22.7547C23.5881 23.067 23.3199 23.3723 23.3199 23.6721C23.3199 23.8584 23.4319 24.0091 23.6566 24.1211C23.8313 24.2088 24.0249 24.2523 24.2374 24.2523C24.5618 24.2523 24.8799 24.0526 25.1922 23.6529C25.5039 23.2533 25.6412 22.8917 25.6038 22.5662C25.5666 22.1918 25.5919 21.7428 25.679 21.218C25.7036 21.068 25.7945 20.8843 25.9503 20.6654C26.1065 20.4465 26.2473 20.3127 26.3718 20.2628C26.3718 20.3748 26.3311 20.5624 26.2502 20.8244C26.1689 21.0865 26.1286 21.2811 26.1286 21.4046C26.1286 21.6792 26.2034 21.8913 26.3535 22.0414C26.5778 21.954 26.7772 21.6728 26.9526 21.1985C27.1023 20.8366 27.1894 20.4868 27.215 20.1502C26.6902 20.1252 26.1874 19.8884 25.7074 19.4385C25.2271 18.9889 24.9868 18.5019 24.9868 17.9783C24.9868 17.891 24.9986 17.8033 25.0242 17.7159C25.0985 17.8286 25.2108 18.0033 25.3612 18.2404C25.573 18.5531 25.7356 18.7083 25.8479 18.7083C25.9977 18.7083 26.0726 18.5531 26.0726 18.2404C26.0726 17.841 25.9663 17.4788 25.7542 17.154C25.5164 16.7671 25.2105 16.5738 24.8367 16.5738C24.6614 16.5738 24.3996 16.667 24.0502 16.8545C23.7004 17.041 23.382 17.1351 23.0956 17.1351C23.0083 17.1351 22.6207 17.0225 21.9343 16.7978C23.1449 16.5988 23.7506 16.4177 23.7506 16.2551C23.7506 15.8314 22.9206 15.5434 21.2601 15.394C21.0975 15.3821 20.7983 15.3569 20.3612 15.3191C20.4108 15.2573 20.767 15.1885 21.4287 15.1127C21.9903 15.0513 22.3833 15.0196 22.6079 15.0196C25.5791 15.0196 27.4639 16.4622 28.2633 19.3463C28.4012 19.2324 28.4697 19.0417 28.4697 18.7767C28.4697 18.4343 28.3698 18.0043 28.1698 17.4855C28.0946 17.283 27.9756 16.9793 27.8137 16.5745C28.837 17.8785 29.3497 19.1147 29.3497 20.2814C29.3497 20.8961 29.2054 21.4539 28.9183 21.9553C28.7318 22.2936 28.3814 22.7259 27.87 23.2539C27.358 23.7806 27.0089 24.1883 26.8214 24.4763C27.5081 24.2897 27.9577 24.1454 28.1698 24.0453C28.6438 23.8334 29.0748 23.5147 29.4617 23.091C29.4617 23.2526 29.3929 23.4968 29.2559 23.8203ZM21.0914 16.4615C21.0914 16.6858 20.9663 16.8289 20.717 16.8922L20.2303 16.9665C20.0553 17.0535 19.7993 17.3978 19.463 17.9969C19.4249 17.8097 19.3692 17.5482 19.294 17.2103C19.1817 17.2228 18.9948 17.3226 18.7324 17.5105C18.6201 17.5972 18.439 17.7294 18.1887 17.9038C18.2639 17.4545 18.5142 16.9994 18.9382 16.537C19.3874 16.0247 19.8246 15.7697 20.2489 15.7697C20.8105 15.7684 21.0914 15.9998 21.0914 16.4615ZM24.3497 18.1844C24.3497 18.3966 24.2342 18.5745 24.0031 18.7179C23.7721 18.8615 23.5442 18.9335 23.3199 18.9335C23.0198 18.9335 22.7513 18.7649 22.5145 18.4279C22.2271 18.0161 21.934 17.7479 21.6345 17.6222C21.6966 17.5604 21.7718 17.5284 21.8598 17.5284C21.9714 17.5284 22.1618 17.6158 22.4303 17.7902C22.6982 17.9658 22.8703 18.0522 22.9455 18.0522C23.0079 18.0522 23.1106 17.9655 23.254 17.7902C23.3974 17.6158 23.5567 17.5284 23.7318 17.5284C24.1439 17.5284 24.3497 17.7479 24.3497 18.1844Z" fill="#200000"/>
</g>
<defs>
<filter id="filter0_d_510_189" x="0.5" y="0" width="32.5" height="34" filterUnits="userSpaceOnUse" color-interpolation-filters="sRGB">
<feFlood flood-opacity="0" result="BackgroundImageFix"/>
<feColorMatrix in="SourceAlpha" type="matrix" values="0 0 0 0 0 0 0 0 0 0 0 0 0 0 0 0 0 0 127 0" result="hardAlpha"/>
<feOffset dx="-0.5" dy="2"/>
<feColorMatrix type="matrix" values="0 0 0 0 0 0 0 0 0 0 0 0 0 0 0 0 0 0 1 0"/>
<feBlend mode="normal" in2="BackgroundImageFix" result="effect1_dropShadow_510_189"/>
<feBlend mode="normal" in="SourceGraphic" in2="effect1_dropShadow_510_189" result="shape"/>
</filter>
<clipPath id="clip0_510_189">
<rect width="32" height="32" fill="white" transform="translate(1)"/>
</clipPath>
</defs>
</svg>
