<svg width="33" height="34" viewBox="0 0 33 34" fill="none" xmlns="http://www.w3.org/2000/svg">
<g clip-path="url(#clip0_510_188)" filter="url(#filter0_d_510_188)">
<path d="M17 32C25.8366 32 33 24.8366 33 16C33 7.16344 25.8366 0 17 0C8.16344 0 1 7.16344 1 16C1 24.8366 8.16344 32 17 32Z" fill="#CBC2BF"/>
<path d="M8.8625 14.5546H12.0742C13.3534 14.5546 13.7344 14.473 14.1699 13.0577L15.2586 13.0305L14.2788 16.4054H6.5218L6.49458 15.48C12.3191 9.7916 12.428 8.94786 12.4824 8.10412C12.6185 6.25334 11.2848 5.65456 10.5772 5.65456C9.86954 5.65456 8.69919 6.11725 7.55606 8.45795L6.54902 8.02247C8.07319 3.74934 10.6316 3.93986 11.4482 3.96708C13.4622 4.02151 14.7687 5.92673 14.7142 7.53256C14.6598 9.70995 13.7072 10.0366 8.8625 14.5546Z" fill="#130C0E"/>
<path d="M28.3116 4.68355C31.2082 7.5799 32.9999 11.5799 32.9999 15.9989C32.9999 24.8361 25.8364 32 16.9996 32C12.5816 32 8.58196 30.2092 5.68628 27.3132" fill="#C1D7E9"/>
<path d="M25.5508 26.7759C24.6894 27.6524 23.6283 28.0905 22.3678 28.0905C20.9527 28.0905 19.8305 27.606 19.0001 26.6377C18.2154 25.7148 17.8238 24.5391 17.8238 23.1087C17.8238 21.5714 18.4926 19.8187 19.8305 17.8497C20.9217 16.2347 22.2059 14.8203 23.6824 13.6052C23.467 14.5896 23.3591 15.2891 23.3591 15.7048C23.3591 16.6584 23.659 17.5883 24.2587 18.4955C24.9969 19.5723 25.5582 20.372 25.9425 20.8943C26.5422 21.8015 26.842 22.6863 26.842 23.5468C26.842 24.8236 26.412 25.9001 25.5508 26.7759ZM25.5278 21.8517C25.2971 21.3368 25.028 20.9941 24.7204 20.8251C24.7668 20.9173 24.7892 21.0485 24.7892 21.2175C24.7892 21.5407 24.6974 22.0024 24.5131 22.6011L24.2129 23.5244C24.2129 24.062 24.4814 24.3314 25.02 24.3314C25.5886 24.3314 25.8737 23.9548 25.8737 23.2011C25.8737 22.8168 25.7585 22.3666 25.5278 21.8517Z" fill="#061922"/>
</g>
<defs>
<filter id="filter0_d_510_188" x="0.5" y="0" width="32.5" height="34" filterUnits="userSpaceOnUse" color-interpolation-filters="sRGB">
<feFlood flood-opacity="0" result="BackgroundImageFix"/>
<feColorMatrix in="SourceAlpha" type="matrix" values="0 0 0 0 0 0 0 0 0 0 0 0 0 0 0 0 0 0 127 0" result="hardAlpha"/>
<feOffset dx="-0.5" dy="2"/>
<feColorMatrix type="matrix" values="0 0 0 0 0 0 0 0 0 0 0 0 0 0 0 0 0 0 1 0"/>
<feBlend mode="normal" in2="BackgroundImageFix" result="effect1_dropShadow_510_188"/>
<feBlend mode="normal" in="SourceGraphic" in2="effect1_dropShadow_510_188" result="shape"/>
</filter>
<clipPath id="clip0_510_188">
<rect width="32" height="32" fill="white" transform="translate(1)"/>
</clipPath>
</defs>
</svg>
