<svg width="33" height="34" viewBox="0 0 33 34" fill="none" xmlns="http://www.w3.org/2000/svg">
<g clip-path="url(#clip0_510_185)" filter="url(#filter0_d_510_185)">
<path d="M17 32C25.8366 32 33 24.8366 33 16C33 7.16344 25.8366 0 17 0C8.16344 0 1 7.16344 1 16C1 24.8366 8.16344 32 17 32Z" fill="#CBC2BF"/>
<path d="M28.3105 4.68368C31.2065 7.57968 32.9985 11.5797 32.9985 16.001C32.9985 24.8383 25.8358 32.001 16.9985 32.001C12.5825 32.001 8.58249 30.209 5.68649 27.313" fill="#9BD3AE"/>
<path d="M18.0437 8.99836C18.0437 9.86236 17.7291 10.4544 17.0997 10.769C16.9184 10.8597 16.3424 10.9877 15.3717 11.1424C14.7424 11.249 14.4277 11.489 14.4277 11.8677V13.457C14.4277 13.5264 14.4491 13.729 14.4864 14.065L14.5451 14.6944C14.5451 14.8917 14.4971 15.2117 14.4064 15.6597C14.1557 15.713 13.8677 15.7717 13.5424 15.8357C13.4357 15.441 13.3877 15.1744 13.3877 15.0304C13.3877 14.9664 13.4037 14.865 13.4357 14.737C13.4677 14.609 13.4837 14.5077 13.4837 14.4437C13.4837 14.353 13.4037 14.097 13.2384 13.6757H12.9344C12.8971 13.7397 12.8811 13.825 12.8917 13.9317C12.9451 14.1557 12.9664 14.3424 12.9504 14.5024C12.7264 14.657 12.4224 14.8704 12.0277 15.1317C11.9371 15.105 11.9051 15.0944 11.9317 15.0944V13.7024C11.9051 13.6384 11.8411 13.6117 11.7344 13.6224H11.4997L11.2651 15.4677C11.0837 15.4784 10.8597 15.4784 10.5984 15.4677C10.5077 15.0357 10.3424 14.3957 10.1077 13.5424H9.94775C9.80375 14.001 9.72375 14.2517 9.71308 14.289C9.71308 14.3424 9.72908 14.4437 9.76108 14.593C9.79308 14.7424 9.80908 14.8437 9.80908 14.897C9.80908 14.9344 9.79841 15.0357 9.77175 15.1904L9.71308 15.6597C9.68641 15.6864 9.65442 15.697 9.61708 15.697C9.22242 15.697 8.96108 15.601 8.83308 15.4037C8.69975 15.2064 8.65175 14.929 8.67308 14.577L8.83308 12.2197C8.83308 12.1824 8.84375 12.129 8.87042 12.0597C8.89708 11.9957 8.90775 11.9477 8.90775 11.921C8.90775 11.8144 8.79575 11.6064 8.57175 11.2917C8.53441 11.281 8.33175 11.233 7.96375 11.153C7.73975 11.0997 7.30241 11.009 6.64641 10.881C5.74508 10.7104 5.29175 9.98502 5.29175 8.69969C5.29175 6.78502 6.07575 5.19569 7.64908 3.92636C7.71308 4.27836 7.82508 4.75303 7.98508 5.33969C8.10241 5.36636 8.35841 5.42502 8.75308 5.51569C8.83308 5.54236 9.23308 5.68636 9.95308 5.94769C9.58508 5.72369 9.11041 5.36636 8.51841 4.86503C8.29441 4.60369 8.18242 4.16636 8.18242 3.54769C8.18242 3.40369 8.43308 3.23303 8.92908 3.03569C9.37175 2.85436 9.70775 2.74769 9.93175 2.72103C10.6411 2.63036 11.1797 2.58236 11.5637 2.58236C13.2011 2.58236 14.5238 3.00369 15.5317 3.84103C15.2064 4.21969 14.6411 4.62503 13.8411 5.05703C14.1557 5.06769 14.6144 4.94503 15.2171 4.68369C15.8197 4.42236 16.0758 4.28903 15.9851 4.28903C16.0918 4.28903 16.2997 4.49703 16.6144 4.91836C16.8491 5.23303 17.0411 5.51569 17.1851 5.76103C17.6064 6.50769 17.8837 7.31302 18.0331 8.17702C18.0331 8.47569 18.0384 8.69436 18.0544 8.82236V8.97702L18.0437 8.99836ZM10.5184 9.35036C10.5184 8.78502 10.2731 8.25169 9.78242 7.75036C9.29175 7.24369 8.76375 6.99302 8.19841 6.99302C7.70241 6.99302 7.26508 7.20636 6.88108 7.62769C6.50242 8.04902 6.31042 8.51836 6.31042 9.03036C6.31042 9.47836 6.52375 9.77169 6.96108 9.89969C7.23842 9.97969 7.62241 10.0277 8.11841 10.0384H9.20108C10.0811 10.049 10.5184 9.81969 10.5184 9.35036ZM12.6624 11.7877V11.1797C12.5717 11.009 12.4811 10.833 12.3904 10.6464C12.3104 10.385 12.1664 10.017 11.9584 9.54769L11.7397 11.8464C11.7397 12.0277 11.7024 12.1237 11.6224 12.1237C11.5691 12.1237 11.5317 12.113 11.5051 12.0864C11.4144 10.6997 11.3664 10.097 11.3664 10.2784V9.59036C11.3397 9.54769 11.3077 9.53169 11.2704 9.53169C10.8277 9.99036 10.6037 10.7317 10.6037 11.7504C10.6037 12.3157 10.6571 12.6624 10.7584 12.7904C10.8651 12.7637 10.9824 12.7157 11.1104 12.6517C11.1637 12.625 11.3131 12.6144 11.5637 12.6144C11.8144 12.6144 12.1131 12.6944 12.4651 12.849C12.5984 12.849 12.6624 12.497 12.6624 11.7877ZM17.1051 9.05169C17.1051 8.52369 16.9077 8.05436 16.5131 7.63836C16.1184 7.22236 15.6704 7.01436 15.1584 7.01436C14.6091 7.01436 14.0917 7.26502 13.6171 7.77169C13.1371 8.27302 12.8971 8.80102 12.8971 9.35569C12.8971 9.81436 13.1211 10.0437 13.5637 10.0437H15.8251C16.6784 10.033 17.0997 9.70236 17.0997 9.05702" fill="#130C0E"/>
<path d="M29.6489 21.6384C29.6489 21.8784 29.5529 22.0971 29.3663 22.2944C29.1796 22.4864 28.9663 22.5824 28.7209 22.5824C28.3369 22.5824 28.0489 22.4011 27.8676 22.0384L27.0143 22.0011C26.8329 22.0011 26.4756 22.0811 25.9423 22.2357C25.3716 22.3904 25.0463 22.5184 24.9609 22.6144C24.8276 22.7584 24.7209 23.0997 24.6356 23.6331C24.5609 24.0704 24.5289 24.3904 24.5289 24.5931C24.5289 24.9184 24.5823 25.1584 24.6836 25.3077C24.7849 25.4571 24.9983 25.5851 25.3183 25.6864C25.6383 25.7877 25.8356 25.8464 25.9103 25.8571C25.9583 25.8571 26.0383 25.8517 26.1449 25.8411H26.3636C26.5183 25.8411 26.6836 25.8677 26.8543 25.9157C27.0943 25.9904 27.2009 26.0864 27.1636 26.2037C26.9929 26.1824 26.6996 26.2144 26.2729 26.3104L26.7796 26.5664C26.7796 26.7104 26.5716 26.7851 26.1609 26.7851C26.0489 26.7851 25.9049 26.7637 25.7183 26.7157C25.5316 26.6677 25.4036 26.6411 25.3449 26.6411H25.1103C25.0996 26.7637 25.0623 26.9451 25.0036 27.1851C24.7956 27.1744 24.5556 27.0517 24.2783 26.8224C24.0009 26.5931 23.8249 26.4757 23.7503 26.4757C23.6756 26.4757 23.5743 26.5931 23.4409 26.8224C23.3076 27.0517 23.2436 27.2064 23.2436 27.2971C23.0889 27.2117 22.9556 27.0571 22.8436 26.8277C22.7956 26.6677 22.7423 26.5131 22.6783 26.3531C22.5556 26.3637 22.3316 26.6197 22.0063 27.1157H21.9156C21.8889 27.0784 21.7983 26.8277 21.6436 26.3531C21.2703 26.2357 20.9183 26.1717 20.5929 26.1717C20.4383 26.1717 20.1929 26.2091 19.8676 26.2784L19.3609 26.2411C19.4356 26.1664 19.6436 26.0277 19.9956 25.8251C20.4063 25.5851 20.7209 25.4624 20.9396 25.4624C20.9769 25.4624 21.0249 25.4677 21.0836 25.4837C21.1423 25.4944 21.1903 25.4997 21.2276 25.4997C21.3129 25.4997 21.4463 25.4517 21.6383 25.3611C21.8249 25.2704 21.9369 25.1904 21.9636 25.1157C21.9956 25.0411 22.0116 24.8544 22.0116 24.5504C22.0116 23.8624 21.8303 23.3451 21.4676 23.0091C21.1529 22.7051 20.6356 22.4917 19.9049 22.3531C19.7129 23.0411 19.1689 23.3877 18.2729 23.3877C17.9796 23.3877 17.6916 23.2117 17.4036 22.8597C17.1156 22.5077 16.9663 22.1877 16.9663 21.8997C16.9663 21.4517 17.1529 21.0837 17.5263 20.7904C17.2223 20.4757 17.0729 20.1557 17.0729 19.8304C17.0729 19.5264 17.1689 19.2597 17.3556 19.0304C17.5423 18.8011 17.7876 18.6677 18.0916 18.6304C18.0703 18.2464 18.1929 17.9744 18.4703 17.8304C18.3369 17.6971 18.2729 17.4624 18.2729 17.1211C18.2729 16.7211 18.4063 16.3904 18.6729 16.1237C18.9396 15.8571 19.2703 15.7237 19.6703 15.7237C20.1076 15.7237 20.4649 15.8784 20.7423 16.1771C21.0943 14.9771 21.8516 14.3797 23.0089 14.3797C23.6116 14.3797 24.1449 14.6197 24.6036 15.1051C24.7743 15.2864 24.8596 15.3824 24.8596 15.3931C24.7156 15.3931 24.7903 15.3664 25.0783 15.3131C25.3716 15.2597 25.5796 15.2331 25.7129 15.2331C26.1823 15.2331 26.6036 15.4091 26.9663 15.7611C27.2809 16.0757 27.4996 16.4757 27.6223 16.9611C27.7076 16.9717 27.8409 17.0091 28.0223 17.0677C28.2889 17.2011 28.4223 17.4304 28.4223 17.7557C28.4223 17.8144 28.3743 17.9317 28.2783 18.1024C29.0516 18.5397 29.4409 19.1424 29.4409 19.9157C29.4409 20.1344 29.3556 20.4384 29.1849 20.8224C29.4996 21.0037 29.6596 21.2704 29.6596 21.6224L29.6489 21.6384ZM22.1823 22.4224V22.1877C22.1823 21.9104 22.0489 21.6544 21.7769 21.4251C21.5049 21.1957 21.2276 21.0784 20.9503 21.0784C20.6089 21.0784 20.2943 21.1584 20.0063 21.3131C20.6463 21.2757 21.3716 21.6437 22.1823 22.4224ZM21.8569 20.1717C21.6756 19.9637 21.5209 19.7557 21.3876 19.5371C20.8809 19.6704 20.6249 19.8197 20.6249 19.9904C20.7689 19.9797 20.9823 20.0064 21.2596 20.0704C21.5369 20.1397 21.7396 20.1717 21.8569 20.1717ZM22.9663 19.6064V18.8064C22.6729 18.7584 22.4969 18.7317 22.4383 18.7317V19.0037L22.9663 19.6011V19.6064ZM25.3236 19.0944C25.1796 19.0357 24.9076 18.9131 24.5076 18.7317V20.2944C25.0783 19.9691 25.3503 19.5691 25.3236 19.0944ZM26.3209 21.2384L25.9209 20.7477C25.6809 20.9184 25.4356 21.0891 25.1849 21.2651C24.9396 21.4411 24.7209 21.6384 24.5396 21.8571C25.0836 21.5637 25.6756 21.3611 26.3156 21.2384" fill="#00160B"/>
</g>
<defs>
<filter id="filter0_d_510_185" x="0.5" y="0" width="32.5" height="34" filterUnits="userSpaceOnUse" color-interpolation-filters="sRGB">
<feFlood flood-opacity="0" result="BackgroundImageFix"/>
<feColorMatrix in="SourceAlpha" type="matrix" values="0 0 0 0 0 0 0 0 0 0 0 0 0 0 0 0 0 0 127 0" result="hardAlpha"/>
<feOffset dx="-0.5" dy="2"/>
<feColorMatrix type="matrix" values="0 0 0 0 0 0 0 0 0 0 0 0 0 0 0 0 0 0 1 0"/>
<feBlend mode="normal" in2="BackgroundImageFix" result="effect1_dropShadow_510_185"/>
<feBlend mode="normal" in="SourceGraphic" in2="effect1_dropShadow_510_185" result="shape"/>
</filter>
<clipPath id="clip0_510_185">
<rect width="32" height="32" fill="white" transform="translate(1)"/>
</clipPath>
</defs>
</svg>
