<svg width="33" height="34" viewBox="0 0 33 34" fill="none" xmlns="http://www.w3.org/2000/svg">
<g clip-path="url(#clip0_510_183)" filter="url(#filter0_d_510_183)">
<path d="M17 32C25.8366 32 33 24.8366 33 16C33 7.16344 25.8366 0 17 0C8.16344 0 1 7.16344 1 16C1 24.8366 8.16344 32 17 32Z" fill="#CBC2BF"/>
<path d="M28.3131 4.68368C31.2091 7.57968 33.0011 11.5797 33.0011 16.001C33.0011 24.8383 25.8385 32.001 17.0011 32.001C12.5851 32.001 8.58515 30.209 5.68915 27.313" fill="#F9AA8F"/>
<path d="M29.2571 23.8197C28.7078 25.1317 27.6145 25.7877 25.9825 25.7877C25.6838 25.7877 25.3585 25.825 25.0065 25.8997C24.4838 26.0117 24.2225 26.1664 24.2225 26.3691C24.2225 26.4331 24.2651 26.5024 24.3558 26.5824C24.4411 26.6624 24.5158 26.7051 24.5798 26.7051C24.2651 26.7051 24.4785 26.7157 25.2145 26.7317C25.9505 26.7531 26.4145 26.7584 26.6011 26.7584C25.5131 27.3931 23.6998 27.6864 21.1505 27.6384C20.3131 27.6277 19.5985 27.2597 18.9958 26.5344C18.4091 25.8464 18.1158 25.0784 18.1158 24.2304C18.1158 23.329 18.4198 22.5664 19.0225 21.937C19.6251 21.3077 20.3825 20.993 21.2785 20.993C21.4758 20.993 21.7425 21.0357 22.0731 21.121C22.4038 21.2064 22.6278 21.2544 22.7398 21.2544C23.2038 21.2544 23.7745 21.0624 24.4625 20.6837C25.1505 20.305 25.4758 20.113 25.4385 20.113C25.3158 21.425 24.8785 22.305 24.1265 22.753C23.5878 23.0677 23.3211 23.3717 23.3211 23.6704C23.3211 23.857 23.4331 24.0064 23.6571 24.1184C23.8331 24.2037 24.0251 24.2464 24.2385 24.2464C24.5638 24.2464 24.8838 24.049 25.1931 23.649C25.5025 23.249 25.6411 22.8864 25.6038 22.561C25.5665 22.1877 25.5931 21.7344 25.6785 21.2117C25.7051 21.0624 25.7958 20.8757 25.9505 20.657C26.1051 20.4384 26.2491 20.305 26.3718 20.2517C26.3718 20.3637 26.3291 20.5504 26.2491 20.8117C26.1691 21.073 26.1265 21.2704 26.1265 21.393C26.1265 21.6704 26.2011 21.8784 26.3505 22.0277C26.5745 21.9424 26.7718 21.6597 26.9478 21.185C27.0971 20.8224 27.1825 20.4757 27.2091 20.1397C26.6865 20.113 26.1798 19.8784 25.6998 19.425C25.2198 18.977 24.9798 18.4917 24.9798 17.9637C24.9798 17.8784 24.9905 17.7877 25.0171 17.7024C25.0918 17.8144 25.2038 17.9904 25.3531 18.225C25.5665 18.5397 25.7265 18.6944 25.8385 18.6944C25.9878 18.6944 26.0625 18.5397 26.0625 18.225C26.0625 17.825 25.9558 17.4624 25.7425 17.137C25.5025 16.7477 25.1985 16.5557 24.8251 16.5557C24.6491 16.5557 24.3878 16.6517 24.0411 16.8384C23.6891 17.025 23.3745 17.121 23.0865 17.121C23.0011 17.121 22.6118 17.009 21.9238 16.785C23.1345 16.5877 23.7425 16.4063 23.7425 16.241C23.7425 15.8197 22.9105 15.5317 21.2518 15.3823C21.0918 15.3717 20.7878 15.345 20.3505 15.3077C20.3985 15.2437 20.7558 15.1797 21.4171 15.0997C21.9771 15.0357 22.3718 15.0037 22.5958 15.0037C25.5665 15.0037 27.4545 16.4437 28.2491 19.329C28.3878 19.217 28.4571 19.025 28.4571 18.7584C28.4571 18.417 28.3558 17.985 28.1585 17.4677C28.0838 17.265 27.9665 16.961 27.8011 16.5557C28.8251 17.8624 29.3371 19.0944 29.3371 20.2624C29.3371 20.8757 29.1931 21.4357 28.9051 21.937C28.7185 22.2784 28.3665 22.7104 27.8545 23.2384C27.3425 23.7664 26.9958 24.1717 26.8038 24.4597C27.4918 24.273 27.9398 24.129 28.1531 24.0277C28.6278 23.8144 29.0598 23.4944 29.4438 23.073C29.4438 23.2384 29.3745 23.4784 29.2358 23.8037L29.2571 23.8197ZM21.0918 16.465C21.0918 16.689 20.9691 16.833 20.7185 16.897L20.2331 16.9717C20.0571 17.057 19.8011 17.4037 19.4651 18.001C19.4278 17.8144 19.3691 17.553 19.2944 17.217C19.1824 17.2277 18.9958 17.329 18.7344 17.5157C18.6224 17.601 18.4411 17.7344 18.1905 17.9104C18.2651 17.4624 18.5158 17.0037 18.9425 16.545C19.3905 16.033 19.8278 15.777 20.2544 15.777C20.8144 15.777 21.0971 16.0063 21.0971 16.4703L21.0918 16.465ZM24.3558 18.193C24.3558 18.4064 24.2385 18.5824 24.0091 18.7264C23.7798 18.8704 23.5505 18.9397 23.3265 18.9397C23.0278 18.9397 22.7558 18.7744 22.5211 18.433C22.2331 18.0224 21.9398 17.7557 21.6411 17.6277C21.7051 17.5637 21.7798 17.5317 21.8651 17.5317C21.9771 17.5317 22.1691 17.617 22.4358 17.793C22.7025 17.969 22.8785 18.0544 22.9531 18.0544C23.0171 18.0544 23.1185 17.969 23.2625 17.793C23.4065 17.617 23.5665 17.5317 23.7425 17.5317C24.1531 17.5317 24.3611 17.7504 24.3611 18.1877" fill="#200000"/>
<path d="M18.0411 8.99836C18.0411 9.86236 17.7265 10.4544 17.0971 10.769C16.9158 10.8597 16.3398 10.9877 15.3691 11.1424C14.7398 11.249 14.4251 11.489 14.4251 11.8677V13.457C14.4251 13.5264 14.4465 13.729 14.4838 14.065L14.5425 14.6944C14.5425 14.8917 14.4945 15.2117 14.4038 15.6597C14.1531 15.713 13.8651 15.7717 13.5398 15.8357C13.4331 15.441 13.3851 15.1744 13.3851 15.0304C13.3851 14.9664 13.4011 14.865 13.4331 14.737C13.4651 14.609 13.4811 14.5077 13.4811 14.4437C13.4811 14.353 13.4011 14.097 13.2358 13.6757H12.9318C12.8891 13.7397 12.8785 13.825 12.8891 13.9317C12.9425 14.1557 12.9638 14.3424 12.9478 14.5024C12.7238 14.657 12.4198 14.8704 12.0251 15.1317C11.9345 15.105 11.9025 15.0944 11.9291 15.0944V13.7024C11.9025 13.6384 11.8385 13.6117 11.7318 13.6224H11.4971L11.2625 15.4677C11.0811 15.4784 10.8571 15.4784 10.5958 15.4677C10.5051 15.0357 10.3398 14.3957 10.1051 13.5424H9.94512C9.80112 14.001 9.72112 14.2517 9.71046 14.289C9.71046 14.3424 9.72646 14.4437 9.75846 14.593C9.79046 14.7424 9.80646 14.8437 9.80646 14.897C9.80646 14.9344 9.79046 15.0357 9.76912 15.1904L9.71046 15.6597C9.68379 15.6864 9.65179 15.697 9.61446 15.697C9.21979 15.697 8.95846 15.601 8.83046 15.4037C8.69712 15.2064 8.64379 14.929 8.67046 14.577L8.83046 12.2197C8.83046 12.1824 8.84112 12.129 8.86779 12.0597C8.89446 11.9957 8.90512 11.9477 8.90512 11.921C8.90512 11.8144 8.79312 11.6064 8.56912 11.2917C8.53179 11.281 8.32912 11.233 7.96112 11.153C7.73712 11.0997 7.29979 11.009 6.64379 10.881C5.74246 10.7104 5.28912 9.98503 5.28912 8.6997C5.28912 6.78503 6.07312 5.1957 7.64646 3.92637C7.71046 4.27837 7.82246 4.75304 7.98246 5.3397C8.09979 5.36637 8.35579 5.42504 8.75046 5.5157C8.83046 5.54237 9.23046 5.68637 9.95046 5.9477C9.58246 5.7237 9.10779 5.36637 8.51579 4.86504C8.29179 4.6037 8.17979 4.16637 8.17979 3.54771C8.17979 3.40371 8.43046 3.23304 8.92646 3.03571C9.36912 2.85437 9.70512 2.74771 9.92912 2.72104C10.6385 2.63037 11.1771 2.58237 11.5611 2.58237C13.1985 2.58237 14.5211 3.00371 15.5291 3.84104C15.2038 4.2197 14.6385 4.62504 13.8385 5.05704C14.1531 5.0677 14.6118 4.94504 15.2145 4.6837C15.8171 4.42237 16.0731 4.28904 15.9825 4.28904C16.0891 4.28904 16.2971 4.49704 16.6118 4.91837C16.8465 5.23304 17.0385 5.5157 17.1825 5.76104C17.6038 6.5077 17.8811 7.31303 18.0251 8.17703C18.0251 8.4757 18.0305 8.69437 18.0465 8.82237V8.97703L18.0411 8.99836ZM10.5211 9.32903C10.5211 8.7637 10.2758 8.23037 9.78512 7.72903C9.29446 7.22237 8.76646 6.9717 8.20112 6.9717C7.70512 6.9717 7.26779 7.18503 6.88379 7.60637C6.50512 8.0277 6.31312 8.49703 6.31312 9.00903C6.31312 9.45703 6.53179 9.75036 6.96379 9.87836C7.24112 9.95836 7.62512 10.0064 8.12112 10.017H9.20379C10.0838 10.0277 10.5211 9.79836 10.5211 9.32903ZM12.6651 11.7664V11.1584C12.5745 10.9877 12.4838 10.8117 12.3931 10.625C12.3131 10.3637 12.1691 9.9957 11.9611 9.52636L11.7425 11.825C11.7425 12.0064 11.7051 12.1024 11.6251 12.1024C11.5718 12.1024 11.5345 12.0917 11.5078 12.065C11.4171 10.6784 11.3691 10.0757 11.3691 10.257V9.56903C11.3425 9.52636 11.3105 9.51036 11.2731 9.51036C10.8305 9.96903 10.6065 10.7104 10.6065 11.729C10.6065 12.2944 10.6598 12.641 10.7611 12.769C10.8678 12.7424 10.9851 12.6944 11.1131 12.6304C11.1665 12.6037 11.3158 12.593 11.5665 12.593C11.8171 12.593 12.1158 12.673 12.4678 12.8277C12.6011 12.8277 12.6651 12.4757 12.6651 11.7664ZM17.1078 9.03037C17.1078 8.50237 16.9105 8.03303 16.5211 7.61703C16.1265 7.20103 15.6785 6.99303 15.1665 6.99303C14.6171 6.99303 14.0998 7.2437 13.6251 7.75037C13.1451 8.2517 12.9051 8.7797 12.9051 9.33436C12.9051 9.79303 13.1291 10.0224 13.5718 10.0224H15.8331C16.6865 10.0117 17.1131 9.68103 17.1131 9.0357" fill="#130C0E"/>
</g>
<defs>
<filter id="filter0_d_510_183" x="0.5" y="0" width="32.5" height="34" filterUnits="userSpaceOnUse" color-interpolation-filters="sRGB">
<feFlood flood-opacity="0" result="BackgroundImageFix"/>
<feColorMatrix in="SourceAlpha" type="matrix" values="0 0 0 0 0 0 0 0 0 0 0 0 0 0 0 0 0 0 127 0" result="hardAlpha"/>
<feOffset dx="-0.5" dy="2"/>
<feColorMatrix type="matrix" values="0 0 0 0 0 0 0 0 0 0 0 0 0 0 0 0 0 0 1 0"/>
<feBlend mode="normal" in2="BackgroundImageFix" result="effect1_dropShadow_510_183"/>
<feBlend mode="normal" in="SourceGraphic" in2="effect1_dropShadow_510_183" result="shape"/>
</filter>
<clipPath id="clip0_510_183">
<rect width="32" height="32" fill="white" transform="translate(1)"/>
</clipPath>
</defs>
</svg>
