<svg width="33" height="34" viewBox="0 0 33 34" fill="none" xmlns="http://www.w3.org/2000/svg">
<g clip-path="url(#clip0_684_68)" filter="url(#filter0_d_684_68)">
<path d="M17 32C25.8366 32 33 24.8366 33 16C33 7.16344 25.8366 0 17 0C8.16344 0 1 7.16344 1 16C1 24.8366 8.16344 32 17 32Z" fill="#CBC2BF"/>
<path d="M28.3117 4.68356C31.2084 7.5799 33 11.5799 33 15.9989C33 24.8361 25.8362 32 17 32C12.5818 32 8.58245 30.2093 5.68677 27.3132" fill="#A3C095"/>
<path d="M29.6458 21.6377C29.6458 21.8802 29.5521 22.0975 29.3645 22.2914C29.177 22.4847 28.9623 22.581 28.7197 22.581C28.3332 22.581 28.0484 22.3999 27.8676 22.0367L27.0141 22.0009C26.8324 22.0009 26.4753 22.0796 25.9434 22.2367C25.3748 22.3935 25.0481 22.5209 24.9633 22.6172C24.8305 22.7628 24.7217 23.1017 24.6365 23.6342C24.5636 24.0697 24.5281 24.3903 24.5281 24.5961C24.5281 24.9225 24.5793 25.1619 24.682 25.3129C24.7847 25.4643 24.9969 25.591 25.3169 25.6934C25.6369 25.7952 25.834 25.854 25.9069 25.8659C25.9553 25.8659 26.0337 25.8601 26.1428 25.8477H26.3607C26.5178 25.8477 26.6813 25.872 26.8513 25.9203C27.0929 25.9929 27.1962 26.0889 27.1601 26.2105C26.9901 26.1869 26.6941 26.2227 26.2708 26.3193L26.7783 26.5737C26.7783 26.719 26.5729 26.791 26.1613 26.791C26.0519 26.791 25.9037 26.768 25.7169 26.719C25.529 26.6697 25.4049 26.6457 25.3447 26.6457H25.1089C25.0964 26.767 25.0605 26.9475 25.0001 27.1901C24.7937 27.1782 24.5521 27.0569 24.2737 26.8275C23.9953 26.5971 23.8199 26.4822 23.7479 26.4822C23.6749 26.4822 23.5719 26.5971 23.4391 26.8275C23.3057 27.0569 23.2391 27.2137 23.2391 27.2995C23.082 27.2137 22.9495 27.0569 22.8394 26.8275C22.7911 26.6691 22.7367 26.512 22.6765 26.3542C22.5556 26.3667 22.3319 26.6217 22.0052 27.1174H21.9143C21.8897 27.0813 21.7988 26.8275 21.6413 26.3542C21.2663 26.2342 20.9159 26.1741 20.5892 26.1741C20.4321 26.1741 20.1895 26.2099 19.8625 26.2832L19.3549 26.247C19.4269 26.1741 19.6391 26.0352 19.9898 25.8294C20.401 25.5868 20.7159 25.4656 20.9335 25.4656C20.9693 25.4656 21.0177 25.4723 21.0788 25.4844C21.1389 25.4969 21.1876 25.503 21.2241 25.503C21.3079 25.503 21.4449 25.4576 21.6324 25.3664C21.8199 25.2758 21.9287 25.1939 21.9581 25.1212C21.9895 25.048 22.0045 24.8611 22.0045 24.5584C22.0045 23.8694 21.8228 23.3542 21.4596 23.0163C21.1447 22.7139 20.625 22.4963 19.8993 22.3625C19.7057 23.0518 19.161 23.3974 18.266 23.3974C17.9751 23.3974 17.6852 23.2217 17.3946 22.8707C17.105 22.5193 16.9591 22.199 16.9591 21.9087C16.9591 21.4607 17.1466 21.0921 17.5217 20.8015C17.2196 20.4876 17.0682 20.1669 17.0682 19.8396C17.0682 19.5375 17.1617 19.2713 17.3495 19.0409C17.537 18.8117 17.7825 18.6783 18.0842 18.6415C18.0605 18.2549 18.1869 17.988 18.4653 17.8431C18.3322 17.7106 18.266 17.4751 18.266 17.1355C18.266 16.7368 18.3988 16.4037 18.6653 16.1375C18.9309 15.8719 19.2644 15.7381 19.6628 15.7381C20.0989 15.7381 20.4561 15.8901 20.7338 16.1919C21.0852 14.9944 21.8407 14.3957 23.0023 14.3957C23.6071 14.3957 24.1396 14.6376 24.5994 15.1221C24.769 15.3029 24.8532 15.3998 24.8532 15.4117C24.7082 15.4117 24.7812 15.3842 25.0711 15.3304C25.3617 15.2757 25.5729 15.2482 25.7063 15.2482C26.178 15.2482 26.5956 15.4242 26.9591 15.7749C27.2737 16.0898 27.4916 16.4882 27.6125 16.9723C27.697 16.9848 27.8298 17.0207 28.0113 17.0815C28.2775 17.2149 28.4109 17.4447 28.4109 17.7711C28.4109 17.8312 28.3623 17.9468 28.2657 18.1164C29.0397 18.5519 29.4269 19.1567 29.4269 19.9308C29.4269 20.149 29.3421 20.4514 29.1732 20.8383C29.4887 21.0204 29.6458 21.2866 29.6458 21.6377V21.6377ZM22.1687 22.4361V22.2006C22.1687 21.9225 22.0327 21.6681 21.7607 21.4383C21.4884 21.2079 21.2135 21.0937 20.9348 21.0937C20.5956 21.0937 20.2813 21.1724 19.9911 21.3285C20.6321 21.2933 21.3581 21.6617 22.1687 22.4361ZM21.842 20.1864C21.6605 19.9797 21.5034 19.7685 21.3703 19.5512C20.8618 19.6837 20.6081 19.8357 20.6081 20.0044C20.753 19.9925 20.9652 20.0194 21.2429 20.0863C21.5207 20.1532 21.721 20.1864 21.842 20.1864ZM22.9498 19.6229V18.8245C22.6586 18.7768 22.4829 18.7522 22.4231 18.7522V19.0245L22.9498 19.6229ZM25.3089 19.1154C25.1633 19.0549 24.8913 18.9336 24.4916 18.7522V20.3128C25.0605 19.9858 25.3325 19.5871 25.3089 19.1154ZM26.306 21.2569L25.9073 20.7676C25.666 20.9369 25.4205 21.1087 25.1719 21.2844C24.9239 21.4594 24.7092 21.6562 24.5284 21.8745C25.0721 21.5829 25.666 21.3781 26.306 21.2569Z" fill="#00160B"/>
<path d="M11.5 4C12.8425 6.85828 15.1417 9.1575 18 10.5C15.1417 11.8425 12.8425 14.1417 11.5 17C10.1575 14.1417 7.85828 11.8425 5 10.5C7.85828 9.1575 10.1575 6.85828 11.5 4ZM11.5 6.4375C10.6858 8.24122 9.24122 9.68577 7.4375 10.5C9.24122 11.3142 10.6858 12.7588 11.5 14.5625C12.3142 12.7588 13.7588 11.3142 15.5625 10.5C13.7588 9.68577 12.3142 8.24122 11.5 6.4375Z" fill="#130C0E"/>
</g>
<defs>
<filter id="filter0_d_684_68" x="0.5" y="0" width="32.5" height="34" filterUnits="userSpaceOnUse" color-interpolation-filters="sRGB">
<feFlood flood-opacity="0" result="BackgroundImageFix"/>
<feColorMatrix in="SourceAlpha" type="matrix" values="0 0 0 0 0 0 0 0 0 0 0 0 0 0 0 0 0 0 127 0" result="hardAlpha"/>
<feOffset dx="-0.5" dy="2"/>
<feColorMatrix type="matrix" values="0 0 0 0 0 0 0 0 0 0 0 0 0 0 0 0 0 0 1 0"/>
<feBlend mode="normal" in2="BackgroundImageFix" result="effect1_dropShadow_684_68"/>
<feBlend mode="normal" in="SourceGraphic" in2="effect1_dropShadow_684_68" result="shape"/>
</filter>
<clipPath id="clip0_684_68">
<rect width="32" height="32" fill="white" transform="translate(1)"/>
</clipPath>
</defs>
</svg>
