<svg width="33" height="34" viewBox="0 0 33 34" fill="none" xmlns="http://www.w3.org/2000/svg">
<g clip-path="url(#clip0_684_67)" filter="url(#filter0_d_684_67)">
<path d="M17 32C25.8366 32 33 24.8366 33 16C33 7.16344 25.8366 0 17 0C8.16344 0 1 7.16344 1 16C1 24.8366 8.16344 32 17 32Z" fill="#CBC2BF"/>
<path d="M28.3117 4.68354C31.2084 7.57989 33.0001 11.5799 33.0001 15.9989C33.0001 24.8361 25.8362 32 17 32C12.5818 32 8.58245 30.2092 5.68677 27.3132" fill="#E49977"/>
<path d="M29.256 23.8203C28.7063 25.132 27.6144 25.7867 25.9792 25.7867C25.6794 25.7867 25.3546 25.8242 25.0051 25.9C24.4807 26.0117 24.2186 26.1682 24.2186 26.3682C24.2186 26.4299 24.2621 26.5019 24.3498 26.5838C24.4368 26.6651 24.5123 26.7054 24.5747 26.7054C24.2621 26.7054 24.4743 26.7144 25.2106 26.7333C25.9475 26.7522 26.4096 26.7618 26.5971 26.7618C25.5111 27.3976 23.6947 27.6907 21.1479 27.6418C20.3114 27.6293 19.5936 27.261 18.9946 26.5365C18.4074 25.8498 18.1143 25.0834 18.1143 24.2334C18.1143 23.3349 18.417 22.5707 19.0227 21.9396C19.6275 21.3092 20.3802 20.994 21.2791 20.994C21.4784 20.994 21.744 21.0379 22.0746 21.1252C22.4055 21.2126 22.6272 21.2564 22.7392 21.2564C23.2013 21.2564 23.7757 21.0657 24.4624 20.6846C25.1491 20.3044 25.4736 20.114 25.4362 20.114C25.3111 21.4254 24.8743 22.3051 24.1251 22.7547C23.5882 23.067 23.32 23.3723 23.32 23.6721C23.32 23.8584 23.432 24.0091 23.6567 24.1211C23.8314 24.2088 24.025 24.2523 24.2375 24.2523C24.5619 24.2523 24.88 24.0526 25.1923 23.6529C25.504 23.2533 25.6413 22.8917 25.6039 22.5662C25.5667 22.1918 25.592 21.7428 25.6791 21.218C25.7037 21.068 25.7946 20.8843 25.9504 20.6654C26.1066 20.4465 26.2474 20.3127 26.3719 20.2628C26.3719 20.3748 26.3312 20.5624 26.2503 20.8244C26.169 21.0865 26.1287 21.2811 26.1287 21.4046C26.1287 21.6792 26.2035 21.8913 26.3536 22.0414C26.5779 21.954 26.7773 21.6728 26.9527 21.1985C27.1024 20.8366 27.1895 20.4868 27.2151 20.1502C26.6903 20.1252 26.1875 19.8884 25.7075 19.4385C25.2272 18.9889 24.9869 18.5019 24.9869 17.9783C24.9869 17.891 24.9987 17.8033 25.0243 17.7159C25.0986 17.8286 25.2109 18.0033 25.3613 18.2404C25.5731 18.5531 25.7357 18.7083 25.848 18.7083C25.9978 18.7083 26.0727 18.5531 26.0727 18.2404C26.0727 17.841 25.9664 17.4788 25.7543 17.154C25.5165 16.7671 25.2106 16.5738 24.8368 16.5738C24.6615 16.5738 24.3997 16.667 24.0503 16.8545C23.7005 17.041 23.3821 17.1351 23.0957 17.1351C23.0083 17.1351 22.6208 17.0225 21.9344 16.7978C23.145 16.5988 23.7507 16.4177 23.7507 16.2551C23.7507 15.8314 22.9207 15.5434 21.2602 15.394C21.0976 15.3821 20.7984 15.3569 20.3613 15.3191C20.4109 15.2573 20.7671 15.1885 21.4288 15.1127C21.9904 15.0513 22.3834 15.0196 22.608 15.0196C25.5792 15.0196 27.464 16.4622 28.2634 19.3463C28.4013 19.2324 28.4698 19.0417 28.4698 18.7767C28.4698 18.4343 28.3699 18.0043 28.1699 17.4855C28.0947 17.283 27.9757 16.9793 27.8138 16.5745C28.8371 17.8785 29.3498 19.1147 29.3498 20.2814C29.3498 20.8961 29.2055 21.4539 28.9184 21.9553C28.7319 22.2936 28.3815 22.7259 27.8701 23.2539C27.3581 23.7806 27.009 24.1883 26.8215 24.4763C27.5082 24.2897 27.9578 24.1454 28.1699 24.0453C28.6439 23.8334 29.0749 23.5147 29.4618 23.091C29.4618 23.2526 29.393 23.4968 29.256 23.8203ZM21.0915 16.4615C21.0915 16.6858 20.9664 16.8289 20.7171 16.8922L20.2304 16.9665C20.0554 17.0535 19.7994 17.3978 19.4631 17.9969C19.425 17.8097 19.3693 17.5482 19.2941 17.2103C19.1818 17.2228 18.9949 17.3226 18.7325 17.5105C18.6202 17.5972 18.4391 17.7294 18.1888 17.9038C18.264 17.4545 18.5143 16.9994 18.9383 16.537C19.3875 16.0247 19.8247 15.7697 20.249 15.7697C20.8106 15.7684 21.0915 15.9998 21.0915 16.4615ZM24.3498 18.1844C24.3498 18.3966 24.2343 18.5745 24.0032 18.7179C23.7722 18.8615 23.5443 18.9335 23.32 18.9335C23.0199 18.9335 22.7514 18.7649 22.5146 18.4279C22.2272 18.0161 21.9341 17.7479 21.6346 17.6222C21.6967 17.5604 21.7719 17.5284 21.8599 17.5284C21.9715 17.5284 22.1619 17.6158 22.4304 17.7902C22.6983 17.9658 22.8704 18.0522 22.9456 18.0522C23.008 18.0522 23.1107 17.9655 23.2541 17.7902C23.3975 17.6158 23.5568 17.5284 23.7319 17.5284C24.144 17.5284 24.3498 17.7479 24.3498 18.1844Z" fill="#200000"/>
<path d="M11.5 4C12.8425 6.85828 15.1417 9.1575 18 10.5C15.1417 11.8425 12.8425 14.1417 11.5 17C10.1575 14.1417 7.85828 11.8425 5 10.5C7.85828 9.1575 10.1575 6.85828 11.5 4ZM11.5 6.4375C10.6858 8.24122 9.24122 9.68577 7.4375 10.5C9.24122 11.3142 10.6858 12.7588 11.5 14.5625C12.3142 12.7588 13.7588 11.3142 15.5625 10.5C13.7588 9.68577 12.3142 8.24122 11.5 6.4375Z" fill="#130C0E"/>
</g>
<defs>
<filter id="filter0_d_684_67" x="0.5" y="0" width="32.5" height="34" filterUnits="userSpaceOnUse" color-interpolation-filters="sRGB">
<feFlood flood-opacity="0" result="BackgroundImageFix"/>
<feColorMatrix in="SourceAlpha" type="matrix" values="0 0 0 0 0 0 0 0 0 0 0 0 0 0 0 0 0 0 127 0" result="hardAlpha"/>
<feOffset dx="-0.5" dy="2"/>
<feColorMatrix type="matrix" values="0 0 0 0 0 0 0 0 0 0 0 0 0 0 0 0 0 0 1 0"/>
<feBlend mode="normal" in2="BackgroundImageFix" result="effect1_dropShadow_684_67"/>
<feBlend mode="normal" in="SourceGraphic" in2="effect1_dropShadow_684_67" result="shape"/>
</filter>
<clipPath id="clip0_684_67">
<rect width="32" height="32" fill="white" transform="translate(1)"/>
</clipPath>
</defs>
</svg>
