<svg width="33" height="34" viewBox="0 0 33 34" fill="none" xmlns="http://www.w3.org/2000/svg">
<g clip-path="url(#clip0_684_66)" filter="url(#filter0_d_684_66)">
<path d="M17 32C25.8366 32 33 24.8366 33 16C33 7.16344 25.8366 0 17 0C8.16344 0 1 7.16344 1 16C1 24.8366 8.16344 32 17 32Z" fill="#CBC2BF"/>
<path d="M28.3116 4.68355C31.2082 7.5799 32.9999 11.5799 32.9999 15.9989C32.9999 24.8361 25.8364 32 16.9996 32C12.5816 32 8.58196 30.2092 5.68628 27.3132" fill="#C1D7E9"/>
<path d="M25.5508 26.7759C24.6894 27.6524 23.6283 28.0905 22.3678 28.0905C20.9528 28.0905 19.8305 27.606 19.0001 26.6377C18.2155 25.7148 17.8238 24.5391 17.8238 23.1087C17.8238 21.5714 18.4926 19.8187 19.8305 17.8497C20.9217 16.2347 22.2059 14.8203 23.6824 13.6052C23.467 14.5896 23.3592 15.2891 23.3592 15.7048C23.3592 16.6584 23.659 17.5883 24.2587 18.4955C24.9969 19.5723 25.5582 20.372 25.9425 20.8943C26.5422 21.8015 26.8421 22.6863 26.8421 23.5468C26.8421 24.8236 26.412 25.9001 25.5508 26.7759ZM25.5278 21.8517C25.2971 21.3368 25.028 20.9941 24.7205 20.8251C24.7668 20.9173 24.7893 21.0485 24.7893 21.2175C24.7893 21.5407 24.6974 22.0024 24.5131 22.6011L24.2129 23.5244C24.2129 24.062 24.4814 24.3314 25.02 24.3314C25.5886 24.3314 25.8738 23.9548 25.8738 23.2011C25.8738 22.8168 25.7585 22.3666 25.5278 21.8517Z" fill="#061922"/>
<path d="M11.5 4C12.8425 6.85828 15.1417 9.1575 18 10.5C15.1417 11.8425 12.8425 14.1417 11.5 17C10.1575 14.1417 7.85828 11.8425 5 10.5C7.85828 9.1575 10.1575 6.85828 11.5 4ZM11.5 6.4375C10.6858 8.24122 9.24122 9.68577 7.4375 10.5C9.24122 11.3142 10.6858 12.7588 11.5 14.5625C12.3142 12.7588 13.7588 11.3142 15.5625 10.5C13.7588 9.68577 12.3142 8.24122 11.5 6.4375Z" fill="#130C0E"/>
</g>
<defs>
<filter id="filter0_d_684_66" x="0.5" y="0" width="32.5" height="34" filterUnits="userSpaceOnUse" color-interpolation-filters="sRGB">
<feFlood flood-opacity="0" result="BackgroundImageFix"/>
<feColorMatrix in="SourceAlpha" type="matrix" values="0 0 0 0 0 0 0 0 0 0 0 0 0 0 0 0 0 0 127 0" result="hardAlpha"/>
<feOffset dx="-0.5" dy="2"/>
<feColorMatrix type="matrix" values="0 0 0 0 0 0 0 0 0 0 0 0 0 0 0 0 0 0 1 0"/>
<feBlend mode="normal" in2="BackgroundImageFix" result="effect1_dropShadow_684_66"/>
<feBlend mode="normal" in="SourceGraphic" in2="effect1_dropShadow_684_66" result="shape"/>
</filter>
<clipPath id="clip0_684_66">
<rect width="32" height="32" fill="white" transform="translate(1)"/>
</clipPath>
</defs>
</svg>
