<svg width="33" height="34" viewBox="0 0 33 34" fill="none" xmlns="http://www.w3.org/2000/svg">
<g clip-path="url(#clip0_684_69)" filter="url(#filter0_d_684_69)">
<path d="M17 32C25.8366 32 33 24.8366 33 16C33 7.16344 25.8366 0 17 0C8.16344 0 1 7.16344 1 16C1 24.8366 8.16344 32 17 32Z" fill="#CBC2BF"/>
<path d="M11.5 4C12.8425 6.85828 15.1417 9.1575 18 10.5C15.1417 11.8425 12.8425 14.1417 11.5 17C10.1575 14.1417 7.85828 11.8425 5 10.5C7.85828 9.1575 10.1575 6.85828 11.5 4ZM11.5 6.4375C10.6858 8.24122 9.24122 9.68577 7.4375 10.5C9.24122 11.3142 10.6858 12.7588 11.5 14.5625C12.3142 12.7588 13.7588 11.3142 15.5625 10.5C13.7588 9.68577 12.3142 8.24122 11.5 6.4375Z" fill="#130C0E"/>
<path d="M28.3116 4.68356C31.2082 7.5799 32.9999 11.5799 32.9999 15.9989C32.9999 24.8361 25.8364 32 16.9996 32C12.5816 32 8.58196 30.2092 5.68628 27.3132" fill="#F8F6D8"/>
<path d="M29.1598 23.3954C28.3802 22.6709 27.8625 22.2782 27.6087 22.2171C27.4241 22.173 27.2455 22.2805 27.0737 22.539C26.9018 22.7976 26.6602 22.8885 26.3476 22.8136C26.2209 22.7832 25.9716 22.6744 25.601 22.4882C25.3009 22.7714 25.1399 22.9589 25.1178 23.0507C25.0874 23.1781 25.146 23.3509 25.2938 23.5698C25.441 23.7887 25.5799 23.9125 25.7098 23.9442C25.7924 23.964 25.9089 23.9733 26.059 23.9727C26.2084 23.9723 26.3076 23.9778 26.3553 23.989C26.4973 24.0222 26.5054 24.2997 26.3802 24.8203C26.2618 25.317 25.9636 26.053 25.4865 27.0258C25.4679 25.7749 25.2916 25.1093 24.9565 25.0293C24.9101 25.0181 24.8065 25.0305 24.6455 25.0648C24.4842 25.0991 24.369 25.1087 24.2999 25.092C23.9649 25.0117 23.7374 24.6334 23.6183 23.9573C23.0669 23.9109 22.7361 24.1192 22.6254 24.581C22.57 24.8133 22.633 25.0235 22.8138 25.2133C22.9943 25.4027 23.0775 25.5266 23.0644 25.5845C22.9898 25.8975 22.4177 26.2671 21.3508 26.6959C20.7822 26.9269 20.3889 27.0888 20.1706 27.1829C20.3812 27.014 20.6087 26.781 20.851 26.4847C21.1271 26.1464 21.29 25.8747 21.3402 25.6658C21.3677 25.5509 21.2733 25.3563 21.0577 25.0853C20.8414 24.8136 20.7613 24.5624 20.8167 24.3317C20.8634 24.1352 20.9905 23.9096 21.1985 23.6533C21.0897 23.4443 20.9316 23.3141 20.723 23.2645C20.2609 23.1534 19.994 23.2485 19.922 23.5496C19.9716 23.3413 19.9345 23.4974 19.8103 24.0174C19.7303 24.4014 19.3956 24.523 18.8061 24.3826C18.3553 24.2744 17.6234 23.9893 16.6097 23.5269C17.8839 23.5144 18.5674 23.3112 18.6612 22.9185C18.651 22.9653 18.6612 22.82 18.6919 22.4856C18.7313 22.1163 19.0631 21.8529 19.6868 21.6968C19.7098 21.1406 19.497 20.8081 19.0458 20.7006C18.9767 20.6836 18.8199 20.7745 18.5777 20.9736C18.3341 21.1717 18.1316 21.252 17.9703 21.2129C17.6929 21.1473 17.4065 20.7608 17.1114 20.0545C16.9751 19.7038 16.7636 19.1832 16.4769 18.4913C16.7095 18.6935 16.9418 18.8964 17.1748 19.098C17.4829 19.3432 17.7412 19.49 17.9489 19.5406C18.1108 19.5787 18.3034 19.475 18.5274 19.2289C18.7508 18.9828 18.9898 18.8903 19.2442 18.9518C19.2797 18.9601 19.4938 19.0843 19.8881 19.3256C20.1879 19.043 20.3572 18.8212 20.3959 18.6593C20.4286 18.5201 20.3832 18.3412 20.2583 18.122C20.1338 17.9022 20.0017 17.7767 19.8628 17.7428C19.8052 17.7291 19.7118 17.7246 19.5821 17.7303C19.4525 17.7367 19.3588 17.7322 19.3009 17.7185C19.0932 17.6689 19.0509 17.3841 19.1754 16.8635C19.2081 16.7246 19.531 15.9646 20.1428 14.5844C20.0897 14.754 20.0874 15.0964 20.1362 15.609C20.1938 16.234 20.356 16.5777 20.6219 16.642C20.668 16.6526 20.7685 16.6404 20.9243 16.6043C21.0792 16.5681 21.1973 16.5595 21.2776 16.5793C21.5432 16.6423 21.7269 16.8455 21.8287 17.1873L21.9768 17.7166C22.2191 17.7755 22.4421 17.7371 22.6453 17.6027C22.8488 17.4679 22.98 17.2791 23.0379 17.0366C23.0984 16.7822 23.0379 16.5633 22.8562 16.379C22.6738 16.1946 22.5909 16.0679 22.6082 15.9988C22.6661 15.7559 23.1455 15.4372 24.0466 15.042C24.7694 14.7268 25.2335 14.5505 25.4383 14.5137C24.781 15.0657 24.4146 15.4961 24.3403 15.8087C24.3013 15.971 24.3581 16.1674 24.5103 16.4001C24.7007 16.6775 24.8018 16.867 24.8142 16.9668C24.8658 17.2612 24.7675 17.6219 24.5183 18.0516C24.7778 18.346 24.9884 18.5118 25.1509 18.5515C25.485 18.6315 25.6943 18.4977 25.7775 18.1515C25.7859 18.1166 25.7975 18.0033 25.8133 17.8113C25.828 17.6193 25.845 17.5131 25.8616 17.4929C25.9471 17.3419 26.284 17.3371 26.8735 17.4785C27.2434 17.5668 27.9868 17.8545 29.1045 18.3419C28.8334 18.3505 28.4274 18.3627 27.8856 18.3806C27.3899 18.4081 27.1215 18.5089 27.0792 18.682C27.0604 18.763 27.0555 18.9086 27.0665 19.1185C27.0774 19.3285 27.0722 19.4808 27.0497 19.5733C27.0113 19.7352 26.8711 19.86 26.6302 19.9493L25.9403 20.2241C26.019 20.5115 26.0747 20.6843 26.1102 20.7409C26.1931 20.9077 26.3316 21.0142 26.5284 21.0616C26.6673 21.0949 26.8235 21.004 26.9972 20.7883C27.1706 20.5733 27.3851 20.4961 27.6391 20.5573C27.9515 20.6315 28.2347 21.0046 28.4894 21.6766C28.6318 22.0533 28.8551 22.6264 29.1601 23.3954L29.1598 23.3954ZM25.5518 21.4693C25.7284 20.7291 25.6106 20.0229 25.1972 19.3499C24.7838 18.6769 24.2071 18.2513 23.4679 18.0744C22.7165 17.8948 22.0042 18.0088 21.3329 18.4168C20.6615 18.8235 20.2298 19.4014 20.0385 20.1499C19.8497 20.8869 19.9713 21.5912 20.4036 22.2632C20.8353 22.9346 21.4212 23.3592 22.161 23.5362C22.9466 23.724 23.6644 23.6239 24.313 23.2354C24.962 22.8466 25.3748 22.2574 25.5518 21.4693ZM25.2916 21.4066C25.123 22.1115 24.7466 22.6389 24.1617 22.9871C23.5774 23.3359 22.9322 23.4264 22.2276 23.2578C21.5457 23.0946 21.0186 22.7179 20.6465 22.1278C20.2743 21.5378 20.1703 20.9022 20.3332 20.2203C20.4941 19.5496 20.8769 19.0334 21.4829 18.6708C22.0897 18.3092 22.7274 18.2084 23.3972 18.3691C24.0673 18.5291 24.5905 18.9109 24.9649 19.5134C25.3402 20.1173 25.449 20.748 25.2916 21.4066Z" fill="#211D15"/>
</g>
<defs>
<filter id="filter0_d_684_69" x="0.5" y="0" width="32.5" height="34" filterUnits="userSpaceOnUse" color-interpolation-filters="sRGB">
<feFlood flood-opacity="0" result="BackgroundImageFix"/>
<feColorMatrix in="SourceAlpha" type="matrix" values="0 0 0 0 0 0 0 0 0 0 0 0 0 0 0 0 0 0 127 0" result="hardAlpha"/>
<feOffset dx="-0.5" dy="2"/>
<feColorMatrix type="matrix" values="0 0 0 0 0 0 0 0 0 0 0 0 0 0 0 0 0 0 1 0"/>
<feBlend mode="normal" in2="BackgroundImageFix" result="effect1_dropShadow_684_69"/>
<feBlend mode="normal" in="SourceGraphic" in2="effect1_dropShadow_684_69" result="shape"/>
</filter>
<clipPath id="clip0_684_69">
<rect width="32" height="32" fill="white" transform="translate(1)"/>
</clipPath>
</defs>
</svg>
