<svg width="33" height="34" viewBox="0 0 33 34" fill="none" xmlns="http://www.w3.org/2000/svg">
<g clip-path="url(#clip0_510_180)" filter="url(#filter0_d_510_180)">
<path d="M17 32C25.8366 32 33 24.8366 33 16C33 7.16344 25.8366 0 17 0C8.16344 0 1 7.16344 1 16C1 24.8366 8.16344 32 17 32Z" fill="#9BD3AE"/>
<path d="M28.3118 4.68192C31.2078 7.57792 32.9998 11.5779 32.9998 15.9992C32.9998 24.8366 25.8371 31.9992 16.9998 31.9992C12.5838 31.9992 8.58381 30.2072 5.68781 27.3112" fill="#AAE0FA"/>
<path d="M25.5492 26.7779C24.6852 27.6526 23.6292 28.0953 22.3652 28.0953C20.9518 28.0953 19.8265 27.6099 18.9998 26.6446C18.2158 25.7219 17.8212 24.5486 17.8212 23.1139C17.8212 21.5779 18.4878 19.8232 19.8265 17.8552C20.9198 16.2392 22.1998 14.8259 23.6772 13.6099C23.4638 14.5966 23.3572 15.2952 23.3572 15.7112C23.3572 16.6659 23.6558 17.5939 24.2585 18.5006C24.9945 19.5779 25.5598 20.3779 25.9438 20.9006C26.5412 21.8072 26.8452 22.6926 26.8452 23.5512C26.8452 24.8259 26.4132 25.9032 25.5545 26.7832L25.5492 26.7779ZM25.5332 21.8606C25.3038 21.3432 25.0318 21.0019 24.7278 20.8366C24.7758 20.9272 24.7972 21.0606 24.7972 21.2312C24.7972 21.5566 24.7065 22.0152 24.5198 22.6126L24.2212 23.5352C24.2212 24.0739 24.4878 24.3406 25.0265 24.3406C25.5972 24.3406 25.8798 23.9619 25.8798 23.2099C25.8798 22.8259 25.7625 22.3779 25.5332 21.8606Z" fill="#061922"/>
<path d="M17.5276 10.9699C17.5276 11.2099 17.4316 11.4285 17.245 11.6259C17.0583 11.8179 16.8396 11.9139 16.5996 11.9139C16.2156 11.9139 15.9276 11.7325 15.7463 11.3699L14.893 11.3325C14.7116 11.3325 14.3543 11.4125 13.821 11.5672C13.2503 11.7219 12.925 11.8499 12.8396 11.9459C12.7063 12.0899 12.5996 12.4312 12.5143 12.9645C12.4396 13.4019 12.4076 13.7219 12.4076 13.9299C12.4076 14.2552 12.461 14.4952 12.5623 14.6446C12.6636 14.7939 12.877 14.9219 13.197 15.0232C13.517 15.1246 13.7143 15.1832 13.789 15.1939C13.837 15.1939 13.917 15.1886 14.0236 15.1779H14.2423C14.397 15.1779 14.5623 15.2046 14.733 15.2526C14.973 15.3272 15.0796 15.4232 15.0423 15.5406C14.8716 15.5192 14.5783 15.5512 14.1516 15.6472L14.6583 15.9032C14.6583 16.0472 14.4503 16.1219 14.0396 16.1219C13.9276 16.1219 13.7836 16.1006 13.597 16.0472C13.4103 15.9992 13.2876 15.9726 13.2236 15.9726H12.989C12.9783 16.0952 12.941 16.2766 12.8823 16.5166C12.6743 16.5059 12.4343 16.3832 12.157 16.1539C11.8796 15.9246 11.7036 15.8072 11.629 15.8072C11.5543 15.8072 11.453 15.9246 11.3196 16.1539C11.1863 16.3832 11.1223 16.5379 11.1223 16.6286C10.9676 16.5432 10.8343 16.3886 10.7223 16.1592C10.6743 15.9992 10.621 15.8446 10.557 15.6846C10.4343 15.6952 10.2103 15.9512 9.88497 16.4472H9.7943C9.76764 16.4099 9.67697 16.1592 9.5223 15.6846C9.14897 15.5619 8.79697 15.5032 8.47164 15.5032C8.31697 15.5032 8.07164 15.5406 7.7463 15.6099L7.23964 15.5726C7.3143 15.4979 7.5223 15.3592 7.8743 15.1566C8.28497 14.9166 8.59964 14.7939 8.8183 14.7939C8.85564 14.7939 8.90364 14.7992 8.9623 14.8099C9.02097 14.8206 9.06897 14.8312 9.1063 14.8312C9.19164 14.8312 9.32497 14.7832 9.51697 14.6926C9.70364 14.6019 9.81564 14.5219 9.8423 14.4472C9.8743 14.3726 9.89031 14.1859 9.89031 13.8819C9.89031 13.1939 9.70897 12.6765 9.3463 12.3405C9.03164 12.0365 8.5143 11.8232 7.78364 11.6845C7.59164 12.3725 7.04764 12.7192 6.15164 12.7192C5.8583 12.7192 5.5703 12.5432 5.2823 12.1912C4.9943 11.8392 4.84497 11.5192 4.84497 11.2312C4.84497 10.7832 5.03164 10.4152 5.40497 10.1219C5.10097 9.80721 4.95164 9.48721 4.95164 9.16188C4.95164 8.85788 5.04764 8.59121 5.2343 8.36188C5.42097 8.13254 5.6663 7.99921 5.9703 7.96188C5.94897 7.57788 6.07164 7.30588 6.34897 7.16188C6.21564 7.02854 6.15164 6.79387 6.15164 6.45254C6.15164 6.05254 6.28497 5.72187 6.55164 5.45521C6.8183 5.18854 7.14897 5.05521 7.54897 5.05521C7.9863 5.05521 8.34364 5.20987 8.62097 5.50854C8.97297 4.30854 9.7303 3.7112 10.8876 3.7112C11.4903 3.7112 12.0236 3.9512 12.4823 4.43654C12.653 4.61787 12.7383 4.71387 12.7383 4.72454C12.5943 4.72454 12.669 4.69787 12.957 4.64454C13.2503 4.59121 13.4583 4.56454 13.5916 4.56454C14.061 4.56454 14.4823 4.74054 14.845 5.09254C15.1596 5.40721 15.3783 5.80721 15.501 6.29254C15.5863 6.30321 15.7196 6.34054 15.901 6.39921C16.1676 6.53254 16.301 6.76187 16.301 7.08721C16.301 7.14588 16.253 7.26321 16.157 7.43388C16.9303 7.87121 17.3196 8.47388 17.3196 9.24721C17.3196 9.46588 17.2343 9.76988 17.0636 10.1539C17.3783 10.3352 17.5383 10.6019 17.5383 10.9539L17.5276 10.9699ZM10.061 11.7539V11.5192C10.061 11.2419 9.92764 10.9859 9.6503 10.7565C9.3783 10.5272 9.10097 10.4099 8.82364 10.4099C8.4823 10.4099 8.16764 10.4899 7.87964 10.6445C8.51964 10.6072 9.24497 10.9752 10.0556 11.7539H10.061ZM9.7303 9.50321C9.54897 9.29521 9.3943 9.08721 9.26097 8.86854C8.7543 9.00188 8.4983 9.15121 8.4983 9.32188C8.6423 9.31121 8.85564 9.33788 9.13297 9.40188C9.4103 9.47121 9.61297 9.50321 9.7303 9.50321ZM10.8396 8.93788V8.13788C10.5463 8.08988 10.3703 8.06321 10.3116 8.06321V8.33521L10.8396 8.93254V8.93788ZM13.197 8.42588C13.053 8.36721 12.781 8.24454 12.381 8.06321V9.62588C12.9516 9.30054 13.2236 8.90054 13.197 8.42588ZM14.1943 10.5699L13.7943 10.0792C13.5543 10.2499 13.309 10.4205 13.0583 10.5965C12.813 10.7725 12.5943 10.9699 12.413 11.1885C12.957 10.8952 13.549 10.6925 14.189 10.5699" fill="#00160B"/>
</g>
<defs>
<filter id="filter0_d_510_180" x="0.5" y="0" width="32.5" height="34" filterUnits="userSpaceOnUse" color-interpolation-filters="sRGB">
<feFlood flood-opacity="0" result="BackgroundImageFix"/>
<feColorMatrix in="SourceAlpha" type="matrix" values="0 0 0 0 0 0 0 0 0 0 0 0 0 0 0 0 0 0 127 0" result="hardAlpha"/>
<feOffset dx="-0.5" dy="2"/>
<feColorMatrix type="matrix" values="0 0 0 0 0 0 0 0 0 0 0 0 0 0 0 0 0 0 1 0"/>
<feBlend mode="normal" in2="BackgroundImageFix" result="effect1_dropShadow_510_180"/>
<feBlend mode="normal" in="SourceGraphic" in2="effect1_dropShadow_510_180" result="shape"/>
</filter>
<clipPath id="clip0_510_180">
<rect width="32" height="32" fill="white" transform="translate(1)"/>
</clipPath>
</defs>
</svg>
