<svg width="33" height="34" viewBox="0 0 33 34" fill="none" xmlns="http://www.w3.org/2000/svg">
<g clip-path="url(#clip0_510_184)" filter="url(#filter0_d_510_184)">
<path d="M17 32C25.8366 32 33 24.8366 33 16C33 7.16344 25.8366 0 17 0C8.16344 0 1 7.16344 1 16C1 24.8366 8.16344 32 17 32Z" fill="#F9AA8F"/>
<path d="M28.3142 4.68483C31.2102 7.58083 33.0022 11.5808 33.0022 16.0022C33.0022 24.8395 25.8395 32.0022 17.0022 32.0022C12.5862 32.0022 8.58619 30.2102 5.69019 27.3142" fill="#A3C095"/>
<path d="M17.6209 12.1835C17.0716 13.4955 15.9782 14.1515 14.3409 14.1515C14.0422 14.1515 13.7169 14.1888 13.3649 14.2635C12.8422 14.3755 12.5809 14.5355 12.5809 14.7328C12.5809 14.7968 12.6236 14.8661 12.7142 14.9461C12.7996 15.0261 12.8742 15.0688 12.9382 15.0688C12.6236 15.0688 12.8369 15.0795 13.5729 15.0955C14.3089 15.1168 14.7729 15.1221 14.9596 15.1221C13.8716 15.7568 12.0582 16.0501 9.50891 16.0021C8.67158 15.9915 7.95691 15.6235 7.35424 14.8981C6.76758 14.2101 6.47424 13.4421 6.47424 12.5941C6.47424 11.6928 6.77824 10.9301 7.38091 10.3008C7.98358 9.67146 8.74091 9.35679 9.63691 9.35679C9.83424 9.35679 10.1009 9.39946 10.4316 9.48479C10.7622 9.57013 10.9862 9.61813 11.0982 9.61813C11.5622 9.61813 12.1329 9.42613 12.8209 9.04746C13.5089 8.66879 13.8342 8.47679 13.7969 8.47679C13.6742 9.7888 13.2369 10.6688 12.4849 11.1168C11.9462 11.4315 11.6796 11.7355 11.6796 12.0341C11.6796 12.2208 11.7916 12.3701 12.0156 12.4821C12.1916 12.5675 12.3836 12.6101 12.5969 12.6101C12.9222 12.6101 13.2422 12.4128 13.5516 12.0128C13.8609 11.6128 13.9996 11.2501 13.9622 10.9248C13.9249 10.5515 13.9516 10.0981 14.0369 9.57546C14.0636 9.42613 14.1542 9.23946 14.3089 9.02079C14.4636 8.80213 14.6076 8.66879 14.7302 8.61546C14.7302 8.72746 14.6876 8.91413 14.6076 9.17546C14.5276 9.43679 14.4849 9.63413 14.4849 9.7568C14.4849 10.0341 14.5596 10.2421 14.7089 10.3915C14.9329 10.3061 15.1356 10.0235 15.3062 9.5488C15.4556 9.18613 15.5409 8.83946 15.5676 8.49813C15.0449 8.47679 14.5382 8.23679 14.0582 7.78879C13.5782 7.34079 13.3382 6.85013 13.3382 6.32746C13.3382 6.24212 13.3489 6.15146 13.3756 6.06612C13.4502 6.17812 13.5622 6.35412 13.7116 6.58879C13.9249 6.89813 14.0849 7.05813 14.1969 7.05813C14.3462 7.05813 14.4209 6.90346 14.4209 6.58879C14.4209 6.18879 14.3142 5.82612 14.1009 5.50079C13.8609 5.11146 13.5569 4.91946 13.1836 4.91946C13.0076 4.91946 12.7462 5.01546 12.3996 5.20212C12.0476 5.38879 11.7329 5.48479 11.4449 5.48479C11.3596 5.48479 10.9702 5.37279 10.2822 5.14879C11.4929 4.95146 12.1009 4.77012 12.1009 4.60479C12.1009 4.17812 11.2689 3.89546 9.61024 3.74612C9.45024 3.73546 9.14624 3.70879 8.71424 3.67145C8.76224 3.60745 9.11958 3.54345 9.78091 3.46345C10.3409 3.39945 10.7356 3.36745 10.9596 3.36745C13.9302 3.36745 15.8182 4.81279 16.6129 7.69279C16.7516 7.58079 16.8209 7.38879 16.8209 7.12213C16.8209 6.78079 16.7196 6.34879 16.5222 5.83146C16.4476 5.62879 16.3302 5.32479 16.1649 4.91946C17.1889 6.22612 17.7009 7.45813 17.7009 8.62613C17.7009 9.23946 17.5569 9.79946 17.2689 10.3008C17.0822 10.6421 16.7302 11.0741 16.2182 11.6021C15.7062 12.1301 15.3596 12.5355 15.1676 12.8235C15.8556 12.6368 16.3036 12.4928 16.5169 12.3915C16.9916 12.1781 17.4236 11.8581 17.8076 11.4368C17.8076 11.6021 17.7382 11.8421 17.5996 12.1675L17.6209 12.1835ZM9.43424 4.80746C9.43424 5.03146 9.31158 5.17546 9.06091 5.23946L8.57558 5.31412C8.39958 5.39946 8.14358 5.74612 7.80758 6.34346C7.77024 6.15679 7.71158 5.89546 7.63691 5.55946C7.52491 5.57012 7.33824 5.67146 7.07691 5.85812C6.96491 5.94346 6.78358 6.07679 6.53291 6.25279C6.60758 5.80479 6.85824 5.34612 7.28491 4.88746C7.73291 4.37546 8.17024 4.11946 8.59691 4.11946C9.15691 4.11946 9.43958 4.34879 9.43958 4.81279L9.43424 4.80746ZM12.6982 6.53546C12.6982 6.74879 12.5809 6.92479 12.3516 7.06879C12.1222 7.21279 11.8929 7.28213 11.6689 7.28213C11.3702 7.28213 11.0982 7.11679 10.8636 6.77546C10.5756 6.36479 10.2822 6.09812 9.98358 5.97012C10.0476 5.90612 10.1222 5.87412 10.2076 5.87412C10.3196 5.87412 10.5116 5.95946 10.7782 6.13546C11.0449 6.31146 11.2156 6.39679 11.2956 6.39679C11.3596 6.39679 11.4609 6.31146 11.6049 6.13546C11.7489 5.95946 11.9089 5.87412 12.0849 5.87412C12.4956 5.87412 12.7036 6.09279 12.7036 6.53012" fill="#200000"/>
<path d="M29.6475 21.6395C29.6475 21.8795 29.5515 22.0981 29.3648 22.2955C29.1782 22.4875 28.9648 22.5835 28.7195 22.5835C28.3355 22.5835 28.0475 22.4021 27.8662 22.0395L27.0128 22.0021C26.8315 22.0021 26.4742 22.0821 25.9408 22.2368C25.3702 22.3915 25.0448 22.5195 24.9595 22.6155C24.8262 22.7595 24.7195 23.1008 24.6342 23.6341C24.5595 24.0715 24.5275 24.3915 24.5275 24.5941C24.5275 24.9195 24.5808 25.1595 24.6822 25.3088C24.7835 25.4581 24.9968 25.5861 25.3168 25.6875C25.6368 25.7888 25.8342 25.8475 25.9088 25.8582C25.9568 25.8582 26.0368 25.8528 26.1435 25.8421H26.3622C26.5168 25.8421 26.6822 25.8688 26.8528 25.9168C27.0928 25.9915 27.1995 26.0875 27.1622 26.2048C26.9915 26.1835 26.6982 26.2155 26.2715 26.3115L26.7782 26.5675C26.7782 26.7115 26.5702 26.7862 26.1595 26.7862C26.0475 26.7862 25.9035 26.7648 25.7168 26.7168C25.5302 26.6688 25.4022 26.6422 25.3435 26.6422H25.1088C25.0982 26.7648 25.0608 26.9462 25.0022 27.1862C24.7942 27.1755 24.5542 27.0528 24.2768 26.8235C23.9995 26.5942 23.8235 26.4768 23.7488 26.4768C23.6742 26.4768 23.5728 26.5942 23.4395 26.8235C23.3062 27.0528 23.2422 27.2075 23.2422 27.2982C23.0875 27.2128 22.9542 27.0582 22.8422 26.8288C22.7942 26.6688 22.7408 26.5142 22.6768 26.3542C22.5542 26.3648 22.3302 26.6208 22.0048 27.1168H21.9142C21.8875 27.0795 21.7968 26.8288 21.6422 26.3542C21.2688 26.2368 20.9168 26.1728 20.5915 26.1728C20.4368 26.1728 20.1915 26.2102 19.8662 26.2795L19.3595 26.2422C19.4342 26.1675 19.6422 26.0288 19.9942 25.8261C20.4048 25.5861 20.7195 25.4635 20.9382 25.4635C20.9755 25.4635 21.0235 25.4688 21.0822 25.4848C21.1408 25.4955 21.1888 25.5008 21.2262 25.5008C21.3115 25.5008 21.4448 25.4528 21.6368 25.3621C21.8235 25.2715 21.9355 25.1915 21.9622 25.1168C21.9942 25.0421 22.0102 24.8555 22.0102 24.5515C22.0102 23.8635 21.8288 23.3461 21.4662 23.0101C21.1515 22.7061 20.6342 22.4928 19.9035 22.3541C19.7115 23.0421 19.1675 23.3888 18.2715 23.3888C17.9782 23.3888 17.6902 23.2128 17.4022 22.8608C17.1142 22.5088 16.9648 22.1888 16.9648 21.9008C16.9648 21.4528 17.1515 21.0848 17.5248 20.7915C17.2208 20.4768 17.0715 20.1568 17.0715 19.8315C17.0715 19.5275 17.1675 19.2608 17.3542 19.0315C17.5408 18.8021 17.7862 18.6688 18.0902 18.6315C18.0688 18.2475 18.1915 17.9755 18.4688 17.8315C18.3355 17.6981 18.2715 17.4635 18.2715 17.1221C18.2715 16.7221 18.4048 16.3915 18.6715 16.1248C18.9382 15.8581 19.2688 15.7248 19.6688 15.7248C20.1062 15.7248 20.4635 15.8795 20.7408 16.1781C21.0928 14.9781 21.8502 14.3808 23.0075 14.3808C23.6102 14.3808 24.1435 14.6208 24.6022 15.1061C24.7728 15.2875 24.8582 15.3835 24.8582 15.3941C24.7142 15.3941 24.7888 15.3675 25.0768 15.3141C25.3702 15.2608 25.5782 15.2341 25.7115 15.2341C26.1808 15.2341 26.6022 15.4101 26.9648 15.7621C27.2795 16.0768 27.4982 16.4768 27.6208 16.9621C27.7062 16.9728 27.8395 17.0101 28.0208 17.0688C28.2875 17.2021 28.4208 17.4315 28.4208 17.7568C28.4208 17.8155 28.3728 17.9328 28.2768 18.1035C29.0502 18.5408 29.4395 19.1435 29.4395 19.9168C29.4395 20.1355 29.3542 20.4395 29.1835 20.8235C29.4982 21.0048 29.6582 21.2715 29.6582 21.6235L29.6475 21.6395ZM22.1808 22.4235V22.1888C22.1808 21.9115 22.0475 21.6555 21.7755 21.4261C21.5035 21.1968 21.2262 21.0795 20.9488 21.0795C20.6075 21.0795 20.2928 21.1595 20.0048 21.3141C20.6448 21.2768 21.3702 21.6448 22.1808 22.4235ZM21.8555 20.1728C21.6742 19.9648 21.5195 19.7568 21.3862 19.5381C20.8795 19.6715 20.6235 19.8208 20.6235 19.9915C20.7675 19.9808 20.9808 20.0075 21.2582 20.0715C21.5355 20.1408 21.7382 20.1728 21.8555 20.1728ZM22.9648 19.6075V18.8075C22.6715 18.7595 22.4955 18.7328 22.4368 18.7328V19.0048L22.9648 19.6021V19.6075ZM25.3222 19.0955C25.1782 19.0368 24.9062 18.9141 24.5062 18.7328V20.2955C25.0768 19.9701 25.3488 19.5701 25.3222 19.0955ZM26.3195 21.2395L25.9195 20.7488C25.6795 20.9195 25.4342 21.0901 25.1835 21.2661C24.9382 21.4421 24.7195 21.6395 24.5382 21.8581C25.0822 21.5648 25.6742 21.3621 26.3142 21.2395" fill="#00160B"/>
</g>
<defs>
<filter id="filter0_d_510_184" x="0.5" y="0" width="32.5" height="34" filterUnits="userSpaceOnUse" color-interpolation-filters="sRGB">
<feFlood flood-opacity="0" result="BackgroundImageFix"/>
<feColorMatrix in="SourceAlpha" type="matrix" values="0 0 0 0 0 0 0 0 0 0 0 0 0 0 0 0 0 0 127 0" result="hardAlpha"/>
<feOffset dx="-0.5" dy="2"/>
<feColorMatrix type="matrix" values="0 0 0 0 0 0 0 0 0 0 0 0 0 0 0 0 0 0 1 0"/>
<feBlend mode="normal" in2="BackgroundImageFix" result="effect1_dropShadow_510_184"/>
<feBlend mode="normal" in="SourceGraphic" in2="effect1_dropShadow_510_184" result="shape"/>
</filter>
<clipPath id="clip0_510_184">
<rect width="32" height="32" fill="white" transform="translate(1)"/>
</clipPath>
</defs>
</svg>
