<svg width="33" height="34" viewBox="0 0 33 34" fill="none" xmlns="http://www.w3.org/2000/svg">
<g clip-path="url(#clip0_510_181)" filter="url(#filter0_d_510_181)">
<path d="M17 32C25.8366 32 33 24.8366 33 16C33 7.16344 25.8366 0 17 0C8.16344 0 1 7.16344 1 16C1 24.8366 8.16344 32 17 32Z" fill="#AAE0FA"/>
<path d="M28.3092 4.68209C31.2052 7.57809 32.9972 11.5781 32.9972 15.9994C32.9972 24.8368 25.8346 31.9994 16.9972 31.9994C12.5812 31.9994 8.58124 30.2074 5.68524 27.3114" fill="#CBC2BF"/>
<path d="M14.1547 15.4128C13.296 16.2875 12.2347 16.7248 10.9707 16.7248C9.55733 16.7248 8.432 16.2395 7.60533 15.2741C6.82133 14.3515 6.42667 13.1728 6.42667 11.7435C6.42667 10.2075 7.09333 8.4528 8.432 6.4848C9.52533 4.8688 10.8053 3.45546 12.2827 2.23946C12.0693 3.22613 11.9627 3.9248 11.9627 4.3408C11.9627 5.29546 12.2613 6.22346 12.864 7.13013C13.6 8.20746 14.1653 9.00746 14.5493 9.53013C15.1467 10.4368 15.4507 11.3221 15.4507 12.1808C15.4507 13.4608 15.0187 14.5328 14.16 15.4128H14.1547ZM14.1387 10.4901C13.9093 9.9728 13.6373 9.63146 13.3333 9.4608C13.3813 9.55146 13.4027 9.6848 13.4027 9.85546C13.4027 10.1808 13.312 10.6395 13.1253 11.2368L12.8267 12.1595C12.8267 12.6981 13.0987 12.9648 13.632 12.9648C14.2027 12.9648 14.4853 12.5861 14.4853 11.8341C14.4853 11.4501 14.368 11.0021 14.1387 10.4848" fill="#061922"/>
<path d="M29.6799 21.1194C29.6799 21.9834 29.3652 22.5754 28.7359 22.8901C28.5545 22.9808 27.9785 23.1088 27.0079 23.2634C26.3785 23.3701 26.0639 23.6101 26.0639 23.9888V25.5781C26.0639 25.6474 26.0852 25.8501 26.1225 26.1861L26.1812 26.8154C26.1812 27.0128 26.1332 27.3328 26.0425 27.7808C25.7919 27.8341 25.5039 27.8928 25.1785 27.9568C25.0719 27.5621 25.0239 27.2954 25.0239 27.1514C25.0239 27.0874 25.0399 26.9861 25.0719 26.8581C25.1039 26.7301 25.1199 26.6288 25.1199 26.5648C25.1199 26.4741 25.0399 26.2181 24.8745 25.7968H24.5705C24.5279 25.8608 24.5172 25.9461 24.5279 26.0528C24.5812 26.2768 24.6025 26.4634 24.5865 26.6234C24.3625 26.7781 24.0585 26.9914 23.6639 27.2528C23.5732 27.2261 23.5412 27.2154 23.5679 27.2154V25.8234C23.5412 25.7594 23.4772 25.7328 23.3705 25.7434H23.1359L22.9012 27.5888C22.7199 27.5994 22.4959 27.5994 22.2345 27.5888C22.1439 27.1568 21.9785 26.5168 21.7439 25.6634H21.5839C21.4399 26.1221 21.3599 26.3728 21.3492 26.4101C21.3492 26.4634 21.3652 26.5648 21.3972 26.7141C21.4292 26.8634 21.4452 26.9648 21.4452 27.0181C21.4452 27.0554 21.4292 27.1568 21.4079 27.3114L21.3492 27.7861C21.3225 27.8128 21.2905 27.8234 21.2532 27.8234C20.8585 27.8234 20.5972 27.7274 20.4692 27.5301C20.3359 27.3328 20.2825 27.0608 20.3092 26.7034L20.4692 24.3461C20.4692 24.3088 20.4799 24.2554 20.5065 24.1861C20.5332 24.1221 20.5439 24.0741 20.5439 24.0474C20.5439 23.9408 20.4319 23.7328 20.2079 23.4181C20.1705 23.4074 19.9679 23.3594 19.5999 23.2794C19.3759 23.2261 18.9385 23.1354 18.2825 23.0074C17.3812 22.8368 16.9279 22.1114 16.9279 20.8261C16.9279 18.9114 17.7119 17.3221 19.2852 16.0528C19.3492 16.4048 19.4612 16.8794 19.6212 17.4661C19.7385 17.4928 19.9945 17.5514 20.3892 17.6421C20.4692 17.6688 20.8692 17.8128 21.5892 18.0741C21.2212 17.8501 20.7465 17.4928 20.1545 16.9968C19.9305 16.7354 19.8185 16.2981 19.8185 15.6794C19.8185 15.5354 20.0692 15.3648 20.5652 15.1674C21.0079 14.9861 21.3439 14.8794 21.5679 14.8528C22.2772 14.7621 22.8159 14.7141 23.1999 14.7141C24.8372 14.7141 26.1599 15.1354 27.1679 15.9728C26.8425 16.3514 26.2772 16.7568 25.4772 17.1888C25.7919 17.1994 26.2505 17.0768 26.8532 16.8154C27.4559 16.5541 27.7119 16.4208 27.6212 16.4208C27.7279 16.4208 27.9359 16.6288 28.2505 17.0501C28.4852 17.3648 28.6772 17.6474 28.8212 17.8928C29.2425 18.6394 29.5199 19.4448 29.6639 20.3088C29.6639 20.6128 29.6692 20.8261 29.6852 20.9594V21.1141L29.6799 21.1194ZM22.1545 21.4714C22.1545 20.9061 21.9092 20.3728 21.4185 19.8714C20.9279 19.3648 20.3999 19.1141 19.8345 19.1141C19.3385 19.1141 18.9012 19.3274 18.5172 19.7488C18.1385 20.1701 17.9465 20.6394 17.9465 21.1514C17.9465 21.5994 18.1652 21.8928 18.5972 22.0208C18.8745 22.1008 19.2585 22.1488 19.7545 22.1594H20.8372C21.7172 22.1701 22.1545 21.9408 22.1545 21.4714ZM24.2985 23.9088V23.3008C24.2079 23.1301 24.1172 22.9541 24.0265 22.7674C23.9465 22.5061 23.8025 22.1381 23.5945 21.6688L23.3759 23.9674C23.3759 24.1541 23.3385 24.2448 23.2585 24.2448C23.2052 24.2448 23.1679 24.2341 23.1412 24.2074C23.0505 22.8208 23.0025 22.2181 23.0025 22.3994V21.7114C22.9759 21.6688 22.9439 21.6528 22.9065 21.6528C22.4639 22.1114 22.2399 22.8528 22.2399 23.8714C22.2399 24.4368 22.2932 24.7834 22.3945 24.9114C22.5012 24.8848 22.6185 24.8368 22.7465 24.7728C22.7999 24.7461 22.9492 24.7354 23.1999 24.7354C23.4505 24.7354 23.7492 24.8154 24.1012 24.9701C24.2345 24.9701 24.2985 24.6181 24.2985 23.9088ZM28.7412 21.1728C28.7412 20.6448 28.5439 20.1754 28.1545 19.7594C27.7599 19.3434 27.3119 19.1354 26.7999 19.1354C26.2505 19.1354 25.7332 19.3861 25.2585 19.8928C24.7785 20.3994 24.5385 20.9221 24.5385 21.4768C24.5385 21.9354 24.7625 22.1648 25.2052 22.1648H27.4665C28.3199 22.1541 28.7465 21.8234 28.7465 21.1781" fill="#130C0E"/>
</g>
<defs>
<filter id="filter0_d_510_181" x="0.5" y="0" width="32.5" height="34" filterUnits="userSpaceOnUse" color-interpolation-filters="sRGB">
<feFlood flood-opacity="0" result="BackgroundImageFix"/>
<feColorMatrix in="SourceAlpha" type="matrix" values="0 0 0 0 0 0 0 0 0 0 0 0 0 0 0 0 0 0 127 0" result="hardAlpha"/>
<feOffset dx="-0.5" dy="2"/>
<feColorMatrix type="matrix" values="0 0 0 0 0 0 0 0 0 0 0 0 0 0 0 0 0 0 1 0"/>
<feBlend mode="normal" in2="BackgroundImageFix" result="effect1_dropShadow_510_181"/>
<feBlend mode="normal" in="SourceGraphic" in2="effect1_dropShadow_510_181" result="shape"/>
</filter>
<clipPath id="clip0_510_181">
<rect width="32" height="32" fill="white" transform="translate(1)"/>
</clipPath>
</defs>
</svg>
