<svg width="33" height="34" viewBox="0 0 33 34" fill="none" xmlns="http://www.w3.org/2000/svg">
<g clip-path="url(#clip0_615_24)" filter="url(#filter0_d_615_24)">
<path d="M17 32C25.8366 32 33 24.8366 33 16C33 7.16344 25.8366 0 17 0C8.16344 0 1 7.16344 1 16C1 24.8366 8.16344 32 17 32Z" fill="#AAE0FA"/>
<path d="M28.314 4.6843C31.21 7.5803 33.002 11.5803 33.002 16.0016C33.002 24.839 25.8393 32.0016 17.002 32.0016C12.586 32.0016 8.586 30.2096 5.69 27.3136" fill="#F9AA8F"/>
<path d="M29.258 23.8203C28.7086 25.1323 27.6153 25.7883 25.9833 25.7883C25.6846 25.7883 25.3593 25.8256 25.0073 25.9003C24.4846 26.0123 24.2233 26.1669 24.2233 26.3696C24.2233 26.4336 24.266 26.5029 24.3566 26.5829C24.442 26.6629 24.5166 26.7056 24.5806 26.7056C24.266 26.7056 24.4793 26.7163 25.2153 26.7323C25.9513 26.7536 26.4153 26.7589 26.602 26.7589C25.514 27.3936 23.7006 27.6869 21.1513 27.6389C20.314 27.6283 19.5993 27.2603 18.9966 26.5349C18.41 25.8469 18.1166 25.0789 18.1166 24.2309C18.1166 23.3296 18.4206 22.5669 19.0233 21.9376C19.626 21.3083 20.3833 20.9936 21.2793 20.9936C21.4766 20.9936 21.7433 21.0363 22.074 21.1216C22.4046 21.2069 22.6286 21.2549 22.7406 21.2549C23.2046 21.2549 23.7753 21.0629 24.4633 20.6843C25.1513 20.3056 25.4766 20.1136 25.4393 20.1136C25.3166 21.4256 24.8793 22.3056 24.1273 22.7536C23.5886 23.0683 23.322 23.3723 23.322 23.6709C23.322 23.8576 23.434 24.0069 23.658 24.1189C23.834 24.2043 24.026 24.2469 24.2393 24.2469C24.5646 24.2469 24.8846 24.0496 25.194 23.6496C25.5033 23.2496 25.642 22.8869 25.6046 22.5616C25.5673 22.1883 25.594 21.7349 25.6793 21.2123C25.706 21.0629 25.7966 20.8763 25.9513 20.6576C26.106 20.4389 26.25 20.3056 26.3726 20.2523C26.3726 20.3643 26.33 20.5509 26.25 20.8123C26.17 21.0736 26.1273 21.2709 26.1273 21.3936C26.1273 21.6709 26.202 21.8789 26.3513 22.0283C26.5753 21.9429 26.7726 21.6603 26.9486 21.1856C27.098 20.8229 27.1833 20.4763 27.21 20.1403C26.6873 20.1136 26.1806 19.8789 25.7006 19.4256C25.2206 18.9776 24.9806 18.4923 24.9806 17.9643C24.9806 17.8789 24.9913 17.7883 25.018 17.7029C25.0926 17.8149 25.2046 17.9909 25.354 18.2256C25.5673 18.5403 25.7273 18.6949 25.8393 18.6949C25.9886 18.6949 26.0633 18.5403 26.0633 18.2256C26.0633 17.8256 25.9566 17.4629 25.7433 17.1376C25.5033 16.7483 25.1993 16.5563 24.826 16.5563C24.65 16.5563 24.3886 16.6523 24.042 16.8389C23.69 17.0256 23.3753 17.1216 23.0873 17.1216C23.002 17.1216 22.6126 17.0096 21.9246 16.7856C23.1353 16.5883 23.7433 16.4069 23.7433 16.2416C23.7433 15.8203 22.9113 15.5323 21.2526 15.3829C21.0926 15.3723 20.7886 15.3456 20.3513 15.3083C20.3993 15.2443 20.7566 15.1803 21.418 15.1003C21.978 15.0363 22.3726 15.0043 22.5966 15.0043C25.5673 15.0043 27.4553 16.4443 28.25 19.3296C28.3886 19.2176 28.458 19.0256 28.458 18.7589C28.458 18.4176 28.3566 17.9856 28.1593 17.4683C28.0846 17.2656 27.9673 16.9616 27.802 16.5563C28.826 17.8629 29.338 19.0949 29.338 20.2629C29.338 20.8763 29.194 21.4363 28.906 21.9376C28.7193 22.2789 28.3673 22.7109 27.8553 23.2389C27.3433 23.7669 26.9966 24.1723 26.8046 24.4603C27.4926 24.2736 27.9406 24.1296 28.154 24.0283C28.6286 23.8149 29.0606 23.4949 29.4446 23.0736C29.4446 23.2389 29.3753 23.4789 29.2366 23.8043L29.258 23.8203ZM21.0926 16.4603C21.0926 16.6843 20.97 16.8283 20.7193 16.8923L20.234 16.9669C20.058 17.0523 19.802 17.3989 19.466 17.9963C19.4286 17.8096 19.37 17.5483 19.2953 17.2123C19.1833 17.2229 18.9966 17.3243 18.7353 17.5109C18.6233 17.5963 18.442 17.7296 18.1913 17.9056C18.266 17.4576 18.5166 16.9989 18.9433 16.5403C19.3913 16.0283 19.8286 15.7723 20.2553 15.7723C20.8153 15.7723 21.098 16.0016 21.098 16.4656L21.0926 16.4603ZM24.3566 18.1883C24.3566 18.4016 24.2393 18.5776 24.01 18.7216C23.7806 18.8656 23.5513 18.9349 23.3273 18.9349C23.0286 18.9349 22.7566 18.7696 22.522 18.4283C22.234 18.0176 21.9406 17.7509 21.642 17.6229C21.706 17.5589 21.7806 17.5269 21.866 17.5269C21.978 17.5269 22.17 17.6123 22.4366 17.7883C22.7033 17.9643 22.8793 18.0496 22.954 18.0496C23.018 18.0496 23.1193 17.9643 23.2633 17.7883C23.4073 17.6123 23.5673 17.5269 23.7433 17.5269C24.154 17.5269 24.362 17.7456 24.362 18.1829" fill="#200000"/>
<path d="M14.1593 15.4096C13.2953 16.2843 12.2393 16.7216 10.9753 16.7216C9.56194 16.7216 8.43661 16.2363 7.60994 15.271C6.82594 14.3483 6.43127 13.1696 6.43127 11.7403C6.43127 10.2043 7.09794 8.44963 8.43661 6.48163C9.52994 4.86563 10.8099 3.4523 12.2873 2.2363C12.0739 3.22296 11.9673 3.92163 11.9673 4.33763C11.9673 5.2923 12.2659 6.2203 12.8686 7.12696C13.6046 8.2043 14.1699 9.0043 14.5539 9.52696C15.1513 10.4336 15.4553 11.319 15.4553 12.1776C15.4553 13.4576 15.0233 14.5296 14.1646 15.4096H14.1593ZM14.1433 10.487C13.9139 9.96963 13.6419 9.6283 13.3379 9.45763C13.3859 9.5483 13.4073 9.68163 13.4073 9.8523C13.4073 10.1776 13.3166 10.6363 13.1299 11.2336L12.8313 12.1563C12.8313 12.695 13.1033 12.9616 13.6366 12.9616C14.2073 12.9616 14.4899 12.583 14.4899 11.831C14.4899 11.447 14.3726 10.999 14.1433 10.4816" fill="#061922"/>
</g>
<defs>
<filter id="filter0_d_615_24" x="0.5" y="0" width="32.5" height="34" filterUnits="userSpaceOnUse" color-interpolation-filters="sRGB">
<feFlood flood-opacity="0" result="BackgroundImageFix"/>
<feColorMatrix in="SourceAlpha" type="matrix" values="0 0 0 0 0 0 0 0 0 0 0 0 0 0 0 0 0 0 127 0" result="hardAlpha"/>
<feOffset dx="-0.5" dy="2"/>
<feColorMatrix type="matrix" values="0 0 0 0 0 0 0 0 0 0 0 0 0 0 0 0 0 0 1 0"/>
<feBlend mode="normal" in2="BackgroundImageFix" result="effect1_dropShadow_615_24"/>
<feBlend mode="normal" in="SourceGraphic" in2="effect1_dropShadow_615_24" result="shape"/>
</filter>
<clipPath id="clip0_615_24">
<rect width="32" height="32" fill="white" transform="translate(1)"/>
</clipPath>
</defs>
</svg>
