<svg width="33" height="34" viewBox="0 0 33 34" fill="none" xmlns="http://www.w3.org/2000/svg">
<g clip-path="url(#clip0_510_187)" filter="url(#filter0_d_510_187)">
<path d="M17 32C25.8366 32 33 24.8366 33 16C33 7.16344 25.8366 0 17 0C8.16344 0 1 7.16344 1 16C1 24.8366 8.16344 32 17 32Z" fill="#9B8E8A"/>
<path d="M25.8211 15.9787C25.8372 14.2667 25.2985 12.544 24.2318 11.2C23.7198 10.6347 23.2931 9.98933 22.7491 9.45067C21.5491 8.256 19.7518 8.18133 18.3011 7.42933C18.2158 6.67733 17.9438 5.92 18.1091 5.15733C18.1625 4.90667 18.2372 4.64533 18.0985 4.40533C17.7198 3.53067 18.0451 2.58133 17.9758 1.66933C17.9278 1.19467 17.9598 0.613333 17.5065 0.32C17.3998 1.312 17.0372 2.23467 16.7385 3.17333C16.5998 3.904 16.5998 4.672 16.2852 5.36C16.4878 6.05867 16.0878 6.65067 15.6611 7.168C14.7118 7.65333 13.5811 7.77067 12.7545 8.48533C12.1678 8.98667 11.5278 9.424 10.8718 9.82933C10.3758 10.448 9.83182 11.0453 9.60782 11.824C8.72248 12.8907 8.62115 14.3253 8.11982 15.5733C8.10915 17.4293 8.48782 19.4293 9.67182 20.9173C10.5198 21.616 11.1118 22.56 11.9598 23.2587C12.7705 23.744 13.6398 24.144 14.4771 24.5813C15.0265 24.7093 15.5918 24.7733 16.1358 24.9227C16.5785 27.2 16.8771 29.5307 17.7678 31.6853C18.0611 30.8 18.0238 29.8507 18.2798 28.9547C18.6371 27.632 17.9012 26.256 18.3172 24.9547C18.9358 24.4 19.9705 24.7627 20.6585 24.2827C21.9705 23.4773 23.3518 22.688 24.3011 21.456C24.6532 20.7467 25.3998 20.2133 25.3998 19.3653C25.4051 18.2187 26.0772 17.1413 25.8211 15.984V15.9787ZM16.1038 23.0027C15.1545 22.7733 14.2691 22.32 13.4745 21.7653C12.6158 21.1947 12.3011 20.128 11.4531 19.5467C10.6638 18.6027 10.8345 17.312 10.5092 16.192C10.6372 15.4133 10.7918 14.64 10.8718 13.8507C11.2558 13.2267 11.8532 12.7253 12.0185 11.9733C12.5838 11.1627 13.4425 10.6027 14.1358 9.89867C14.6372 9.31733 15.4372 9.56267 16.0985 9.54133C16.0345 10.1813 15.9811 10.8427 16.1411 11.4773C16.2211 11.8667 16.3918 12.2453 16.3331 12.656C16.1998 13.52 16.5251 14.384 16.2958 15.2373C15.8318 17.024 16.3385 18.8267 16.3811 20.624C16.3172 21.4187 16.2798 22.224 16.0985 23.008L16.1038 23.0027ZM23.2931 19.6267C22.6638 20.0747 22.1305 20.624 21.5812 21.1573C20.6265 21.8187 19.6878 22.512 18.5518 22.8427C18.6532 22.032 18.7545 21.2 18.4985 20.4107C17.8638 18.6187 18.6425 16.7467 18.7705 14.9387C18.6532 13.8613 18.7652 12.7147 18.2745 11.7227C18.2105 10.976 18.5305 10.2613 18.7491 9.55733C19.5011 9.856 20.2051 10.2613 20.8291 10.7787C21.5811 11.344 22.7385 11.7067 22.9038 12.7627C22.9892 13.456 23.7465 13.872 23.7252 14.5813C23.6772 16.2613 23.9118 18.0213 23.2985 19.6267" fill="#231F20"/>
</g>
<defs>
<filter id="filter0_d_510_187" x="0.5" y="0" width="32.5" height="34" filterUnits="userSpaceOnUse" color-interpolation-filters="sRGB">
<feFlood flood-opacity="0" result="BackgroundImageFix"/>
<feColorMatrix in="SourceAlpha" type="matrix" values="0 0 0 0 0 0 0 0 0 0 0 0 0 0 0 0 0 0 127 0" result="hardAlpha"/>
<feOffset dx="-0.5" dy="2"/>
<feColorMatrix type="matrix" values="0 0 0 0 0 0 0 0 0 0 0 0 0 0 0 0 0 0 1 0"/>
<feBlend mode="normal" in2="BackgroundImageFix" result="effect1_dropShadow_510_187"/>
<feBlend mode="normal" in="SourceGraphic" in2="effect1_dropShadow_510_187" result="shape"/>
</filter>
<clipPath id="clip0_510_187">
<rect width="32" height="32" fill="white" transform="translate(1)"/>
</clipPath>
</defs>
</svg>
