<svg width="33" height="34" viewBox="0 0 33 34" fill="none" xmlns="http://www.w3.org/2000/svg">
<g clip-path="url(#clip0_510_182)" filter="url(#filter0_d_510_182)">
<path d="M17 32C25.8366 32 33 24.8366 33 16C33 7.16344 25.8366 0 17 0C8.16344 0 1 7.16344 1 16C1 24.8366 8.16344 32 17 32Z" fill="#80B092"/>
<path d="M25.8212 15.9786C25.8372 14.2666 25.2985 12.544 24.2318 11.2C23.7145 10.6346 23.2932 9.98931 22.7492 9.45064C21.5492 8.25598 19.7518 8.18131 18.3012 7.42931C18.2158 6.67731 17.9438 5.91998 18.1092 5.15731C18.1625 4.90664 18.2372 4.64531 18.0985 4.40531C17.7198 3.53064 18.0452 2.58131 17.9758 1.66931C17.9278 1.19464 17.9598 0.607977 17.5065 0.314644C17.3998 1.30664 17.0372 2.22931 16.7385 3.16798C16.5998 3.89864 16.5998 4.66664 16.2852 5.35464C16.4878 6.05331 16.0878 6.64531 15.6612 7.16264C14.7118 7.64798 13.5812 7.76531 12.7545 8.47998C12.1678 8.98131 11.5278 9.41864 10.8718 9.82398C10.3758 10.4426 9.83185 11.04 9.60785 11.8186C8.72251 12.8853 8.62118 14.32 8.11985 15.568C8.10918 17.424 8.48785 19.424 9.67185 20.912C10.5198 21.6106 11.1118 22.5546 11.9598 23.2533C12.7705 23.7386 13.6398 24.1386 14.4772 24.576C15.0265 24.704 15.5918 24.768 16.1358 24.9173C16.5785 27.1946 16.8772 29.5253 17.7625 31.68C18.0558 30.7946 18.0238 29.8453 18.2745 28.9493C18.6318 27.6266 17.8958 26.2506 18.3118 24.9493C18.9305 24.3946 19.9652 24.7573 20.6532 24.2773C21.9652 23.472 23.3465 22.6826 24.2958 21.4506C24.6478 20.7413 25.3945 20.208 25.3945 19.36C25.3998 18.2133 26.0665 17.136 25.8158 15.9786H25.8212ZM16.0985 22.9973C15.1492 22.768 14.2638 22.3146 13.4692 21.76C12.6105 21.1893 12.2958 20.1226 11.4478 19.5413C10.6585 18.5973 10.8292 17.3066 10.5038 16.1866C10.6318 15.408 10.7865 14.6346 10.8665 13.8453C11.2505 13.2213 11.8478 12.72 12.0132 11.968C12.5785 11.1573 13.4372 10.5973 14.1305 9.89331C14.6318 9.31198 15.4318 9.55731 16.0932 9.53598C16.0292 10.176 15.9758 10.8373 16.1358 11.472C16.2158 11.8613 16.3865 12.24 16.3278 12.6506C16.1945 13.5146 16.5198 14.3786 16.2905 15.232C15.8265 17.0186 16.3332 18.8213 16.3758 20.6186C16.3118 21.4133 16.2745 22.2186 16.0932 23.0026L16.0985 22.9973ZM23.2878 19.6213C22.6585 20.0693 22.1252 20.6186 21.5758 21.152C20.6212 21.8133 19.6825 22.5066 18.5465 22.8373C18.6478 22.0266 18.7492 21.1946 18.4932 20.4053C17.8585 18.6133 18.6372 16.7413 18.7652 14.9333C18.6478 13.856 18.7598 12.7093 18.2692 11.7173C18.2052 10.9706 18.5252 10.256 18.7438 9.55198C19.4958 9.85064 20.1998 10.256 20.8238 10.7733C21.5758 11.3386 22.7332 11.7013 22.8985 12.7573C22.9838 13.4506 23.7412 13.8666 23.7198 14.576C23.6718 16.256 23.9065 18.016 23.2932 19.6213" fill="#231F20"/>
</g>
<defs>
<filter id="filter0_d_510_182" x="0.5" y="0" width="32.5" height="34" filterUnits="userSpaceOnUse" color-interpolation-filters="sRGB">
<feFlood flood-opacity="0" result="BackgroundImageFix"/>
<feColorMatrix in="SourceAlpha" type="matrix" values="0 0 0 0 0 0 0 0 0 0 0 0 0 0 0 0 0 0 127 0" result="hardAlpha"/>
<feOffset dx="-0.5" dy="2"/>
<feColorMatrix type="matrix" values="0 0 0 0 0 0 0 0 0 0 0 0 0 0 0 0 0 0 1 0"/>
<feBlend mode="normal" in2="BackgroundImageFix" result="effect1_dropShadow_510_182"/>
<feBlend mode="normal" in="SourceGraphic" in2="effect1_dropShadow_510_182" result="shape"/>
</filter>
<clipPath id="clip0_510_182">
<rect width="32" height="32" fill="white" transform="translate(1)"/>
</clipPath>
</defs>
</svg>
