<svg width="33" height="34" viewBox="0 0 33 34" fill="none" xmlns="http://www.w3.org/2000/svg">
<g clip-path="url(#clip0_510_178)" filter="url(#filter0_d_510_178)">
<path d="M17 32C25.8366 32 33 24.8366 33 16C33 7.16344 25.8366 0 17 0C8.16344 0 1 7.16344 1 16C1 24.8366 8.16344 32 17 32Z" fill="#DE8166"/>
<path d="M25.8214 15.9786C25.8374 14.2666 25.2987 12.544 24.232 11.2C23.72 10.6346 23.2934 9.98931 22.7494 9.45064C21.5494 8.25598 19.752 8.18131 18.3014 7.42931C18.216 6.67731 17.944 5.91998 18.1094 5.15731C18.1627 4.90664 18.2374 4.64531 18.0987 4.40531C17.72 3.53064 18.0454 2.58131 17.976 1.66931C17.928 1.19464 17.96 0.607977 17.5067 0.314644C17.4 1.30664 17.0374 2.22931 16.7387 3.16798C16.6 3.89864 16.6 4.66664 16.2854 5.35464C16.488 6.05331 16.088 6.64531 15.6614 7.16264C14.712 7.64798 13.5814 7.76531 12.7547 8.47998C12.168 8.98131 11.528 9.41864 10.872 9.82398C10.376 10.4426 9.83203 11.04 9.60803 11.8186C8.7227 12.8853 8.62136 14.32 8.12003 15.568C8.10936 17.424 8.48803 19.424 9.67203 20.912C10.52 21.6106 11.112 22.5546 11.96 23.2533C12.7707 23.7386 13.64 24.1386 14.4774 24.576C15.0267 24.704 15.592 24.768 16.136 24.9173C16.5787 27.1946 16.8774 29.5253 17.768 31.68C18.0614 30.7946 18.024 29.8453 18.28 28.9493C18.6374 27.6266 17.9014 26.2506 18.3174 24.9493C18.936 24.3946 19.9707 24.7573 20.6587 24.2773C21.9707 23.472 23.352 22.6826 24.3014 21.4506C24.6534 20.7413 25.4 20.208 25.4 19.36C25.4054 18.2133 26.0774 17.136 25.8214 15.9786ZM16.104 22.9973C15.1547 22.768 14.2694 22.3146 13.4747 21.76C12.616 21.1893 12.3014 20.1226 11.4534 19.5413C10.664 18.5973 10.8347 17.3066 10.5094 16.1866C10.6374 15.408 10.792 14.6346 10.872 13.8453C11.256 13.2213 11.8534 12.72 12.0187 11.968C12.584 11.1573 13.4427 10.5973 14.136 9.89331C14.6374 9.31198 15.4374 9.55731 16.0987 9.53598C16.0347 10.176 15.9814 10.8373 16.1414 11.472C16.2214 11.8613 16.392 12.24 16.3334 12.6506C16.2 13.5146 16.5254 14.3786 16.296 15.232C15.832 17.0186 16.3387 18.8213 16.3814 20.6186C16.3174 21.4133 16.28 22.2186 16.0987 23.0026L16.104 22.9973ZM23.2934 19.6213C22.664 20.0693 22.1307 20.6186 21.5814 21.152C20.6267 21.8133 19.688 22.5066 18.552 22.8373C18.6534 22.0266 18.7547 21.1946 18.4987 20.4053C17.864 18.6133 18.6427 16.7413 18.7707 14.9333C18.6534 13.856 18.7654 12.7093 18.2747 11.7173C18.2107 10.9706 18.5307 10.256 18.7494 9.55198C19.5014 9.85064 20.2054 10.256 20.8294 10.7733C21.5814 11.3386 22.7387 11.7013 22.904 12.7573C22.9894 13.4506 23.7467 13.8666 23.7254 14.576C23.6774 16.256 23.912 18.016 23.2987 19.6213" fill="#231F20"/>
</g>
<defs>
<filter id="filter0_d_510_178" x="0.5" y="0" width="32.5" height="34" filterUnits="userSpaceOnUse" color-interpolation-filters="sRGB">
<feFlood flood-opacity="0" result="BackgroundImageFix"/>
<feColorMatrix in="SourceAlpha" type="matrix" values="0 0 0 0 0 0 0 0 0 0 0 0 0 0 0 0 0 0 127 0" result="hardAlpha"/>
<feOffset dx="-0.5" dy="2"/>
<feColorMatrix type="matrix" values="0 0 0 0 0 0 0 0 0 0 0 0 0 0 0 0 0 0 1 0"/>
<feBlend mode="normal" in2="BackgroundImageFix" result="effect1_dropShadow_510_178"/>
<feBlend mode="normal" in="SourceGraphic" in2="effect1_dropShadow_510_178" result="shape"/>
</filter>
<clipPath id="clip0_510_178">
<rect width="32" height="32" fill="white" transform="translate(1)"/>
</clipPath>
</defs>
</svg>
