<svg width="33" height="34" viewBox="0 0 33 34" fill="none" xmlns="http://www.w3.org/2000/svg">
<g clip-path="url(#clip0_510_175)" filter="url(#filter0_d_510_175)">
<path d="M17 32C25.8366 32 33 24.8366 33 16C33 7.16344 25.8366 0 17 0C8.16344 0 1 7.16344 1 16C1 24.8366 8.16344 32 17 32Z" fill="#E9E3B1"/>
<path d="M25.8211 15.9786C25.8372 14.2666 25.2985 12.544 24.2318 11.2C23.7198 10.6346 23.2931 9.98931 22.7491 9.45064C21.5491 8.25598 19.7518 8.18131 18.3011 7.42931C18.2158 6.67731 17.9438 5.91998 18.1091 5.15731C18.1625 4.90664 18.2372 4.64531 18.0985 4.40531C17.7198 3.53064 18.0451 2.58131 17.9758 1.66931C17.9278 1.19464 17.9598 0.607977 17.5065 0.314644C17.3998 1.30664 17.0372 2.22931 16.7385 3.16798C16.5998 3.89864 16.5998 4.66664 16.2852 5.35464C16.4878 6.05331 16.0878 6.64531 15.6611 7.16264C14.7118 7.64798 13.5811 7.76531 12.7545 8.47998C12.1678 8.98131 11.5278 9.41864 10.8718 9.82398C10.3758 10.4426 9.83182 11.04 9.60782 11.8186C8.72248 12.8853 8.62115 14.32 8.11982 15.568C8.10915 17.424 8.48782 19.424 9.67182 20.912C10.5198 21.6106 11.1118 22.5546 11.9598 23.2533C12.7705 23.7386 13.6398 24.1386 14.4771 24.576C15.0265 24.704 15.5918 24.768 16.1358 24.9173C16.5785 27.1946 16.8771 29.5253 17.7678 31.68C18.0611 30.7946 18.0238 29.8453 18.2798 28.9493C18.6371 27.6266 17.9012 26.2506 18.3172 24.9493C18.9358 24.3946 19.9705 24.7573 20.6585 24.2773C21.9705 23.472 23.3518 22.6826 24.3011 21.4506C24.6532 20.7413 25.3998 20.208 25.3998 19.36C25.4051 18.2133 26.0772 17.136 25.8211 15.9786ZM16.1038 22.9973C15.1545 22.768 14.2691 22.3146 13.4745 21.76C12.6158 21.1893 12.3011 20.1226 11.4531 19.5413C10.6638 18.5973 10.8345 17.3066 10.5092 16.1866C10.6372 15.408 10.7918 14.6346 10.8718 13.8453C11.2558 13.2213 11.8532 12.72 12.0185 11.968C12.5838 11.1573 13.4425 10.5973 14.1358 9.89331C14.6372 9.31198 15.4372 9.55731 16.0985 9.53598C16.0345 10.176 15.9811 10.8373 16.1411 11.472C16.2211 11.8613 16.3918 12.24 16.3331 12.6506C16.1998 13.5146 16.5251 14.3786 16.2958 15.232C15.8318 17.0186 16.3385 18.8213 16.3811 20.6186C16.3172 21.4133 16.2798 22.2186 16.0985 23.0026L16.1038 22.9973ZM23.2931 19.6213C22.6638 20.0693 22.1305 20.6186 21.5812 21.152C20.6265 21.8133 19.6878 22.5066 18.5518 22.8373C18.6532 22.0266 18.7545 21.1946 18.4985 20.4053C17.8638 18.6133 18.6425 16.7413 18.7705 14.9333C18.6532 13.856 18.7652 12.7093 18.2745 11.7173C18.2105 10.9706 18.5305 10.256 18.7491 9.55198C19.5011 9.85064 20.2051 10.256 20.8291 10.7733C21.5811 11.3386 22.7385 11.7013 22.9038 12.7573C22.9892 13.4506 23.7465 13.8666 23.7252 14.576C23.6772 16.256 23.9118 18.016 23.2985 19.6213" fill="#231F20"/>
</g>
<defs>
<filter id="filter0_d_510_175" x="0.5" y="0" width="32.5" height="34" filterUnits="userSpaceOnUse" color-interpolation-filters="sRGB">
<feFlood flood-opacity="0" result="BackgroundImageFix"/>
<feColorMatrix in="SourceAlpha" type="matrix" values="0 0 0 0 0 0 0 0 0 0 0 0 0 0 0 0 0 0 127 0" result="hardAlpha"/>
<feOffset dx="-0.5" dy="2"/>
<feColorMatrix type="matrix" values="0 0 0 0 0 0 0 0 0 0 0 0 0 0 0 0 0 0 1 0"/>
<feBlend mode="normal" in2="BackgroundImageFix" result="effect1_dropShadow_510_175"/>
<feBlend mode="normal" in="SourceGraphic" in2="effect1_dropShadow_510_175" result="shape"/>
</filter>
<clipPath id="clip0_510_175">
<rect width="32" height="32" fill="white" transform="translate(1)"/>
</clipPath>
</defs>
</svg>
