<svg width="33" height="34" viewBox="0 0 33 34" fill="none" xmlns="http://www.w3.org/2000/svg">
<g clip-path="url(#clip0_510_179)" filter="url(#filter0_d_510_179)">
<path d="M17 32C25.8366 32 33 24.8366 33 16C33 7.16344 25.8366 0 17 0C8.16344 0 1 7.16344 1 16C1 24.8366 8.16344 32 17 32Z" fill="#9BD3AE"/>
<path d="M28.3116 4.68431C31.2076 7.58031 32.9996 11.5803 32.9996 16.0016C32.9996 24.839 25.8369 32.0016 16.9996 32.0016C12.5836 32.0016 8.58356 30.2096 5.68756 27.3136" fill="#FFFBD5"/>
<path d="M29.1596 23.3937C28.3809 22.6683 27.8636 22.279 27.6076 22.215C27.4209 22.1723 27.2449 22.279 27.0742 22.535C26.9036 22.7963 26.6636 22.887 26.3489 22.8123C26.2209 22.7803 25.9756 22.6737 25.6022 22.487C25.3036 22.7697 25.1436 22.9563 25.1169 23.0523C25.0849 23.1803 25.1436 23.351 25.2929 23.5697C25.4422 23.7883 25.5809 23.911 25.7089 23.943C25.7889 23.9643 25.9062 23.9697 26.0556 23.9697C26.2049 23.9697 26.3062 23.975 26.3542 23.9857C26.4982 24.0177 26.5036 24.295 26.3809 24.8177C26.2636 25.3137 25.9649 26.0497 25.4849 27.0257C25.4636 25.7723 25.2876 25.111 24.9569 25.031C24.9089 25.0203 24.8076 25.031 24.6476 25.0683C24.4876 25.1003 24.3702 25.111 24.3009 25.095C23.9649 25.015 23.7409 24.6363 23.6182 23.959C23.0689 23.911 22.7382 24.119 22.6262 24.583C22.5729 24.8177 22.6316 25.0257 22.8129 25.2177C22.9942 25.4097 23.0742 25.5323 23.0636 25.591C22.9889 25.9057 22.4182 26.2737 21.3516 26.7003C20.7809 26.9297 20.3916 27.095 20.1729 27.1857C20.3862 27.015 20.6102 26.7857 20.8556 26.487C21.1329 26.151 21.2929 25.879 21.3462 25.6657C21.3729 25.5483 21.2769 25.3563 21.0636 25.0843C20.8449 24.8123 20.7649 24.5617 20.8236 24.3323C20.8716 24.135 20.9996 23.911 21.2076 23.655C21.1009 23.447 20.9409 23.3137 20.7329 23.2657C20.2689 23.1537 20.0022 23.2497 19.9329 23.5483C19.9809 23.3403 19.9436 23.495 19.8209 24.0177C19.7409 24.4017 19.4049 24.5243 18.8182 24.3803C18.3649 24.2737 17.6342 23.9857 16.6209 23.527C17.8956 23.5163 18.5782 23.3137 18.6742 22.919C18.6636 22.967 18.6742 22.823 18.7062 22.487C18.7436 22.119 19.0796 21.8577 19.6982 21.6977C19.7196 21.143 19.5062 20.807 19.0582 20.7003C18.9889 20.6843 18.8342 20.775 18.5889 20.9723C18.3436 21.1697 18.1409 21.2497 17.9809 21.2123C17.7036 21.1483 17.4156 20.759 17.1222 20.055C16.9835 19.703 16.7755 19.1857 16.4875 18.4923C16.7222 18.695 16.9516 18.8977 17.1862 19.1003C17.4956 19.3457 17.7516 19.495 17.9596 19.543C18.1196 19.5803 18.3116 19.479 18.5356 19.2337C18.7596 18.9883 18.9996 18.8977 19.2502 18.9563C19.2876 18.967 19.5009 19.0897 19.8956 19.3297C20.1942 19.047 20.3649 18.823 20.4022 18.663C20.4342 18.5243 20.3916 18.343 20.2636 18.1243C20.1409 17.9057 20.0076 17.7777 19.8689 17.7457C19.8102 17.7297 19.7196 17.7297 19.5862 17.735C19.4582 17.7403 19.3622 17.735 19.3036 17.7243C19.0956 17.6763 19.0529 17.3883 19.1756 16.871C19.2076 16.7323 19.5329 15.9697 20.1409 14.5937C20.0876 14.7643 20.0876 15.1057 20.1356 15.6177C20.1942 16.2417 20.3542 16.5883 20.6209 16.6523C20.6689 16.663 20.7702 16.6523 20.9249 16.615C21.0796 16.5777 21.1969 16.5723 21.2769 16.5883C21.5436 16.6523 21.7249 16.855 21.8262 17.1963L21.9756 17.7243C22.2156 17.783 22.4396 17.7457 22.6422 17.6123C22.8449 17.479 22.9782 17.287 23.0369 17.047C23.0956 16.791 23.0369 16.5723 22.8556 16.391C22.6742 16.2097 22.5889 16.0817 22.6102 16.0123C22.6689 15.7723 23.1489 15.4523 24.0502 15.0577C24.7756 14.743 25.2396 14.567 25.4422 14.5297C24.7862 15.0843 24.4182 15.511 24.3436 15.8257C24.3062 15.9857 24.3596 16.183 24.5142 16.4177C24.7062 16.695 24.8076 16.887 24.8182 16.983C24.8716 17.2763 24.7702 17.639 24.5249 18.0657C24.7862 18.359 24.9942 18.5243 25.1596 18.567C25.4956 18.647 25.7036 18.5137 25.7836 18.167C25.7942 18.1297 25.8049 18.0177 25.8209 17.8257C25.8369 17.6337 25.8529 17.527 25.8689 17.5057C25.9542 17.3563 26.2902 17.351 26.8822 17.4897C27.2502 17.5803 27.9969 17.8683 29.1116 18.3537C28.8396 18.3643 28.4342 18.375 27.8902 18.391C27.3942 18.4177 27.1276 18.519 27.0849 18.695C27.0636 18.775 27.0636 18.919 27.0742 19.1323C27.0849 19.3403 27.0796 19.495 27.0582 19.5857C27.0209 19.7457 26.8769 19.8737 26.6369 19.9643L25.9489 20.2417C26.0289 20.5297 26.0822 20.7003 26.1196 20.759C26.2049 20.9243 26.3436 21.031 26.5356 21.079C26.6742 21.111 26.8289 21.0203 27.0049 20.807C27.1809 20.5937 27.3942 20.5137 27.6449 20.5777C27.9596 20.6523 28.2422 21.0257 28.4929 21.6977C28.6369 22.0763 28.8609 22.647 29.1649 23.415L29.1596 23.3937ZM25.5596 21.4897C25.7356 20.7483 25.6182 20.0443 25.2076 19.3723C24.7916 18.7003 24.2156 18.2737 23.4796 18.0977C22.7276 17.9163 22.0182 18.0337 21.3462 18.439C20.6742 18.8443 20.2422 19.4257 20.0502 20.1723C19.8636 20.9083 19.9809 21.6123 20.4129 22.2843C20.8449 22.9563 21.4316 23.383 22.1729 23.559C22.9569 23.7457 23.6769 23.6443 24.3276 23.2603C24.9782 22.871 25.3889 22.2843 25.5649 21.495L25.5596 21.4897ZM25.3036 21.431C25.1329 22.135 24.7596 22.663 24.1729 23.0097C23.5862 23.3563 22.9409 23.447 22.2369 23.2817C21.5542 23.1163 21.0262 22.743 20.6582 22.151C20.2849 21.5643 20.1836 20.9243 20.3436 20.2417C20.5036 19.5697 20.8876 19.0523 21.4956 18.695C22.1036 18.3323 22.7382 18.231 23.4102 18.391C24.0822 18.551 24.6049 18.9297 24.9782 19.5377C25.3516 20.1403 25.4636 20.775 25.3036 21.431Z" fill="#211D15"/>
<path d="M17.5275 10.983C17.5275 11.223 17.4315 11.4416 17.2448 11.639C17.0582 11.831 16.8448 11.927 16.5995 11.927C16.2155 11.927 15.9275 11.7456 15.7462 11.383L14.8928 11.3456C14.7115 11.3456 14.3542 11.4256 13.8208 11.5803C13.2502 11.735 12.9248 11.863 12.8395 11.959C12.7062 12.103 12.5995 12.4443 12.5142 12.9776C12.4395 13.415 12.4075 13.735 12.4075 13.943C12.4075 14.2683 12.4608 14.5083 12.5622 14.6576C12.6635 14.807 12.8768 14.935 13.1968 15.0363C13.5168 15.1376 13.7142 15.1963 13.7888 15.207C13.8368 15.207 13.9168 15.2016 14.0235 15.191H14.2422C14.3968 15.191 14.5622 15.2176 14.7328 15.2656C14.9728 15.3403 15.0795 15.4363 15.0422 15.5536C14.8715 15.527 14.5782 15.5643 14.1515 15.6603L14.6582 15.9163C14.6582 16.0603 14.4502 16.135 14.0395 16.135C13.9275 16.135 13.7835 16.1083 13.5968 16.0603C13.4102 16.0123 13.2875 15.9856 13.2235 15.9856H12.9888C12.9782 16.1083 12.9408 16.2896 12.8822 16.5296C12.6742 16.519 12.4342 16.3963 12.1568 16.167C11.8795 15.9376 11.7035 15.8203 11.6288 15.8203C11.5542 15.8203 11.4528 15.9376 11.3195 16.167C11.1862 16.3963 11.1222 16.5563 11.1222 16.6416C10.9675 16.5563 10.8342 16.4016 10.7222 16.167C10.6742 16.0123 10.6208 15.8523 10.5568 15.6976C10.4342 15.7083 10.2102 15.9643 9.88485 16.4603H9.79418C9.76751 16.423 9.67685 16.1723 9.52218 15.6976C9.14885 15.575 8.79685 15.5163 8.47152 15.5163C8.31685 15.5163 8.07152 15.5536 7.74618 15.623L7.23952 15.5856C7.31418 15.511 7.52218 15.3723 7.87418 15.1696C8.28485 14.9296 8.59952 14.807 8.81818 14.807C8.85552 14.807 8.90352 14.8123 8.96218 14.823C9.02085 14.8336 9.06885 14.839 9.10618 14.839C9.19151 14.839 9.32485 14.791 9.51685 14.7003C9.70352 14.6096 9.81552 14.5296 9.84218 14.455C9.87418 14.3803 9.89018 14.1936 9.89018 13.8896C9.89018 13.2016 9.70885 12.6843 9.34618 12.3483C9.03152 12.0443 8.51418 11.831 7.78351 11.6976C7.59151 12.3856 7.04752 12.7323 6.15152 12.7323C5.85818 12.7323 5.57018 12.5563 5.28218 12.2043C4.99418 11.8523 4.84485 11.5323 4.84485 11.2443C4.84485 10.7963 5.03152 10.4283 5.40485 10.135C5.10085 9.82031 4.95152 9.50031 4.95152 9.17498C4.95152 8.87098 5.04751 8.60431 5.23418 8.37498C5.42085 8.14564 5.66618 8.01231 5.97018 7.97498C5.94885 7.58564 6.07152 7.31898 6.34885 7.17498C6.21552 7.04164 6.15152 6.80698 6.15152 6.46564C6.15152 6.06564 6.28485 5.73498 6.55152 5.46831C6.81818 5.20164 7.14885 5.06831 7.54885 5.06831C7.98618 5.06831 8.34351 5.22298 8.62085 5.52164C8.97285 4.32164 9.73018 3.72431 10.8875 3.72431C11.4902 3.72431 12.0235 3.96431 12.4822 4.44965C12.6528 4.63098 12.7382 4.72698 12.7382 4.73765C12.5942 4.73765 12.6688 4.71098 12.9568 4.65765C13.2502 4.60431 13.4582 4.57765 13.5915 4.57765C14.0608 4.57765 14.4822 4.75364 14.8448 5.10564C15.1595 5.42031 15.3782 5.82031 15.5008 6.30564C15.5862 6.31631 15.7195 6.35364 15.9008 6.41231C16.1675 6.54564 16.3008 6.77498 16.3008 7.10031C16.3008 7.15898 16.2528 7.27631 16.1568 7.44698C16.9302 7.88431 17.3195 8.48698 17.3195 9.26031C17.3195 9.47898 17.2342 9.78298 17.0635 10.167C17.3782 10.3483 17.5382 10.615 17.5382 10.967L17.5275 10.983ZM10.0608 11.767V11.5323C10.0608 11.255 9.92752 10.999 9.65018 10.7696C9.37818 10.5403 9.10085 10.423 8.82351 10.423C8.48218 10.423 8.16752 10.503 7.87951 10.6576C8.51952 10.6203 9.24485 10.9883 10.0555 11.767H10.0608ZM9.73018 9.51631C9.54885 9.30831 9.39418 9.10031 9.26085 8.88164C8.75418 9.01498 8.49818 9.16431 8.49818 9.33498C8.64218 9.32431 8.85552 9.35098 9.13285 9.41498C9.41018 9.47898 9.61285 9.51631 9.73018 9.51631ZM10.8395 8.95631V8.15631C10.5462 8.10831 10.3702 8.08165 10.3115 8.08165V8.35365L10.8395 8.95098V8.95631ZM13.1968 8.44431C13.0422 8.39631 12.7702 8.27898 12.3702 8.09764V9.66031C12.9408 9.33498 13.2128 8.93498 13.1862 8.46031L13.1968 8.44431ZM14.1835 10.6043L13.7835 10.1136C13.5435 10.2843 13.2982 10.455 13.0475 10.631C12.8022 10.807 12.5835 11.0043 12.4022 11.223C12.9462 10.935 13.5382 10.727 14.1782 10.6043" fill="#00160B"/>
</g>
<defs>
<filter id="filter0_d_510_179" x="0.5" y="0" width="32.5" height="34" filterUnits="userSpaceOnUse" color-interpolation-filters="sRGB">
<feFlood flood-opacity="0" result="BackgroundImageFix"/>
<feColorMatrix in="SourceAlpha" type="matrix" values="0 0 0 0 0 0 0 0 0 0 0 0 0 0 0 0 0 0 127 0" result="hardAlpha"/>
<feOffset dx="-0.5" dy="2"/>
<feColorMatrix type="matrix" values="0 0 0 0 0 0 0 0 0 0 0 0 0 0 0 0 0 0 1 0"/>
<feBlend mode="normal" in2="BackgroundImageFix" result="effect1_dropShadow_510_179"/>
<feBlend mode="normal" in="SourceGraphic" in2="effect1_dropShadow_510_179" result="shape"/>
</filter>
<clipPath id="clip0_510_179">
<rect width="32" height="32" fill="white" transform="translate(1)"/>
</clipPath>
</defs>
</svg>
