<svg width="33" height="34" viewBox="0 0 33 34" fill="none" xmlns="http://www.w3.org/2000/svg">
<g clip-path="url(#clip0_510_177)" filter="url(#filter0_d_510_177)">
<path d="M17 32C25.8366 32 33 24.8366 33 16C33 7.16344 25.8366 0 17 0C8.16344 0 1 7.16344 1 16C1 24.8366 8.16344 32 17 32Z" fill="#F9AA8F"/>
<path d="M28.311 4.68483C31.207 7.58083 32.999 11.5808 32.999 16.0022C32.999 24.8395 25.8363 32.0022 16.999 32.0022C12.583 32.0022 8.58301 30.2102 5.68701 27.3142" fill="#F8F6D8"/>
<path d="M29.159 23.3942C28.3804 22.6688 27.863 22.2795 27.607 22.2155C27.4204 22.1728 27.2444 22.2795 27.0737 22.5355C26.903 22.7915 26.663 22.8875 26.3484 22.8075C26.2204 22.7755 25.975 22.6688 25.6017 22.4822C25.303 22.7648 25.143 22.9515 25.1164 23.0422C25.0844 23.1702 25.143 23.3408 25.2924 23.5595C25.4417 23.7782 25.5804 23.9008 25.7084 23.9328C25.7884 23.9542 25.9057 23.9595 26.055 23.9595C26.2044 23.9595 26.3057 23.9648 26.3537 23.9755C26.4977 24.0075 26.503 24.2848 26.3804 24.8075C26.263 25.3035 25.9644 26.0395 25.4844 27.0155C25.463 25.7622 25.287 25.1008 24.9564 25.0208C24.9084 25.0102 24.807 25.0208 24.647 25.0582C24.487 25.0902 24.3697 25.1008 24.3004 25.0848C23.9643 25.0048 23.7403 24.6262 23.6177 23.9488C23.0683 23.9008 22.7377 24.1088 22.6257 24.5728C22.5723 24.8075 22.631 25.0155 22.8123 25.2075C22.9937 25.3995 23.0737 25.5222 23.063 25.5808C22.9883 25.8955 22.4177 26.2635 21.351 26.6902C20.7803 26.9195 20.391 27.0848 20.1723 27.1755C20.3857 27.0048 20.6097 26.7755 20.855 26.4768C21.1323 26.1408 21.2923 25.8688 21.3457 25.6555C21.3723 25.5382 21.2763 25.3462 21.063 25.0742C20.8443 24.8022 20.7643 24.5515 20.823 24.3222C20.871 24.1248 20.999 23.9008 21.207 23.6448C21.1003 23.4368 20.9403 23.3035 20.7323 23.2555C20.2683 23.1435 20.0017 23.2395 19.9323 23.5382C19.9803 23.3302 19.943 23.4848 19.8203 24.0075C19.7403 24.3915 19.4043 24.5142 18.8177 24.3702C18.3643 24.2635 17.6337 23.9755 16.6203 23.5168C17.895 23.5062 18.5777 23.3035 18.6737 22.9088C18.663 22.9568 18.6737 22.8128 18.7057 22.4768C18.743 22.1088 19.079 21.8422 19.6977 21.6875C19.719 21.1328 19.5057 20.7968 19.0577 20.6902C18.9883 20.6742 18.8337 20.7648 18.5883 20.9622C18.343 21.1595 18.1403 21.2395 17.9803 21.2022C17.703 21.1382 17.415 20.7488 17.1217 20.0448C16.983 19.6928 16.775 19.1755 16.487 18.4822C16.7217 18.6848 16.951 18.8875 17.1857 19.0902C17.495 19.3355 17.751 19.4848 17.959 19.5328C18.119 19.5702 18.311 19.4688 18.535 19.2235C18.759 18.9782 18.999 18.8875 19.2497 18.9462C19.287 18.9568 19.5003 19.0795 19.895 19.3195C20.1937 19.0368 20.3643 18.8128 20.4017 18.6528C20.4337 18.5142 20.391 18.3328 20.263 18.1142C20.1403 17.8955 20.007 17.7675 19.8683 17.7355C19.8097 17.7195 19.719 17.7195 19.5857 17.7248C19.4577 17.7302 19.3617 17.7248 19.303 17.7142C19.095 17.6662 19.0523 17.3782 19.175 16.8608C19.207 16.7222 19.5323 15.9595 20.1403 14.5835C20.087 14.7542 20.087 15.0955 20.135 15.6075C20.1937 16.2315 20.3537 16.5782 20.6203 16.6422C20.6683 16.6528 20.7697 16.6422 20.9243 16.6048C21.079 16.5675 21.1963 16.5622 21.2763 16.5782C21.543 16.6422 21.7243 16.8448 21.8257 17.1862L21.975 17.7142C22.215 17.7728 22.439 17.7355 22.6417 17.6022C22.8443 17.4688 22.9777 17.2768 23.0363 17.0368C23.095 16.7808 23.0363 16.5622 22.855 16.3808C22.6737 16.1942 22.5883 16.0715 22.6097 16.0022C22.6683 15.7622 23.1483 15.4422 24.0497 15.0475C24.775 14.7328 25.239 14.5568 25.4417 14.5195C24.7857 15.0742 24.4177 15.5008 24.343 15.8155C24.3057 15.9755 24.359 16.1728 24.5137 16.4075C24.7057 16.6848 24.807 16.8768 24.8177 16.9728C24.871 17.2662 24.7697 17.6288 24.5244 18.0555C24.7857 18.3488 24.9937 18.5142 25.159 18.5568C25.495 18.6368 25.703 18.5035 25.783 18.1568C25.7937 18.1195 25.8044 18.0075 25.8204 17.8155C25.8364 17.6235 25.8524 17.5168 25.8684 17.4955C25.9537 17.3462 26.2897 17.3408 26.8817 17.4795C27.2497 17.5702 27.9964 17.8582 29.111 18.3435C28.839 18.3542 28.4337 18.3648 27.8897 18.3808C27.3937 18.4075 27.127 18.5088 27.0844 18.6848C27.063 18.7648 27.063 18.9088 27.0737 19.1222C27.0844 19.3302 27.079 19.4848 27.0577 19.5755C27.0204 19.7355 26.8764 19.8635 26.6364 19.9542L25.9484 20.2315C26.0284 20.5195 26.0817 20.6902 26.119 20.7488C26.2044 20.9142 26.343 21.0208 26.535 21.0688C26.6737 21.1008 26.8284 21.0102 27.0044 20.7968C27.1804 20.5835 27.3937 20.5035 27.6444 20.5675C27.959 20.6422 28.2417 21.0155 28.4924 21.6875C28.6364 22.0662 28.8604 22.6368 29.1644 23.4048L29.159 23.3942ZM25.559 21.4795C25.735 20.7382 25.6177 20.0342 25.207 19.3622C24.791 18.6902 24.215 18.2635 23.479 18.0875C22.727 17.9062 22.0177 18.0235 21.3457 18.4288C20.6737 18.8342 20.2417 19.4155 20.0497 20.1622C19.863 20.8982 19.9803 21.6022 20.4123 22.2742C20.8443 22.9462 21.431 23.3728 22.1723 23.5488C22.9563 23.7355 23.6763 23.6342 24.327 23.2502C24.9777 22.8608 25.3884 22.2742 25.5644 21.4848L25.559 21.4795ZM25.303 21.4208C25.1324 22.1248 24.759 22.6528 24.1724 22.9995C23.5857 23.3462 22.9403 23.4368 22.2363 23.2715C21.5537 23.1062 21.0257 22.7328 20.6577 22.1408C20.2843 21.5488 20.183 20.9142 20.343 20.2315C20.503 19.5595 20.887 19.0422 21.495 18.6848C22.103 18.3222 22.7377 18.2208 23.4097 18.3808C24.0817 18.5408 24.6044 18.9248 24.9777 19.5275C25.351 20.1302 25.463 20.7648 25.303 21.4208Z" fill="#211D15"/>
<path d="M17.6177 12.1835C17.0683 13.4955 15.975 14.1515 14.343 14.1515C14.0443 14.1515 13.719 14.1888 13.367 14.2635C12.8443 14.3755 12.583 14.5355 12.583 14.7328C12.583 14.7968 12.6257 14.8661 12.7163 14.9461C12.8017 15.0261 12.8763 15.0688 12.9403 15.0688C12.6257 15.0688 12.839 15.0795 13.575 15.0955C14.311 15.1168 14.775 15.1221 14.9617 15.1221C13.8737 15.7568 12.0603 16.0501 9.51098 16.0021C8.67365 15.9915 7.95899 15.6235 7.35632 14.8981C6.76965 14.2101 6.47632 13.4421 6.47632 12.5941C6.47632 11.6928 6.78032 10.9301 7.38299 10.3008C7.98565 9.67146 8.74299 9.35679 9.63899 9.35679C9.83632 9.35679 10.103 9.39946 10.4337 9.4848C10.7643 9.57013 10.9883 9.61813 11.1003 9.61813C11.5643 9.61813 12.135 9.42613 12.823 9.04746C13.511 8.66879 13.8363 8.47679 13.799 8.47679C13.6763 9.7888 13.239 10.6688 12.487 11.1168C11.9483 11.4315 11.6817 11.7355 11.6817 12.0341C11.6817 12.2208 11.7937 12.3701 12.0177 12.4821C12.1937 12.5675 12.3857 12.6101 12.599 12.6101C12.9243 12.6101 13.2443 12.4128 13.5537 12.0128C13.863 11.6128 14.0017 11.2501 13.9643 10.9248C13.927 10.5515 13.9537 10.0981 14.039 9.57546C14.0657 9.42613 14.1563 9.23946 14.311 9.02079C14.4657 8.80213 14.6097 8.66879 14.7323 8.61546C14.7323 8.72746 14.6897 8.91413 14.6097 9.17546C14.5297 9.43679 14.487 9.63413 14.487 9.75679C14.487 10.0341 14.5617 10.2421 14.711 10.3915C14.935 10.3061 15.1377 10.0235 15.3083 9.54879C15.4577 9.18613 15.543 8.83946 15.5697 8.49813C15.047 8.47679 14.5403 8.23679 14.0603 7.78879C13.5803 7.34079 13.3403 6.85013 13.3403 6.32746C13.3403 6.24212 13.351 6.15146 13.3777 6.06612C13.4523 6.17812 13.5643 6.35412 13.7137 6.58879C13.927 6.89812 14.087 7.05813 14.199 7.05813C14.3483 7.05813 14.423 6.90346 14.423 6.58879C14.423 6.18879 14.3163 5.82612 14.103 5.50079C13.863 5.11146 13.559 4.91946 13.1857 4.91946C13.0097 4.91946 12.7483 5.01546 12.4017 5.20212C12.0497 5.38879 11.735 5.48479 11.447 5.48479C11.3617 5.48479 10.9723 5.37279 10.2843 5.14879C11.495 4.95146 12.103 4.77012 12.103 4.60479C12.103 4.17812 11.271 3.89546 9.61232 3.74612C9.45232 3.73546 9.14832 3.70879 8.71632 3.67145C8.76432 3.60745 9.12165 3.54345 9.78299 3.46345C10.343 3.39945 10.7377 3.36745 10.9617 3.36745C13.9323 3.36745 15.8203 4.81279 16.615 7.69279C16.7537 7.58079 16.823 7.38879 16.823 7.12213C16.823 6.78079 16.7217 6.34879 16.5243 5.83146C16.4497 5.62879 16.3323 5.32479 16.167 4.91946C17.191 6.22612 17.703 7.45813 17.703 8.62613C17.703 9.23946 17.559 9.79946 17.271 10.3008C17.0843 10.6421 16.7323 11.0741 16.2203 11.6021C15.7083 12.1301 15.3617 12.5355 15.1697 12.8235C15.8577 12.6368 16.3057 12.4928 16.519 12.3915C16.9937 12.1781 17.4257 11.8581 17.8097 11.4368C17.8097 11.6021 17.7403 11.8421 17.6017 12.1675L17.6177 12.1835ZM9.43632 4.80746C9.43632 5.03146 9.31365 5.17546 9.06299 5.23946L8.57765 5.31412C8.40165 5.39946 8.14565 5.74612 7.80965 6.34346C7.77232 6.15679 7.71365 5.89546 7.63899 5.55946C7.52699 5.57012 7.34032 5.67146 7.07899 5.85812C6.96699 5.94346 6.78565 6.07679 6.53499 6.25279C6.60965 5.80479 6.86032 5.34612 7.28699 4.88746C7.73499 4.37546 8.17232 4.11946 8.59899 4.11946C9.15899 4.11946 9.44165 4.34879 9.44165 4.81279L9.43632 4.80746ZM12.7003 6.53546C12.7003 6.74879 12.583 6.92479 12.3537 7.06879C12.1243 7.21279 11.895 7.28213 11.671 7.28213C11.3723 7.28213 11.1003 7.11679 10.8657 6.77546C10.5777 6.36479 10.2843 6.09812 9.98565 5.97012C10.0497 5.90612 10.1243 5.87412 10.2097 5.87412C10.3217 5.87412 10.5137 5.95946 10.7803 6.13546C11.047 6.31146 11.2177 6.39679 11.2977 6.39679C11.3617 6.39679 11.463 6.31146 11.607 6.13546C11.751 5.95946 11.911 5.87412 12.087 5.87412C12.4977 5.87412 12.7057 6.09279 12.7057 6.53012" fill="#200000"/>
</g>
<defs>
<filter id="filter0_d_510_177" x="0.5" y="0" width="32.5" height="34" filterUnits="userSpaceOnUse" color-interpolation-filters="sRGB">
<feFlood flood-opacity="0" result="BackgroundImageFix"/>
<feColorMatrix in="SourceAlpha" type="matrix" values="0 0 0 0 0 0 0 0 0 0 0 0 0 0 0 0 0 0 127 0" result="hardAlpha"/>
<feOffset dx="-0.5" dy="2"/>
<feColorMatrix type="matrix" values="0 0 0 0 0 0 0 0 0 0 0 0 0 0 0 0 0 0 1 0"/>
<feBlend mode="normal" in2="BackgroundImageFix" result="effect1_dropShadow_510_177"/>
<feBlend mode="normal" in="SourceGraphic" in2="effect1_dropShadow_510_177" result="shape"/>
</filter>
<clipPath id="clip0_510_177">
<rect width="32" height="32" fill="white" transform="translate(1)"/>
</clipPath>
</defs>
</svg>
