<svg width="33" height="34" viewBox="0 0 33 34" fill="none" xmlns="http://www.w3.org/2000/svg">
<g clip-path="url(#clip0_510_176)" filter="url(#filter0_d_510_176)">
<path d="M17 32C25.8366 32 33 24.8366 33 16C33 7.16344 25.8366 0 17 0C8.16344 0 1 7.16344 1 16C1 24.8366 8.16344 32 17 32Z" fill="#FFFBD5"/>
<path d="M28.311 4.68368C31.207 7.57968 32.999 11.5797 32.999 16.001C32.999 24.8383 25.8363 32.001 16.999 32.001C12.583 32.001 8.58301 30.209 5.68701 27.313" fill="#CBC2BF"/>
<path d="M29.6761 21.1157C29.6761 21.9797 29.3615 22.5717 28.7321 22.8863C28.5508 22.977 27.9748 23.105 27.0041 23.2597C26.3748 23.3663 26.0601 23.6063 26.0601 23.985V25.5743C26.0601 25.6437 26.0815 25.8463 26.1188 26.1823L26.1775 26.8116C26.1775 27.009 26.1295 27.329 26.0388 27.777C25.7881 27.8303 25.5001 27.889 25.1748 27.953C25.0681 27.5583 25.0201 27.2916 25.0201 27.1476C25.0201 27.0836 25.0361 26.9823 25.0681 26.8543C25.1001 26.7263 25.1161 26.625 25.1161 26.561C25.1161 26.4703 25.0361 26.2143 24.8708 25.793H24.5668C24.5241 25.857 24.5135 25.9423 24.5241 26.049C24.5775 26.273 24.5988 26.4597 24.5828 26.6196C24.3588 26.7743 24.0548 26.9876 23.6601 27.249C23.5695 27.2223 23.5375 27.2116 23.5641 27.2116V25.8197C23.5375 25.7557 23.4735 25.729 23.3668 25.7397H23.1321L22.8975 27.585C22.7161 27.5956 22.4921 27.5956 22.2308 27.585C22.1401 27.153 21.9748 26.513 21.7401 25.6597H21.5801C21.4361 26.1183 21.3561 26.369 21.3455 26.4063C21.3455 26.4597 21.3615 26.561 21.3935 26.7103C21.4255 26.8596 21.4415 26.961 21.4415 27.0143C21.4415 27.0516 21.4255 27.153 21.4041 27.3076L21.3455 27.7823C21.3188 27.809 21.2868 27.8196 21.2495 27.8196C20.8548 27.8196 20.5935 27.7236 20.4655 27.5263C20.3321 27.329 20.2788 27.057 20.3055 26.6996L20.4655 24.3423C20.4655 24.305 20.4761 24.2517 20.5028 24.1823C20.5295 24.1183 20.5401 24.0703 20.5401 24.0437C20.5401 23.937 20.4281 23.729 20.2041 23.4143C20.1668 23.4037 19.9641 23.3557 19.5961 23.2757C19.3721 23.2223 18.9348 23.1317 18.2788 23.0037C17.3775 22.833 16.9241 22.1077 16.9241 20.8223C16.9241 18.9077 17.7081 17.3183 19.2815 16.049C19.3455 16.401 19.4575 16.8757 19.6175 17.4623C19.7348 17.489 19.9908 17.5477 20.3855 17.6383C20.4655 17.665 20.8655 17.809 21.5855 18.0703C21.2175 17.8463 20.7428 17.489 20.1508 16.993C19.9268 16.7317 19.8148 16.2943 19.8148 15.6757C19.8148 15.5317 20.0655 15.361 20.5615 15.1637C21.0041 14.9823 21.3401 14.8757 21.5641 14.849C22.2735 14.7583 22.8121 14.7103 23.1961 14.7103C24.8335 14.7103 26.1561 15.1317 27.1641 15.969C26.8388 16.3477 26.2735 16.753 25.4735 17.185C25.7881 17.1957 26.2468 17.073 26.8495 16.8117C27.4521 16.5503 27.7081 16.417 27.6175 16.417C27.7241 16.417 27.9321 16.625 28.2468 17.0463C28.4815 17.361 28.6735 17.6437 28.8175 17.889C29.2388 18.6357 29.5161 19.441 29.6601 20.305C29.6601 20.609 29.6655 20.8223 29.6815 20.9557V21.1103L29.6761 21.1157ZM22.1508 21.4677C22.1508 20.9023 21.9055 20.369 21.4148 19.8677C20.9241 19.361 20.3961 19.1103 19.8308 19.1103C19.3348 19.1103 18.8975 19.3237 18.5135 19.745C18.1348 20.1663 17.9428 20.6357 17.9428 21.1477C17.9428 21.5957 18.1615 21.889 18.5935 22.017C18.8708 22.097 19.2548 22.145 19.7508 22.1557H20.8335C21.7135 22.1663 22.1508 21.937 22.1508 21.4677ZM24.2948 23.905V23.297C24.2041 23.1263 24.1135 22.9503 24.0228 22.7637C23.9428 22.5023 23.7988 22.1343 23.5908 21.665L23.3721 23.9637C23.3721 24.1503 23.3348 24.241 23.2548 24.241C23.2015 24.241 23.1641 24.2303 23.1375 24.2037C23.0468 22.817 22.9988 22.2143 22.9988 22.3957V21.7077C22.9721 21.665 22.9401 21.649 22.9028 21.649C22.4601 22.1077 22.2361 22.849 22.2361 23.8677C22.2361 24.433 22.2895 24.7797 22.3908 24.9077C22.4975 24.881 22.6148 24.833 22.7428 24.769C22.7961 24.7423 22.9455 24.7317 23.1961 24.7317C23.4468 24.7317 23.7455 24.8117 24.0975 24.9663C24.2308 24.9663 24.2948 24.6143 24.2948 23.905ZM28.7375 21.169C28.7375 20.641 28.5401 20.1717 28.1508 19.7557C27.7561 19.3397 27.3081 19.1317 26.7961 19.1317C26.2468 19.1317 25.7295 19.3823 25.2548 19.889C24.7748 20.3957 24.5348 20.9183 24.5348 21.473C24.5348 21.9317 24.7588 22.161 25.2015 22.161H27.4628C28.3161 22.1503 28.7428 21.8197 28.7428 21.1743" fill="#130C0E"/>
<path d="M18.4924 12.2463C17.7137 11.521 17.1964 11.1263 16.9404 11.0677C16.7537 11.025 16.5777 11.1317 16.407 11.3877C16.2364 11.6437 15.991 11.7397 15.6817 11.6597C15.5537 11.6277 15.3084 11.521 14.935 11.3343C14.6364 11.617 14.4764 11.8037 14.4497 11.8943C14.4177 12.0223 14.4764 12.193 14.6257 12.4117C14.775 12.6303 14.9137 12.753 15.0417 12.785C15.1217 12.8063 15.239 12.817 15.3884 12.8117C15.5377 12.8117 15.639 12.817 15.687 12.8277C15.831 12.8597 15.8364 13.137 15.7137 13.6597C15.5964 14.1557 15.2977 14.8917 14.8177 15.8677C14.8017 14.6197 14.6204 13.953 14.2897 13.873C14.2417 13.8623 14.1404 13.873 13.9804 13.9103C13.8204 13.9423 13.703 13.953 13.6337 13.937C13.2977 13.857 13.0737 13.4783 12.951 12.801C12.4017 12.753 12.071 12.961 11.959 13.425C11.9057 13.6597 11.9644 13.8677 12.1457 14.0597C12.327 14.2517 12.407 14.3743 12.3964 14.433C12.3217 14.7477 11.751 15.1157 10.6844 15.5423C10.1137 15.7717 9.72437 15.937 9.50571 16.0277C9.71904 15.857 9.94304 15.6277 10.1884 15.329C10.4657 14.993 10.6257 14.721 10.679 14.513C10.7057 14.401 10.615 14.2037 10.3964 13.9317C10.1777 13.6597 10.0977 13.409 10.1564 13.1797C10.2044 12.9823 10.3324 12.7583 10.5404 12.5023C10.4337 12.2943 10.2737 12.161 10.0657 12.113C9.60171 12.001 9.33504 12.097 9.26571 12.3957C9.31371 12.1877 9.27637 12.3423 9.15371 12.865C9.07371 13.249 8.73771 13.3717 8.15104 13.2277C7.69771 13.121 6.96704 12.833 5.95371 12.3743C7.22837 12.3637 7.91104 12.161 8.00704 11.7663C7.99637 11.8143 8.00704 11.6703 8.03904 11.3343C8.07637 10.9663 8.41237 10.6997 9.03104 10.545C9.05237 9.99034 8.83904 9.65967 8.39104 9.54767C8.32171 9.53167 8.16704 9.62234 7.92171 9.81967C7.67637 10.017 7.47371 10.097 7.31371 10.0597C7.03637 9.99568 6.74837 9.60634 6.45504 8.90234C6.31637 8.55034 6.10837 8.03301 5.82037 7.33967C6.05504 7.54234 6.28437 7.74501 6.51904 7.94767C6.82837 8.19301 7.08437 8.34234 7.29237 8.39034C7.45237 8.42768 7.64437 8.32634 7.86837 8.08101C8.09237 7.83567 8.33237 7.74501 8.58304 7.80367C8.62037 7.81434 8.83371 7.93701 9.22837 8.17701C9.52704 7.89434 9.69771 7.67034 9.73504 7.51034C9.76704 7.37167 9.72437 7.19567 9.59637 6.97167C9.47371 6.75301 9.34037 6.62501 9.20171 6.59301C9.14304 6.57701 9.05237 6.57701 8.91904 6.58234C8.79104 6.58767 8.69504 6.58234 8.63637 6.57167C8.42837 6.52367 8.38571 6.23567 8.50837 5.71834C8.54037 5.57967 8.86571 4.81701 9.47371 3.44101C9.42037 3.61167 9.42037 3.95301 9.46837 4.46501C9.52704 5.08901 9.68704 5.43034 9.95371 5.49967C10.0017 5.51034 10.103 5.49967 10.2577 5.46234C10.4124 5.42501 10.5297 5.41967 10.6097 5.43567C10.8764 5.49967 11.0577 5.70234 11.159 6.04367L11.3084 6.57167C11.5484 6.63034 11.7724 6.59301 11.975 6.45967C12.1777 6.32634 12.311 6.13434 12.3697 5.89434C12.4284 5.63834 12.3697 5.41967 12.1884 5.23834C12.007 5.05701 11.9217 4.92901 11.943 4.85967C12.0017 4.61967 12.4817 4.29967 13.383 3.90501C14.1084 3.59034 14.5724 3.41434 14.775 3.37701C14.119 3.93167 13.751 4.35834 13.6764 4.67301C13.639 4.83301 13.6924 5.03034 13.847 5.26501C14.039 5.54234 14.1404 5.73434 14.151 5.83034C14.2044 6.12367 14.103 6.48634 13.8577 6.91301C14.119 7.20634 14.327 7.37167 14.4924 7.41434C14.8284 7.49434 15.0364 7.36101 15.1164 7.01434C15.127 6.98234 15.1377 6.86501 15.1537 6.67301C15.1697 6.48101 15.1857 6.37434 15.2017 6.35301C15.287 6.20367 15.623 6.19834 16.215 6.33701C16.583 6.42767 17.3297 6.71567 18.4444 7.20101C18.1724 7.21167 17.767 7.22234 17.223 7.23834C16.727 7.26501 16.4604 7.36634 16.4177 7.54234C16.3964 7.62234 16.3964 7.76634 16.407 7.97967C16.4177 8.18767 16.4124 8.34234 16.391 8.43301C16.3537 8.59301 16.215 8.72101 15.9697 8.81168L15.2817 9.08901C15.3617 9.37701 15.415 9.54767 15.4524 9.60634C15.5377 9.77168 15.6764 9.87834 15.8684 9.92634C16.007 9.95834 16.1617 9.86767 16.3377 9.65434C16.5137 9.44101 16.727 9.36101 16.9777 9.42501C17.2924 9.49968 17.575 9.87301 17.8257 10.545C17.9644 10.9237 18.1884 11.4943 18.4977 12.2623L18.4924 12.2463ZM14.887 10.321C15.063 9.57967 14.9457 8.87568 14.535 8.20367C14.119 7.53167 13.543 7.10501 12.807 6.92901C12.055 6.74767 11.3457 6.85967 10.6737 7.27034C10.0017 7.67567 9.56971 8.25701 9.37771 9.00368C9.19104 9.73968 9.30837 10.4437 9.74037 11.1157C10.1724 11.7877 10.759 12.209 11.5004 12.3903C12.2844 12.577 13.0044 12.4757 13.655 12.0917C14.3057 11.7023 14.7164 11.1157 14.8924 10.3263L14.887 10.321ZM14.631 10.2623C14.4604 10.9663 14.087 11.4943 13.5004 11.841C12.9137 12.193 12.2684 12.2783 11.5644 12.113C10.8817 11.9477 10.3537 11.5743 9.98571 10.9823C9.61237 10.3903 9.51104 9.75567 9.67104 9.07301C9.83104 8.40101 10.215 7.88901 10.823 7.52634C11.431 7.16367 12.0657 7.06234 12.7377 7.22234C13.4097 7.38234 13.9324 7.76634 14.3057 8.36901C14.679 8.97168 14.791 9.60101 14.631 10.2623Z" fill="#211D15"/>
</g>
<defs>
<filter id="filter0_d_510_176" x="0.5" y="0" width="32.5" height="34" filterUnits="userSpaceOnUse" color-interpolation-filters="sRGB">
<feFlood flood-opacity="0" result="BackgroundImageFix"/>
<feColorMatrix in="SourceAlpha" type="matrix" values="0 0 0 0 0 0 0 0 0 0 0 0 0 0 0 0 0 0 127 0" result="hardAlpha"/>
<feOffset dx="-0.5" dy="2"/>
<feColorMatrix type="matrix" values="0 0 0 0 0 0 0 0 0 0 0 0 0 0 0 0 0 0 1 0"/>
<feBlend mode="normal" in2="BackgroundImageFix" result="effect1_dropShadow_510_176"/>
<feBlend mode="normal" in="SourceGraphic" in2="effect1_dropShadow_510_176" result="shape"/>
</filter>
<clipPath id="clip0_510_176">
<rect width="32" height="32" fill="white" transform="translate(1)"/>
</clipPath>
</defs>
</svg>
