<svg width="33" height="34" viewBox="0 0 33 34" fill="none" xmlns="http://www.w3.org/2000/svg">
<g clip-path="url(#clip0_510_174)" filter="url(#filter0_d_510_174)">
<path d="M17 32C25.8366 32 33 24.8366 33 16C33 7.16344 25.8366 0 17 0C8.16344 0 1 7.16344 1 16C1 24.8366 8.16344 32 17 32Z" fill="#FFFBD5"/>
<path d="M28.3124 4.68262C31.2084 7.57862 33.0004 11.5786 33.0004 16C33.0004 24.8373 25.8377 32 17.0004 32C12.5844 32 8.58439 30.208 5.68839 27.312" fill="#AAE0FA"/>
<path d="M25.5498 26.7787C24.6858 27.6533 23.6298 28.096 22.3658 28.096C20.9524 28.096 19.8271 27.6107 19.0004 26.6453C18.2164 25.7227 17.8217 24.5493 17.8217 23.1147C17.8217 21.5787 18.4884 19.824 19.8271 17.856C20.9204 16.24 22.2004 14.8267 23.6778 13.6107C23.4644 14.5973 23.3578 15.296 23.3578 15.712C23.3578 16.6667 23.6564 17.5947 24.2591 18.5013C24.9951 19.5787 25.5604 20.3787 25.9444 20.9013C26.5418 21.808 26.8458 22.6933 26.8458 23.552C26.8458 24.8267 26.4138 25.904 25.5551 26.784L25.5498 26.7787ZM25.5338 21.8613C25.3044 21.344 25.0324 21.0027 24.7284 20.8373C24.7764 20.928 24.7978 21.0613 24.7978 21.232C24.7978 21.5573 24.7071 22.016 24.5204 22.6133L24.2218 23.536C24.2218 24.0747 24.4884 24.3413 25.0271 24.3413C25.5978 24.3413 25.8804 23.9627 25.8804 23.2107C25.8804 22.8267 25.7631 22.3787 25.5338 21.8613Z" fill="#061922"/>
<path d="M18.4937 12.2453C17.715 11.52 17.1977 11.1253 16.9417 11.0666C16.755 11.024 16.579 11.1306 16.4084 11.3866C16.2377 11.6426 15.9924 11.7386 15.683 11.6586C15.555 11.6266 15.3097 11.52 14.9364 11.3333C14.6377 11.616 14.4777 11.8026 14.451 11.8933C14.419 12.0213 14.4777 12.192 14.627 12.4106C14.7764 12.6293 14.915 12.752 15.043 12.784C15.123 12.8053 15.2404 12.816 15.3897 12.8106C15.539 12.8106 15.6404 12.816 15.6884 12.8266C15.8324 12.8586 15.8377 13.136 15.715 13.6586C15.5977 14.1546 15.299 14.8906 14.819 15.8666C14.803 14.6186 14.6217 13.952 14.291 13.872C14.243 13.8613 14.1417 13.872 13.9817 13.9093C13.8217 13.9413 13.7044 13.952 13.635 13.936C13.299 13.856 13.075 13.4773 12.9524 12.8C12.403 12.752 12.0724 12.96 11.9604 13.424C11.907 13.6586 11.9657 13.8666 12.147 14.0586C12.3284 14.2506 12.4084 14.3733 12.3977 14.432C12.323 14.7466 11.7524 15.1146 10.6857 15.5413C10.115 15.7706 9.72571 15.936 9.50704 16.0266C9.72038 15.856 9.94438 15.6266 10.1897 15.328C10.467 14.992 10.627 14.72 10.6804 14.512C10.707 14.3946 10.6164 14.2026 10.3977 13.9306C10.179 13.6586 10.099 13.408 10.1577 13.1786C10.2057 12.9813 10.3337 12.7573 10.5417 12.5013C10.435 12.2933 10.275 12.16 10.067 12.112C9.60304 12 9.33638 12.096 9.26705 12.4C9.31505 12.192 9.27771 12.3466 9.15505 12.8693C9.07505 13.2533 8.73905 13.376 8.15238 13.232C7.69905 13.1253 6.96838 12.8373 5.95505 12.3786C7.22971 12.368 7.91238 12.1653 8.00838 11.7706C7.99771 11.8186 8.00838 11.6746 8.04038 11.3386C8.07771 10.9706 8.41371 10.704 9.03238 10.5493C9.05371 9.99464 8.84038 9.66398 8.39238 9.55198C8.32305 9.53598 8.16838 9.62664 7.92305 9.82398C7.67771 10.0213 7.47505 10.1013 7.31505 10.064C7.03772 9.99998 6.74972 9.61064 6.45638 8.90664C6.31772 8.55464 6.10972 8.03731 5.82172 7.34398C6.05638 7.54664 6.28572 7.74931 6.52038 7.95198C6.82971 8.19731 7.08571 8.34664 7.29371 8.39464C7.45371 8.43198 7.64571 8.33064 7.86971 8.08531C8.09371 7.83998 8.33371 7.74931 8.58438 7.80798C8.62171 7.81864 8.83505 7.94131 9.22971 8.18131C9.52838 7.89864 9.69905 7.67464 9.73638 7.51464C9.76838 7.37598 9.72571 7.19998 9.59771 6.97598C9.47505 6.75731 9.34171 6.62931 9.20305 6.59731C9.14438 6.58131 9.05371 6.58131 8.92038 6.58664C8.79238 6.59198 8.69638 6.58664 8.63771 6.57598C8.42971 6.52798 8.38705 6.23998 8.50971 5.72264C8.54171 5.58398 8.86705 4.82664 9.47505 3.44531C9.42171 3.61598 9.42171 3.95731 9.46971 4.46931C9.52838 5.09331 9.68838 5.43998 9.95505 5.50398C10.003 5.51464 10.1044 5.50398 10.259 5.46664C10.4137 5.42931 10.531 5.42398 10.611 5.43998C10.8777 5.50398 11.059 5.70664 11.1604 6.04798L11.3097 6.57598C11.5497 6.63464 11.7737 6.59731 11.9764 6.46398C12.179 6.33064 12.3124 6.13864 12.371 5.89864C12.4297 5.64264 12.371 5.42398 12.1897 5.24264C12.0084 5.06131 11.923 4.93331 11.9444 4.86398C12.003 4.62398 12.483 4.30398 13.3844 3.90931C14.1097 3.59464 14.5737 3.41864 14.7764 3.38131C14.1204 3.93598 13.7524 4.36264 13.6777 4.67731C13.6404 4.83731 13.6937 5.03464 13.8484 5.26931C14.0404 5.54664 14.1417 5.73864 14.1524 5.83464C14.2057 6.12798 14.1044 6.49064 13.859 6.91731C14.1204 7.21064 14.3284 7.37598 14.4937 7.41864C14.8297 7.49864 15.0377 7.36531 15.1177 7.01864C15.1284 6.98664 15.139 6.86931 15.155 6.67731C15.171 6.48531 15.187 6.37864 15.203 6.35731C15.2884 6.20798 15.6244 6.20264 16.2164 6.34131C16.5844 6.43198 17.331 6.71998 18.4457 7.20531C18.1737 7.21598 17.7684 7.22664 17.2244 7.24264C16.7284 7.26931 16.4617 7.37064 16.419 7.54664C16.3977 7.62664 16.3977 7.77064 16.4084 7.98398C16.419 8.19198 16.4137 8.34664 16.3924 8.43731C16.355 8.59731 16.2164 8.72531 15.971 8.81598L15.283 9.09331C15.363 9.38131 15.4164 9.55198 15.4537 9.61064C15.539 9.77598 15.6777 9.88264 15.8697 9.93064C16.0084 9.96264 16.163 9.87198 16.339 9.65864C16.515 9.44531 16.7284 9.36531 16.979 9.42931C17.2937 9.50398 17.5764 9.87731 17.827 10.5493C17.9657 10.9226 18.1897 11.4986 18.499 12.2666L18.4937 12.2453ZM14.8884 10.32C15.0644 9.57864 14.947 8.87464 14.5364 8.20264C14.1204 7.53064 13.5444 7.10398 12.8084 6.92798C12.0564 6.74664 11.347 6.86398 10.675 7.26931C10.003 7.67464 9.57105 8.25598 9.37905 9.00264C9.19238 9.73864 9.30971 10.4426 9.74171 11.1146C10.1737 11.7866 10.7604 12.2133 11.5017 12.3893C12.2857 12.576 13.0057 12.48 13.6564 12.0906C14.307 11.7013 14.7177 11.1146 14.8937 10.3253L14.8884 10.32ZM14.6324 10.2613C14.4617 10.9653 14.0884 11.4933 13.5017 11.84C12.915 12.1866 12.2697 12.2773 11.5657 12.112C10.883 11.9466 10.355 11.5733 9.98704 10.9813C9.61371 10.3893 9.51238 9.75464 9.67238 9.07198C9.83238 8.39998 10.2164 7.88798 10.8244 7.52531C11.4324 7.16264 12.067 7.06131 12.739 7.22131C13.411 7.38131 13.9337 7.76531 14.307 8.36798C14.6804 8.97064 14.7924 9.59998 14.6324 10.2613Z" fill="#211D15"/>
</g>
<defs>
<filter id="filter0_d_510_174" x="0.5" y="0" width="32.5" height="34" filterUnits="userSpaceOnUse" color-interpolation-filters="sRGB">
<feFlood flood-opacity="0" result="BackgroundImageFix"/>
<feColorMatrix in="SourceAlpha" type="matrix" values="0 0 0 0 0 0 0 0 0 0 0 0 0 0 0 0 0 0 127 0" result="hardAlpha"/>
<feOffset dx="-0.5" dy="2"/>
<feColorMatrix type="matrix" values="0 0 0 0 0 0 0 0 0 0 0 0 0 0 0 0 0 0 1 0"/>
<feBlend mode="normal" in2="BackgroundImageFix" result="effect1_dropShadow_510_174"/>
<feBlend mode="normal" in="SourceGraphic" in2="effect1_dropShadow_510_174" result="shape"/>
</filter>
<clipPath id="clip0_510_174">
<rect width="32" height="32" fill="white" transform="translate(1)"/>
</clipPath>
</defs>
</svg>
