<svg width="33" height="34" viewBox="0 0 33 34" fill="none" xmlns="http://www.w3.org/2000/svg">
<g filter="url(#filter0_d_8_327)">
<path d="M16.6411 31.8994C16.4634 31.7113 16.4171 31.3594 16.2687 31.1321C16.0925 30.8624 15.8765 30.6212 15.6896 30.3594C15.4445 30.0161 15.1648 29.6973 14.9171 29.355C14.4935 28.7695 14.0124 28.2606 13.5054 27.7447C12.2613 26.4789 10.962 25.3085 9.48542 24.3095C7.19775 22.7616 4.77297 21.4069 2.17287 20.4424C1.99248 20.3755 2.17287 20.4424 1 19.8758C1.2214 19.5244 2.58684 17.6115 2.90693 17.1039C3.44149 16.2562 3.82583 15.3294 4.22416 14.4145C4.73129 13.2496 5.18555 12.0572 5.54918 10.8412C6.01369 9.28784 6.40383 7.71201 6.70474 6.11952C6.7885 5.67629 7.28717 1.92127 7.58469 0C10.1944 0.743593 9.29924 0.519311 9.89101 0.67028C11.5305 1.08864 13.2504 1.17123 14.9331 1.29923C15.8923 1.37222 16.8427 1.36498 17.8033 1.35037C19.2315 1.32865 20.6626 1.26192 22.0784 1.06784C22.7832 0.971232 23.4852 0.839677 24.1745 0.664686C24.7199 0.526221 25.0714 0.448236 26.2408 0C26.3698 0.495751 27.6989 9.54154 29.4879 13.7008C30.1953 15.3455 32.3294 18.9575 33 19.7727C32.0464 20.1256 28.2102 21.8682 26.2181 23.0388C23.7715 24.4767 21.4585 26.2387 19.549 28.333C18.648 29.3215 17.9408 30.4788 17.2127 31.5931C16.9287 32.0277 16.8191 32.0867 16.6411 31.8994ZM17.4061 28.2861C17.9138 25.6575 19.3786 22.3127 21.6646 18.5626C22.4357 17.2975 23.9021 15.1264 24.792 13.932C25.3438 13.1913 25.5208 12.9183 25.5208 12.8075C25.5208 12.725 25.4891 12.6492 25.448 12.6336C25.4079 12.6184 25.054 12.6637 24.6614 12.7343C22.2515 13.1672 19.7991 13.3111 17.8929 13.1315C17.0302 13.0502 16.3986 12.9476 16.3272 12.8771C16.2767 12.8272 16.4718 11.6077 16.6308 10.9804C17.2956 8.35577 18.8484 5.59798 20.8321 3.51849C21.1377 3.19826 21.3752 2.92396 21.3601 2.90909C21.345 2.89415 21.1569 2.93759 20.9422 3.00563C18.4248 3.80299 15.626 3.88315 13.6109 3.21563C13.3357 3.12442 13.1032 3.05677 13.0941 3.06513C13.085 3.07355 13.105 3.34331 13.1386 3.66466C13.4546 6.68865 12.0017 10.6529 8.95366 15.0829C8.49527 15.7492 7.59847 16.9406 7.07749 17.5755C6.86734 17.8316 6.77765 17.9759 6.8222 17.9861C6.85995 17.9948 7.24529 17.9126 7.67851 17.8037C8.91503 17.4926 9.94947 17.3016 11.3627 17.1237C12.4439 16.9876 15.1067 17 16.0322 17.1454C16.6341 17.24 17.467 17.4224 17.5155 17.4704C17.5255 17.4803 17.5013 17.5857 17.4619 17.7047C17.2524 18.3353 16.9834 19.5894 16.8593 20.5124C16.6209 22.2863 16.6211 25.142 16.8597 27.2497C16.9535 28.0787 17.1199 29.142 17.1676 29.2183C17.2083 29.2832 17.2295 29.2004 17.4061 28.2861Z" fill="black"/>
</g>
<defs>
<filter id="filter0_d_8_327" x="0.5" y="0" width="32.5" height="34" filterUnits="userSpaceOnUse" color-interpolation-filters="sRGB">
<feFlood flood-opacity="0" result="BackgroundImageFix"/>
<feColorMatrix in="SourceAlpha" type="matrix" values="0 0 0 0 0 0 0 0 0 0 0 0 0 0 0 0 0 0 127 0" result="hardAlpha"/>
<feOffset dx="-0.5" dy="2"/>
<feColorMatrix type="matrix" values="0 0 0 0 0 0 0 0 0 0 0 0 0 0 0 0 0 0 1 0"/>
<feBlend mode="normal" in2="BackgroundImageFix" result="effect1_dropShadow_8_327"/>
<feBlend mode="normal" in="SourceGraphic" in2="effect1_dropShadow_8_327" result="shape"/>
</filter>
</defs>
</svg>
