<svg width="33" height="34" viewBox="0 0 33 34" fill="none" xmlns="http://www.w3.org/2000/svg">
<g filter="url(#filter0_d_510_203)">
<path d="M16.9998 32C25.8363 32 32.9998 24.8366 32.9998 16C32.9998 7.16344 25.8363 0 16.9998 0C8.1632 0 0.999756 7.16344 0.999756 16C0.999756 24.8366 8.1632 32 16.9998 32Z" fill="#CBC2BF"/>
</g>
<path d="M17.0002 32C25.8366 32 33 24.8366 33 16C33 7.16344 25.8366 0 17.0002 0C8.16368 0 1.00031 7.16344 1.00031 16C1.00031 24.8366 8.16368 32 17.0002 32Z" fill="#C9C4BE"/>
<path d="M9.00023 29.857L11.7215 28.5469L13.1096 28.5302L13.8632 27.2246L17.0001 31.6419L20.1368 27.2246L20.8903 28.5302L22.2785 28.5466L25.0001 29.857L25.2263 26.8451L25.9063 25.6336L25.153 24.3286L30.5466 23.8205L28.289 18.896H29.7965L30.5046 17.7018L32.9997 16L30.5046 14.2979L29.7965 13.104H28.289L30.5462 8.17887L25.153 7.67135L25.9063 6.36575L25.226 5.15551L24.9997 2.14367L22.2785 3.45343L20.8903 3.46975L20.1368 4.77503L16.9998 0.357754L13.8632 4.77503L13.1096 3.46975L11.7215 3.45343L8.99991 2.14367L8.77367 5.15551L8.09368 6.36575L8.84727 7.67135L3.45341 8.17919L5.71099 13.104H4.20349L3.49533 14.2982L1 16L3.49501 17.7018L4.20349 18.896H5.71099L3.45373 23.8211L8.84727 24.3286L8.09368 25.6336L8.77367 26.8445L9.00023 29.857Z" fill="#0D0F0F"/>
<path d="M22.9546 27.6103L24.0768 26.9626V25.6679L22.9546 25.0202L18.6279 16.9402L27.7891 16.6474L28.911 17.2954L30.0323 16.648V15.3523L28.911 14.705L27.7891 15.3523L18.6279 15.0602L22.9553 6.98015L24.0772 6.33247V5.03775L22.9553 4.39007L21.834 5.03743L21.8333 6.33247L17.0001 14.12L12.1666 6.33247L12.1663 5.03711L11.0453 4.38975L9.92309 5.03775V6.33247L11.045 6.98015L15.372 15.0602L6.21113 15.3523L5.0889 14.705L3.96796 15.352V16.6474L5.0889 17.295L6.21113 16.6474L15.372 16.9402L11.0447 25.0202L9.92309 25.6675L9.92277 26.9626L11.0447 27.6099L12.1663 26.9626V25.6675L16.9998 17.88L21.8333 25.6675V26.9629L22.9546 27.6103Z" fill="white"/>
<path d="M19.2561 7.16575L17.0002 11.0979L14.7442 7.16575L17.0002 3.23328L19.2561 7.16575Z" fill="white"/>
<path d="M10.4774 9.62879L12.7548 13.5488L8.22139 13.5363L5.94397 9.61663L10.4774 9.62879Z" fill="white"/>
<path d="M8.22109 18.463L12.7545 18.4509L10.4771 22.3706L5.94366 22.3831L8.22109 18.463Z" fill="white"/>
<path d="M14.7435 24.8342L16.9998 20.9017L19.2558 24.8342L16.9998 28.7667L14.7435 24.8342Z" fill="white"/>
<path d="M23.5226 22.3712L21.2455 18.4512L25.7786 18.4637L28.056 22.383L23.5226 22.3712Z" fill="white"/>
<path d="M25.7792 13.5369L21.2455 13.5491L23.523 9.62944L28.056 9.61696L25.7792 13.5369Z" fill="white"/>
<defs>
<filter id="filter0_d_510_203" x="0.499756" y="0" width="32.5" height="34" filterUnits="userSpaceOnUse" color-interpolation-filters="sRGB">
<feFlood flood-opacity="0" result="BackgroundImageFix"/>
<feColorMatrix in="SourceAlpha" type="matrix" values="0 0 0 0 0 0 0 0 0 0 0 0 0 0 0 0 0 0 127 0" result="hardAlpha"/>
<feOffset dx="-0.5" dy="2"/>
<feColorMatrix type="matrix" values="0 0 0 0 0 0 0 0 0 0 0 0 0 0 0 0 0 0 1 0"/>
<feBlend mode="normal" in2="BackgroundImageFix" result="effect1_dropShadow_510_203"/>
<feBlend mode="normal" in="SourceGraphic" in2="effect1_dropShadow_510_203" result="shape"/>
</filter>
</defs>
</svg>
