<svg width="32" height="32" viewBox="0 0 32 32" fill="none" xmlns="http://www.w3.org/2000/svg">
<path d="M31.5 16C31.5 24.5604 24.5604 31.5 16 31.5C7.43959 31.5 0.5 24.5604 0.5 16C0.5 7.43959 7.43959 0.5 16 0.5C24.5604 0.5 31.5 7.43959 31.5 16Z" stroke="black"/>
<path d="M16.6014 23.4615C17.6949 23.4615 19.8007 22.9231 19.8007 16.9615C19.8007 10.5769 17.9784 8.61538 16.2775 8.61538C14.9006 8.61538 13.1997 9.61538 13.1997 15.1154C13.1997 21.5769 15.184 23.4615 16.6014 23.4615ZM16.6014 25C12.9162 25 9.95991 21.6154 10.0004 16.3462C10.0004 12.0769 12.4302 7 16.2775 7C20.3677 7 23 10.6154 23 15.4231C23 23.6154 18.0188 25 16.561 25" fill="#130C0E"/>
</svg>
