<svg width="32" height="32" viewBox="0 0 32 32" fill="none" xmlns="http://www.w3.org/2000/svg">
<path d="M31.5 16C31.5 24.5604 24.5604 31.5 16 31.5C7.43959 31.5 0.5 24.5604 0.5 16C0.5 7.43959 7.43959 0.5 16 0.5C24.5604 0.5 31.5 7.43959 31.5 16Z" stroke="black"/>
<path d="M18.3578 7V22.0467C18.3578 24.0234 19.555 23.983 20.3394 23.983H21V26H12V23.983H12.8257C13.5688 23.983 14.7661 23.983 14.7661 22.0467V12.4055C14.7661 10.5096 14.1468 10.3482 12.8257 10.3885H12.0826V8.33121H12.9083C14.3945 8.33121 15.2615 7.04034 16.7477 7H18.3578Z" fill="#130C0E"/>
</svg>
