<svg width="32" height="32" viewBox="0 0 32 32" fill="none" xmlns="http://www.w3.org/2000/svg">
<path d="M31.5 16C31.5 24.5604 24.5604 31.5 16 31.5C7.43959 31.5 0.5 24.5604 0.5 16C0.5 7.43959 7.43959 0.5 16 0.5C24.5604 0.5 31.5 7.43959 31.5 16Z" stroke="black"/>
<path d="M13.5124 22.3236H18.2764C20.1739 22.3236 20.7391 22.2055 21.3851 20.1588L23 20.1194L21.5466 25H10.0404L10 23.6618C18.6398 15.4357 18.8012 14.2156 18.882 12.9954C19.0839 10.319 17.1056 9.45308 16.0559 9.45308C15.0062 9.45308 13.2702 10.1222 11.5745 13.5071L10.0807 12.8773C12.3416 6.69793 16.1366 6.97345 17.3478 7.01281C20.3354 7.09153 22.2733 9.84668 22.1925 12.1689C22.1118 15.3176 20.6988 15.7899 13.5124 22.3236Z" fill="#130C0E"/>
</svg>
