<svg width="32" height="32" viewBox="0 0 32 32" fill="none" xmlns="http://www.w3.org/2000/svg">
<path d="M31.5 16C31.5 24.5604 24.5604 31.5 16 31.5C7.43959 31.5 0.5 24.5604 0.5 16C0.5 7.43959 7.43959 0.5 16 0.5C24.5604 0.5 31.5 7.43959 31.5 16Z" stroke="black"/>
<path d="M21.9994 18.9555C21.9584 24.0563 16.6684 26.0399 13.7569 25.9994C10.5173 25.9589 9 24.5825 9 24.5825L9.94317 23.3276C9.94317 23.3276 11.5015 24.3396 13.7159 24.3396C14.9871 24.3396 18.8418 23.1657 18.8418 19.3199C18.8418 17.2553 16.9555 16.4861 16.0123 16.4456C15.1921 16.4456 14.29 16.8909 13.0187 17.6196L12.3216 16.1218C16.8324 13.4095 17.5296 12.5998 17.5296 11.3449C17.5296 10.1709 16.4634 9.40176 15.5202 9.40176C14.577 9.40176 13.2238 9.64466 10.7223 12.3165L9.41008 11.2639C12.6497 6.77043 15.5202 6.97284 16.3814 7.01333C18.3087 7.09429 20.6051 8.10634 20.6461 10.5353C20.6461 11.5068 20.3181 12.6403 18.1037 14.3001C19.99 14.5025 22.0404 16.1623 21.9994 18.9555Z" fill="#130C0E"/>
</svg>
