<svg width="32" height="32" viewBox="0 0 32 32" fill="none" xmlns="http://www.w3.org/2000/svg">
<path d="M31.5 16C31.5 24.5604 24.5604 31.5 16 31.5C7.43959 31.5 0.5 24.5604 0.5 16C0.5 7.43959 7.43959 0.5 16 0.5C24.5604 0.5 31.5 7.43959 31.5 16Z" stroke="black"/>
<path d="M16.1015 17.8957L16.1403 9.8413L11.0179 17.8957H16.1015ZM9.03881 19.837L9 17.8957L16.6836 6H19.2448V17.8957C19.9821 17.8957 20.4478 16.6565 20.5254 16.0783H22L21.4955 19.7957H19.2836V21.613C19.2836 22.7283 19.7104 23.3891 20.7194 23.3891H21.4955V25H13.8507L13.8896 23.3891H14.8209C15.4806 23.3891 16.2179 22.9348 16.1791 21.5304V19.7543" fill="#130C0E"/>
</svg>
