<svg width="32" height="32" viewBox="0 0 32 32" fill="none" xmlns="http://www.w3.org/2000/svg">
<path d="M31.5 16C31.5 24.5604 24.5604 31.5 16 31.5C7.43959 31.5 0.5 24.5604 0.5 16C0.5 7.43959 7.43959 0.5 16 0.5C24.5604 0.5 31.5 7.43959 31.5 16Z" stroke="black"/>
<path d="M21.92 18.8141C21.88 23.9295 17.48 26 14 26C12 26 10 25.2692 10 25.2692L10.6 23.8077C10.6 23.8077 12 24.2949 13.48 24.2949C15.12 24.2949 18.72 23.0769 18.72 19.3419C18.72 17.2714 17.36 15.1603 14.52 15.1603C13.04 15.1603 11.72 16.0534 11.32 16.4594L10.28 16.2564L12.36 7.32479H19.44C20.4 7.32479 20.48 7.20299 20.56 7H22L21.32 10.1261H13.28L12.68 12.9679C12.68 12.9679 13.8 12.4402 15.4 12.4808C20.44 12.5214 21.88 16.9466 21.88 18.8547L21.92 18.8141Z" fill="#130C0E"/>
</svg>
