<svg width="32" height="32" viewBox="0 0 32 32" fill="none" xmlns="http://www.w3.org/2000/svg">
<path d="M31.5 16C31.5 24.5604 24.5604 31.5 16 31.5C7.43959 31.5 0.5 24.5604 0.5 16C0.5 7.43959 7.43959 0.5 16 0.5C24.5604 0.5 31.5 7.43959 31.5 16Z" stroke="black"/>
<path d="M15.8176 23.4231C16.9609 23.4231 18.6124 22.6538 18.6124 19.1923C18.6124 16.5 17.5114 14.6154 15.7329 14.6154C14.2932 14.6154 12.9805 15.6538 12.3876 16.7308C12.1336 20.5 13.7003 23.3846 15.7752 23.3846L15.8176 23.4231ZM15.8176 25C11.9642 25 9 21.8077 9 17.2308C9 14.1538 11.1596 7.23077 20.3062 7V8.46154C13.5309 8.69231 12.7687 14.1154 12.7687 14.1154C12.7687 14.1154 14.3779 12.7308 16.7492 12.7308C18.1889 12.7308 22 13.6923 22 18.5C22 23.0385 18.4853 25 15.8599 25" fill="#130C0E"/>
</svg>
