<svg width="32" height="32" viewBox="0 0 32 32" fill="none" xmlns="http://www.w3.org/2000/svg">
<path d="M31.5 16C31.5 24.5604 24.5604 31.5 16 31.5C7.43959 31.5 0.5 24.5604 0.5 16C0.5 7.43959 7.43959 0.5 16 0.5C24.5604 0.5 31.5 7.43959 31.5 16Z" stroke="black"/>
<path d="M13.6 7.2885H22L21.9613 9.06074C21.9613 9.06074 17.1613 18.0043 17.0839 26H13.9871C13.6774 20.3124 19.6774 10.1323 19.6774 10.1323L14.0645 10.1735C12.4387 10.1735 11.9742 11.3688 11.5871 12.6052H10L11.2 7H12.2452C12.6323 7.24729 13.0968 7.2885 13.6 7.2885Z" fill="#130C0E"/>
</svg>
