<svg width="32" height="32" viewBox="0 0 32 32" fill="none" xmlns="http://www.w3.org/2000/svg">
<path d="M31.5 16C31.5 24.5604 24.5604 31.5 16 31.5C7.43959 31.5 0.5 24.5604 0.5 16C0.5 7.43959 7.43959 0.5 16 0.5C24.5604 0.5 31.5 7.43959 31.5 16Z" stroke="black"/>
<path d="M16.2932 24.383C17.3485 24.383 19.6156 23.6553 19.6156 21.5128C19.6156 20.0574 18.5993 18.683 15.0033 17.1468C13.1661 18.3596 12.6189 19.6532 12.6189 20.7447C12.6189 23.2511 14.5342 24.383 16.2541 24.383H16.2932ZM19.0684 11.6894C19.0684 10.234 17.8958 8.7383 15.9414 8.7383C14.0261 8.7383 13.0879 10.0723 13.0879 11.083C13.0879 12.9426 14.5342 13.4681 16.9577 14.6809C17.5831 14.3574 19.0293 13.6298 19.0293 11.7298L19.0684 11.6894ZM16.3322 26C12.7752 26 10 23.9383 10 20.9468C10 17.9957 13.3616 16.2979 13.3616 16.2979C12.5407 15.7723 10.3909 14.4787 10.3909 12.0128C10.3909 8.01064 14.2606 7 16.2541 7C20.4756 7 21.6482 10.5574 21.6482 11.4872C21.6482 13.5085 19.8893 14.9234 18.7166 15.4489C18.7166 15.4489 22 16.783 22 20.6638C22 24.1809 18.7557 26 16.3322 26Z" fill="#130C0E"/>
</svg>
