<svg width="32" height="32" viewBox="0 0 32 32" fill="none" xmlns="http://www.w3.org/2000/svg">
<path d="M31.5 16C31.5 24.5604 24.5604 31.5 16 31.5C7.43959 31.5 0.5 24.5604 0.5 16C0.5 7.43959 7.43959 0.5 16 0.5C24.5604 0.5 31.5 7.43959 31.5 16Z" stroke="black"/>
<path d="M18.8602 15.2692C19.209 11.7308 17.6585 8.57692 15.7204 8.57692C13.6659 8.57692 13.1232 11.0769 13.1232 12.7692C13.1232 13.5 13.2395 17.3462 15.7979 17.3462C16.3406 17.3462 17.6973 17.1923 18.8602 15.2692ZM11.6502 23.4615C17.6585 23.5 18.4725 18.0385 18.4725 18.0385C18.4725 18.0385 16.922 19.3077 14.9839 19.3077C10.6036 19.3077 8.9368 13.6154 10.6811 10.5C11.9991 8.15385 13.4333 7 15.7979 7C20.1781 7 22 11.5385 22 14.8077C22 16.2308 21.341 24.6154 11.6115 25" fill="#130C0E"/>
</svg>
