<svg width="32" height="32" viewBox="0 0 32 32" fill="none" xmlns="http://www.w3.org/2000/svg">
<path d="M31.5 16C31.5 24.5604 24.5604 31.5 16 31.5C7.43959 31.5 0.5 24.5604 0.5 16C0.5 7.43959 7.43959 0.5 16 0.5C24.5604 0.5 31.5 7.43959 31.5 16Z" stroke="black"/>
<path d="M24.991 16.1782H15.2793L18.8358 13.6061C17.5139 12.5416 15.9852 12.0071 14.2542 12.0071C13.3864 12.0071 12.7929 12.1761 12.4782 12.5096C12.159 12.8477 11.9971 13.4553 11.9971 14.3325C11.9971 16.7629 13.229 19.3579 15.6929 22.1173L12.8918 25C9.63211 20.9706 8 17.366 8 14.1954C8 12.2949 8.56202 10.7827 9.69056 9.65888C10.8191 8.53503 12.3208 7.9731 14.1867 7.9731C16.4663 7.9731 18.9527 8.85482 21.6459 10.6137L23.7321 7L25 16.1736" fill="#130C0E"/>
</svg>
